<?xml version="1.0" standalone="no"?>
<!DOCTYPE svg PUBLIC "-//W3C//DTD SVG 1.1//EN" "http://www.w3.org/Graphics/SVG/1.1/DTD/svg11.dtd" >
<svg>
<metadata>
Created by FontForge 20090622 at Mon Aug 22 20:49:04 2016
 By ffonts
&#194;&#169;2014 Steve Gardner
</metadata>
<defs>
<font id="LarkeNeueBold-Bold" horiz-adv-x="1286" >
  <font-face 
    font-family="Larke Neue Bold"
    font-weight="400"
    font-stretch="normal"
    units-per-em="2048"
    panose-1="0 0 5 4 0 0 0 0 0 4"
    ascent="1565"
    descent="-483"
    x-height="1009"
    cap-height="1418"
    bbox="-232 -859 2794 1987"
    underline-thickness="109"
    underline-position="-167"
    unicode-range="U+0020-U+FB04"
  />
<missing-glyph horiz-adv-x="1306" 
d="M140 -360v1804h1026v-1804h-1026zM257 -248h795v1577h-795v-1577z" />
    <glyph glyph-name="ff" unicode="ff" horiz-adv-x="1444" 
d="M164 1009v128q0 140 85 224q84 84 225 84t250 -86l-79 -184q-61 41 -109 41q-96 0 -95 -102v-105h413v128q0 140 85 224q84 84 225 84t250 -86l-79 -184q-61 41 -109 41q-96 0 -95 -102v-105h185v-216h-185v-793h-277v793h-413v-793h-277v793h-134v216h134z" />
    <glyph glyph-name="fi" unicode="fi" horiz-adv-x="1306" 
d="M993 1427q66 0 117 -51q48 -46 48 -112q0 -70 -50 -117q-49 -47 -115 -47q-69 0 -118 48q-47 47 -47 116q0 68 47 114q48 49 118 49zM854 793h-413v-793h-277v793h-134v216h134v128q0 140 85 224q84 84 225 84t250 -86l-79 -184q-61 41 -109 41q-96 0 -95 -102v-105h690
v-1009h-277v793z" />
    <glyph glyph-name="fl" unicode="fl" horiz-adv-x="1271" 
d="M474 1445q141 0 250 -86l-79 -184q-61 41 -109 41q-96 0 -95 -102v-105h185v-216h-185v-793h-277v793h-134v216h134v128q0 140 84.5 224t225.5 84zM854 1418h277v-1418h-277v1418z" />
    <glyph glyph-name="ffi" unicode="ffi" horiz-adv-x="1988" 
d="M1683 1427q66 0 117 -51q48 -46 48 -112q0 -70 -50 -117q-49 -47 -115 -47q-69 0 -118 48q-47 47 -47 116q0 68 47 114q48 49 118 49zM1544 793h-413v-793h-277v793h-413v-793h-277v793h-134v216h134v128q0 140 85 224q84 84 225 84t250 -86l-79 -184q-61 41 -109 41
q-96 0 -95 -102v-105h413v128q0 140 85 224q84 84 225 84t250 -86l-79 -184q-61 41 -109 41q-96 0 -95 -102v-105h690v-1009h-277v793z" />
    <glyph glyph-name="ffl" unicode="ffl" horiz-adv-x="1961" 
d="M1544 1418h277v-1418h-277v1418zM164 1009v128q0 140 85 224q84 84 225 84t250 -86l-79 -184q-61 41 -109 41q-96 0 -95 -102v-105h413v128q0 140 85 224q84 84 225 84t250 -86l-79 -184q-61 41 -109 41q-96 0 -95 -102v-105h185v-216h-185v-793h-277v793h-413v-793h-277
v793h-134v216h134z" />
    <glyph glyph-name="fj" unicode="fj" horiz-adv-x="1288" 
d="M993 1427q66 0 117 -51q48 -46 48 -112q0 -70 -50 -117q-49 -47 -115 -47q-69 0 -118 48q-47 47 -47 116q0 68 47 114q48 49 118 49zM854 793h-413v-793h-277v793h-134v216h134v128q0 140 85 224q84 84 225 84t250 -86l-79 -184q-61 41 -109 41q-96 0 -95 -102v-105h690
v-1140q0 -140 -86 -224q-85 -84 -222 -84t-249 86l80 184q56 -41 104 -41q96 0 96 102v901z" />
    <glyph glyph-name=".notdef" horiz-adv-x="1306" 
d="M140 -360v1804h1026v-1804h-1026zM257 -248h795v1577h-795v-1577z" />
    <glyph glyph-name=".null" horiz-adv-x="0" 
 />
    <glyph glyph-name="nonmarkingreturn" horiz-adv-x="600" 
 />
    <glyph glyph-name="space" unicode=" " horiz-adv-x="750" 
 />
    <glyph glyph-name="a" unicode="a" horiz-adv-x="1373" 
d="M475 748q-82 -95 -82 -245t81 -244q81 -93 208.5 -93t208.5 93.5t81 243.5t-81 245.5t-208.5 95.5t-207.5 -96zM1233 1009v-1009h-277v134q-153 -159 -366 -159t-351.5 149.5t-138.5 378.5t139 381q138 151 351 151t366 -159v133h277z" />
    <glyph glyph-name="b" unicode="b" horiz-adv-x="1373" 
d="M140 1418h277v-542q153 159 366 159t351 -151q139 -152 139 -381t-138.5 -378.5t-351.5 -149.5t-366 159v-134h-277v1418zM483 748q-82 -95 -82 -245t81 -244q81 -93 208.5 -93t208.5 93.5t81 243.5t-81 245.5t-208.5 95.5t-207.5 -96z" />
    <glyph glyph-name="c" unicode="c" horiz-adv-x="1230" 
d="M666 1035q322 0 484 -245l-242 -115q-73 169 -242 169q-121 0 -197 -95.5t-76 -245.5t76 -245.5t197 -95.5q169 0 242 169l242 -115q-159 -241 -484 -241q-245 0 -405.5 149.5t-160.5 378.5t160.5 380.5t405.5 151.5z" />
    <glyph glyph-name="d" unicode="d" horiz-adv-x="1373" 
d="M475 748q-82 -95 -82 -245t81 -244q81 -93 208.5 -93t208.5 93.5t81 243.5t-81 245.5t-208.5 95.5t-207.5 -96zM1233 1418v-1418h-277v134q-153 -159 -366 -159t-351.5 149.5t-138.5 378.5t139 381q138 151 351 151t366 -159v542h277z" />
    <glyph glyph-name="e" unicode="e" horiz-adv-x="1321" 
d="M1068 885q153 -152 153 -382q0 -24 -7 -83h-815q19 -118 99 -188t201 -70q156 0 261 125l219 -102q-76 -99 -205 -154.5t-275 -55.5q-262 0 -430.5 149t-168.5 379t161 381q160 152 408 152t399 -151zM492 774q-70 -70 -93 -185h535q-20 115 -90 185t-177 70
q-105 0 -175 -70z" />
    <glyph glyph-name="f" unicode="f" horiz-adv-x="754" 
d="M474 1445q141 0 250 -86l-79 -184q-61 41 -109 41q-96 0 -95 -102v-105h185v-216h-185v-793h-277v793h-134v216h134v128q0 140 84.5 224t225.5 84z" />
    <glyph glyph-name="g" unicode="g" horiz-adv-x="1373" 
d="M593 1035q213 0 363 -159v133h277v-898q0 -550 -608 -550q-242 0 -433 102l80 222q171 -89 347 -89t256 76q81 77 81 262q-150 -159 -363 -159t-353 149q-140 150 -140 379t140 380.5t353 151.5zM475 748q-82 -95 -82 -245t81 -244q81 -93 208.5 -93t208.5 93.5t81 243.5
t-81 245.5t-208.5 95.5t-207.5 -96z" />
    <glyph glyph-name="h" unicode="h" horiz-adv-x="1285" 
d="M140 1418h277v-542q140 159 350 159q169 0 278.5 -110t109.5 -288v-637h-277v637q0 89 -58.5 148t-144.5 59q-109 -3 -183.5 -81t-74.5 -177v-586h-277v1418z" />
    <glyph glyph-name="i" unicode="i" horiz-adv-x="610" 
d="M166 1009h277v-1009h-277v1009zM305 1427q66 0 117 -51q48 -46 48 -112q0 -70 -50 -117q-49 -47 -115 -47q-69 0 -118 48q-47 47 -47 116q0 68 47 114q48 49 118 49z" />
    <glyph glyph-name="j" unicode="j" horiz-adv-x="754" 
d="M310 1009h277v-1140q0 -140 -85.5 -224t-222.5 -84t-249 86l80 184q56 -41 104 -41q96 0 96 102v1117zM449 1427q66 0 117 -51q48 -46 48 -112q0 -70 -50 -117q-49 -47 -115 -47q-69 0 -118 48q-47 47 -47 116t47 114q49 49 118 49z" />
    <glyph glyph-name="k" unicode="k" horiz-adv-x="1160" 
d="M140 1418h277v-781l350 372h363l-461 -461l458 -548h-331l-299 376l-80 -83v-293h-277v1418z" />
    <glyph glyph-name="l" unicode="l" horiz-adv-x="557" 
d="M140 1418h277v-1418h-277v1418z" />
    <glyph glyph-name="m" unicode="m" horiz-adv-x="1923" 
d="M742 1035q229 0 322 -194q162 194 366 194q165 0 264 -108.5t99 -289.5v-637h-277v637q0 92 -48 149.5t-130 57.5q-109 -3 -171 -79.5t-62 -178.5v-586h-277v637q0 92 -47.5 149.5t-130.5 57.5q-108 -3 -170.5 -79.5t-62.5 -178.5v-586h-277v1009h277v-133
q141 159 325 159z" />
    <glyph glyph-name="n" unicode="n" 
d="M767 1035q169 0 279 -110t110 -288v-637h-277v637q0 89 -59 148t-145 59q-108 -3 -183 -81t-75 -177v-586h-277v1009h277v-133q140 159 350 159z" />
    <glyph glyph-name="o" unicode="o" horiz-adv-x="1334" 
d="M1075 882q159 -149 159 -379q0 -228 -161 -379q-161 -149 -406 -149t-406 149.5t-161 378.5t161 380.5t406 151.5t408 -153zM470 748q-77 -95 -77 -245t77 -246q76 -95 197 -95t197.5 95.5t76.5 245.5t-76.5 245.5t-197.5 95.5t-197 -96z" />
    <glyph glyph-name="p" unicode="p" horiz-adv-x="1373" 
d="M481 748q-83 -95 -83 -245t83 -246q83 -95 210.5 -95t208.5 95.5t81 245.5t-81 245.5t-208.5 95.5t-210.5 -96zM140 -411v1420h277v-133q153 159 366 159t351.5 -149.5t138.5 -378.5t-139 -381q-138 -151 -351 -151t-366 159v-545h-277z" />
    <glyph glyph-name="q" unicode="q" horiz-adv-x="1373" 
d="M472 748q-82 -95 -82 -245t83 -246q82 -95 209.5 -95t208.5 95.5t81 245.5t-81 245.5t-208.5 95.5t-210.5 -96zM1233 -411h-277v545q-153 -159 -366 -159t-351 151q-139 152 -139 381t138.5 378.5t351.5 149.5t366 -159v133h277v-1420z" />
    <glyph glyph-name="r" unicode="r" horiz-adv-x="808" 
d="M758 1035v-251q-64 38 -153 38t-140 -49.5t-51 -135.5v-637h-274v1009h274v-133q137 156 344 159z" />
    <glyph glyph-name="s" unicode="s" horiz-adv-x="1123" 
d="M580 1033q118 0 236 -41.5t207 -114.5l-135 -172q-160 112 -313 112q-130 0 -130 -76q0 -69 193 -116q153 -35 234 -82q146 -88 146 -248q0 -150 -130 -241q-118 -79 -308 -79q-136 0 -263.5 43t-216.5 118l138 173q157 -122 337 -122q72 0 119 26q43 25 43 67
q0 45 -47 73q-50 29 -146 50q-144 33 -228 80q-148 84 -148 237q0 139 117 225q120 88 295 88z" />
    <glyph glyph-name="t" unicode="t" horiz-adv-x="794" 
d="M184 1009v322h277v-322h184v-216h-184v-491q0 -101 96 -101q48 0 104 41l83 -182q-111 -85 -251 -85q-141 0 -225 84t-84 221v513h-134v216h134z" />
    <glyph glyph-name="u" unicode="u" 
d="M130 1009h277v-640q0 -89 59 -148t145 -59q108 4 183 82t75 176v589h277v-1009h-277v134q-141 -159 -351 -159q-168 0 -278 109.5t-110 288.5v636z" />
    <glyph glyph-name="v" unicode="v" horiz-adv-x="1168" 
d="M30 1009h293l261 -678l261 678h293l-411 -1009h-286z" />
    <glyph glyph-name="w" unicode="w" horiz-adv-x="1674" 
d="M30 1009h286l194 -652l201 652h248l204 -652l191 652h290l-312 -1009h-280l-217 697l-213 -697h-280z" />
    <glyph glyph-name="x" unicode="x" horiz-adv-x="1183" 
d="M52 1009h340l198 -271l200 271h340l-381 -491l404 -518h-341l-222 299l-220 -299h-340l404 518z" />
    <glyph glyph-name="y" unicode="y" horiz-adv-x="1314" 
d="M158 1009h277v-640q0 -89 59 -148t145 -59q108 4 183 82t75 176v589h277v-898q0 -550 -608 -550q-242 0 -436 102l79 222q171 -89 347 -89t258 76q83 77 83 262q-140 -159 -350 -159q-169 0 -279 109.5t-110 288.5v636z" />
    <glyph glyph-name="z" unicode="z" horiz-adv-x="1111" 
d="M126 1009h872v-168l-516 -628h529v-213h-911v166l500 627h-474v216z" />
    <glyph glyph-name="A" unicode="A" horiz-adv-x="1552" 
d="M644 1418h264l614 -1418h-315l-127 307h-608l-127 -307h-315zM777 1043l-207 -494h411z" />
    <glyph glyph-name="B" unicode="B" horiz-adv-x="1447" 
d="M140 1418h809q146 0 246.5 -97t100.5 -250q0 -114 -68.5 -204t-177.5 -126q128 -25 212.5 -128.5t84.5 -236.5q0 -166 -108.5 -271t-267.5 -105h-831v1418zM433 1176v-312h398q67 0 111.5 43t44.5 113.5t-44.5 113t-111.5 42.5h-398zM433 623v-381h417q83 0 137 50.5
t54 140t-54 140t-137 50.5h-417z" />
    <glyph glyph-name="C" unicode="C" horiz-adv-x="1589" 
d="M1242 955q-27 47 -66 87q-127 130 -325 130t-325 -130q-125 -129 -125 -335t126 -335.5t324 -129.5t325 130q39 40 66 88l267 -121q-48 -85 -122 -157q-212 -207 -535 -207t-537.5 207.5t-214.5 524.5t214.5 526t537.5 209t533 -212q74 -71 122 -154z" />
    <glyph glyph-name="D" unicode="D" horiz-adv-x="1583" 
d="M140 1418h633q303 0 506.5 -197t203.5 -511.5t-203.5 -512t-506.5 -197.5h-633v1418zM430 1178v-936h277q200 0 335.5 128.5t135.5 338.5t-135.5 339.5t-335.5 129.5h-277z" />
    <glyph glyph-name="E" unicode="E" horiz-adv-x="1324" 
d="M140 1418h1064v-242h-772v-321h730v-242h-730v-372h772v-241h-1064v1418z" />
    <glyph glyph-name="F" unicode="F" horiz-adv-x="1306" 
d="M140 1418h1066v-242h-776v-320h690v-242h-690v-614h-290v1418z" />
    <glyph glyph-name="G" unicode="G" horiz-adv-x="1662" 
d="M845 1441q200 0 358 -86t249 -237l-273 -116q-136 166 -334 166q-194 0 -317 -129t-123 -332q0 -201 123 -331t317 -130q166 0 284 90t146 248h-462v246h739q10 -58 10 -122q0 -321 -199.5 -527t-517.5 -206q-322 0 -533.5 207.5t-211.5 524.5t211.5 525.5t533.5 208.5z
" />
    <glyph glyph-name="H" unicode="H" horiz-adv-x="1524" 
d="M140 1418h290v-561h665v561h289v-1418h-289v615h-665v-615h-290v1418z" />
    <glyph glyph-name="I" unicode="I" horiz-adv-x="568" 
d="M140 1418h288v-1418h-288v1418z" />
    <glyph glyph-name="J" unicode="J" horiz-adv-x="1035" 
d="M612 1418h293v-952q0 -208 -138.5 -349.5t-354 -141.5t-362.5 158l176 208q66 -89 187 -89q91 0 144 59q55 59 55 143v964z" />
    <glyph glyph-name="K" unicode="K" horiz-adv-x="1380" 
d="M140 1418h290v-547l506 547h379l-605 -633l640 -785h-370l-461 588l-89 -92v-496h-290v1418z" />
    <glyph glyph-name="L" unicode="L" horiz-adv-x="1131" 
d="M389 1418v-1177h642v-241h-931v1418h289z" />
    <glyph glyph-name="M" unicode="M" horiz-adv-x="1865" 
d="M140 1418h324l467 -1078l467 1078h327v-1418h-289v887l-391 -887h-228l-388 890v-890h-289v1418z" />
    <glyph glyph-name="N" unicode="N" horiz-adv-x="1560" 
d="M140 1418h301l686 -977v977h293v-1418h-305v0l-686 978v-978h-289v1418z" />
    <glyph glyph-name="O" unicode="O" horiz-adv-x="1700" 
d="M1385 1230q215 -206 215 -523t-212.5 -524.5t-535.5 -207.5t-537.5 207.5t-214.5 524.5t214.5 526t537.5 209t533 -212zM525 1042q-125 -129 -125 -335t126 -335.5t324 -129.5t324.5 129.5t126.5 335.5t-126.5 335.5t-324.5 129.5t-325 -130z" />
    <glyph glyph-name="P" unicode="P" horiz-adv-x="1323" 
d="M140 1418h647q184 0 310 -124t126 -311t-126 -313t-310 -126h-358v-544h-289v1418zM429 1177v-391h295q81 0 137.5 55.5t56.5 142t-56.5 140t-137.5 53.5h-295z" />
    <glyph glyph-name="Q" unicode="Q" horiz-adv-x="1682" 
d="M1387 1233q215 -205 215 -517q0 -274 -205 -484h250v-232h-795q-324 -10 -538 195.5t-214 519t214 520.5t538.5 207t534.5 -209zM525 1042q-125 -129 -125 -335t126 -335.5t324 -129.5t324.5 129.5t126.5 335.5t-126.5 335.5t-324.5 129.5t-325 -130z" />
    <glyph glyph-name="R" unicode="R" horiz-adv-x="1325" 
d="M570 583h-141v-583h-289v1418h647q184 0 310 -124q126 -123 126 -311q0 -177 -124 -281q-82 -69 -222 -105l398 -597h-351zM429 1177v-391h295q81 0 137.5 55.5t56.5 142t-56.5 140t-137.5 53.5h-295z" />
    <glyph glyph-name="S" unicode="S" horiz-adv-x="1346" 
d="M689 1443q297 0 523 -186l-170 -205q-78 69 -166 100.5t-184 31.5q-110 0 -173 -48q-46 -37 -46 -95q0 -63 59 -102q46 -31 223 -81q209 -54 311 -118q180 -119 180 -331q0 -194 -168 -322q-152 -112 -386 -112q-342 0 -592 234l162 206q72 -73 185 -127q117 -59 245 -59
q120 0 190 51q63 51 63 119q0 70 -64 113q-47 32 -218 80q-219 63 -308 115q-185 109 -185 316q0 188 147 304t372 116z" />
    <glyph glyph-name="T" unicode="T" horiz-adv-x="1312" 
d="M80 1418h1152v-239h-432v-1179h-290v1179h-430v239z" />
    <glyph glyph-name="U" unicode="U" horiz-adv-x="1536" 
d="M130 1418h291v-843q0 -147 91 -240t255.5 -93t256 93t91.5 240v843h291v-820q0 -292 -166 -457.5t-474 -165.5t-472 165.5t-164 457.5v820z" />
    <glyph glyph-name="V" unicode="V" horiz-adv-x="1549" 
d="M30 1418h314l429 -1030l432 1030h314l-613 -1418h-264z" />
    <glyph glyph-name="W" unicode="W" horiz-adv-x="2171" 
d="M30 1418h303l312 -1033l303 1033h280l302 -1033l308 1033h303l-424 -1418h-331l-299 1019l-299 -1019h-334z" />
    <glyph glyph-name="X" unicode="X" horiz-adv-x="1505" 
d="M59 1418h353l341 -460l340 460h351l-522 -689l553 -729h-353l-369 502l-373 -502h-350l555 729z" />
    <glyph glyph-name="Y" unicode="Y" horiz-adv-x="1487" 
d="M30 1418h350l362 -554l363 554h352l-568 -830v-588h-290v588z" />
    <glyph glyph-name="Z" unicode="Z" horiz-adv-x="1400" 
d="M129 1418h1142v-186l-764 -991h793v-241h-1200v191l769 989h-740v238z" />
    <glyph glyph-name="zero" unicode="0" horiz-adv-x="1432" 
d="M1157 1231q175 -206 175 -523t-175 -525t-441 -208t-441 208t-175 525t175 525.5t441 208.5t441 -211zM485 1064q-93 -141 -93 -359.5t89 -355t235 -136.5t235 136.5t89 355t-90.5 358.5t-233.5 140t-231 -139z" />
    <glyph glyph-name="one" unicode="1" horiz-adv-x="887" 
d="M483 1418h264v-1418h-289v1145l-264 -153l-114 214z" />
    <glyph glyph-name="two" unicode="2" horiz-adv-x="1168" 
d="M595 1442q204 0 338 -109q135 -110 135 -315q0 -137 -92 -279q-114 -179 -472 -500h564v-239h-968v183l480 490q194 202 194 337q0 89 -56 142q-54 51 -152 51q-173 0 -310 -150l-156 176q208 213 495 213z" />
    <glyph glyph-name="three" unicode="3" horiz-adv-x="1256" 
d="M598 1441q226 0 368 -98q141 -97 141 -267q0 -117 -68 -201q-69 -83 -181 -118q298 -95 298 -366q0 -196 -140 -308q-139 -109 -395 -109q-310 0 -531 165l223 175q130 -103 274 -103q142 0 210 65q67 65 67 171q0 94 -70 146q-73 54 -207 54h-197v225h197q117 0 174 40
q53 37 53 110q0 75 -64 130q-61 51 -175 51q-113 0 -220 -60l-194 170q202 128 437 128z" />
    <glyph glyph-name="four" unicode="4" horiz-adv-x="1359" 
d="M791 1418h293v-862h175v-243h-175v-313h-290v313h-694v223zM794 1033l-376 -477h376v477z" />
    <glyph glyph-name="five" unicode="5" horiz-adv-x="1313" 
d="M242 1418h898v-239h-666l-36 -347q69 60 147.5 89.5t168.5 29.5q198 0 328.5 -125.5t130.5 -347.5q0 -219 -155 -360q-156 -145 -394 -145q-340 0 -564 276l180 160q167 -198 373 -198q121 0 194.5 73t73.5 184q0 102 -77 180q-76 75 -187 75q-156 0 -244 -151l-245 95z
" />
    <glyph glyph-name="six" unicode="6" horiz-adv-x="1320" 
d="M721 1444q232 0 454 -174l-165 -172q-137 108 -280 108t-243 -113q-97 -113 -89 -310q155 136 345 136q201 0 338 -129q139 -131 139 -322q0 -220 -156 -359q-150 -134 -376 -134q-258 0 -414 168q-174 185 -174 551q0 322 152 536t469 214zM478 617q-76 -66 -76 -165
t76 -169t184.5 -70t186.5 70t78 169t-78 167t-186.5 68t-184.5 -70z" />
    <glyph glyph-name="seven" unicode="7" horiz-adv-x="1247" 
d="M100 1418h1047v-190l-582 -1228h-335l585 1177h-715v241z" />
    <glyph glyph-name="eight" unicode="8" horiz-adv-x="1303" 
d="M1009 1342q143 -99 143 -265q0 -117 -68 -200t-186 -118q305 -104 305 -381q0 -194 -155.5 -299t-394.5 -105q-242 0 -397.5 105t-155.5 299q0 277 305 381q-118 35 -186 118t-68 200q0 166 144.5 266t358 100t355.5 -101zM491 1160q-63 -41 -63 -120.5t63 -122.5
t161.5 -43t160.5 43t62 122.5t-62 122.5t-160.5 43t-161.5 -45zM466 591q-74 -57 -74 -162q0 -102 75 -159.5t186 -57.5t184 57.5t73 159.5q0 105 -73 163.5t-184 58.5t-187 -60z" />
    <glyph glyph-name="nine" unicode="9" horiz-adv-x="1320" 
d="M599 -26q-232 0 -454 174l165 172q137 -108 280 -108t243 113q97 113 89 310q-155 -136 -345 -136q-201 0 -338 129q-139 131 -139 322q0 220 156 359q150 134 376 134q258 0 414 -168q174 -185 174 -551q0 -322 -152 -536t-469 -214zM842 801q76 66 76 165t-76 169
t-184.5 70t-186.5 -70t-78 -169t78 -167t186.5 -68t184.5 70z" />
    <glyph glyph-name="period" unicode="." horiz-adv-x="563" 
d="M281 340q73 0 129 -56q53 -50 53 -124q0 -76 -55 -128q-54 -52 -127 -52q-76 0 -130 53q-51 52 -51 127t51 126q54 54 130 54z" />
    <glyph glyph-name="comma" unicode="," horiz-adv-x="580" 
d="M131 -311q158 164 179 292q-8 -1 -29 -1q-76 0 -129 51q-52 53 -52 129q0 74 53.5 126.5t130.5 52.5q89 0 142.5 -62t53.5 -163q0 -271 -243 -511z" />
    <glyph glyph-name="colon" unicode=":" horiz-adv-x="563" 
d="M281 340q73 0 129 -56q53 -50 53 -124q0 -76 -55 -128q-54 -52 -127 -52q-76 0 -130 53q-51 52 -51 127t51 126q54 54 130 54zM281 1030q73 0 129 -56q53 -50 53 -124q0 -76 -55 -128q-54 -52 -127 -52q-76 0 -130 53q-51 52 -51 127t51 126q54 54 130 54z" />
    <glyph glyph-name="semicolon" unicode=";" horiz-adv-x="580" 
d="M131 -311q158 164 179 292q-8 -1 -29 -1q-76 0 -129 51q-52 53 -52 129q0 74 53.5 126.5t130.5 52.5q89 0 142.5 -62t53.5 -163q0 -271 -243 -511zM281 1030q73 0 129 -56q50 -51 53 -124q0 -77 -55 -128q-54 -52 -127 -52q-76 0 -130 53q-51 51 -51 127q0 75 51 126
q54 54 130 54z" />
    <glyph glyph-name="ampersand" unicode="&#x26;" horiz-adv-x="1433" 
d="M679 1473q167 0 265.5 -91.5t98.5 -219.5q0 -183 -174 -309q-68 -50 -157 -97q101 -147 229 -268q33 78 52 226h347v-164h-127q-53 -193 -95 -268l285 -282h-341q-85 79 -118 115q-140 -128 -379 -128q-203 0 -334 114.5t-131 311.5q0 144 76.5 237t211.5 178
q-92 151 -92 285q0 167 111.5 263.5t271.5 96.5zM699 1254q-134 0 -134 -167q0 -75 36 -154q111 52 157 98q49 49 49 115q0 46 -29.5 77t-78.5 31zM502 629q-111 -92 -111 -216q0 -86 52.5 -136.5t134.5 -50.5q124 0 199 75q-140 141 -275 328z" />
    <glyph glyph-name="quotedbl" unicode="&#x22;" horiz-adv-x="879" 
d="M100 1418h249l-34 -643h-180zM529 1418h250l-35 -643h-180z" />
    <glyph glyph-name="quotesingle" unicode="'" horiz-adv-x="449" 
d="M100 1418h249l-34 -643h-180z" />
    <glyph glyph-name="hyphen" unicode="-" horiz-adv-x="677" 
d="M100 679h477v-206h-477v206z" />
    <glyph glyph-name="plus" unicode="+" horiz-adv-x="1200" 
d="M481 812v397h238v-397h381v-206h-381v-397h-238v397h-381v206h381z" />
    <glyph glyph-name="equal" unicode="=" horiz-adv-x="1200" 
d="M100 578h1000v-206h-1000v206zM100 1044h1000v-206h-1000v206z" />
    <glyph glyph-name="dollar" unicode="$" horiz-adv-x="1354" 
d="M785 -15v-266h-216v270q-266 38 -469 231l174 219q72 -77 186 -132q114 -56 238 -56q114 0 181 49q59 46 59 108q0 65 -59 103q-47 32 -213 78q-217 62 -305 114q-188 110 -188 320q0 188 149 307q104 82 247 107v262h216v-257q245 -24 439 -186l-180 -218
q-155 134 -346 134q-106 0 -165 -46q-41 -33 -41 -85q0 -57 54 -92q46 -31 217 -79q206 -54 308 -118q183 -121 183 -334q0 -195 -170 -325q-123 -91 -299 -108z" />
    <glyph glyph-name="exclam" unicode="!" horiz-adv-x="563" 
d="M136 1418h291l-46 -944h-199zM281 340q73 0 129 -56q53 -50 53 -124q0 -76 -55 -128q-54 -52 -127 -52q-76 0 -130 53q-51 52 -51 127t51 126q54 54 130 54z" />
    <glyph glyph-name="question" unicode="?" horiz-adv-x="1012" 
d="M462 1442q198 0 324 -110q126 -112 126 -297q0 -160 -109.5 -262t-292.5 -148l-12 -151h-233l-18 277q376 61 376 278q0 80 -55 135.5t-167 55.5q-87 0 -196 -54l-105 192q176 84 362 84zM382 340q73 0 129 -56q53 -50 53 -124q0 -76 -55 -128q-54 -52 -127 -52
q-76 0 -130 53q-51 52 -51 127t51 126q54 54 130 54z" />
    <glyph glyph-name="percent" unicode="%" horiz-adv-x="1730" 
d="M709 1337q106 -104 106 -252t-105 -252t-253.5 -104t-252.5 104t-104 252t104 252.5t252.5 104.5t252.5 -105zM1239 1418h166l-914 -1418h-166zM457 1291q-86 0 -147.5 -60t-61.5 -145.5t61.5 -147t147 -61.5t148 61.5t62.5 147t-61 145.5t-149 60zM1523 583
q107 -104 107 -252t-105.5 -252t-253.5 -104t-252 104t-104 252t104 252t252 104t252 -104zM1123 477q-60 -60 -60 -146t61 -146t147 -60q88 0 149.5 60t61.5 146t-62.5 147t-148.5 61t-148 -62z" />
    <glyph glyph-name="quotedblleft" unicode="&#x201c;" horiz-adv-x="1050" 
d="M919 1330q-157 -164 -179 -292q9 1 29 1q76 0 129 -51q52 -53 52 -130q0 -73 -53 -125.5t-130 -52.5q-90 0 -143.5 62t-53.5 163q0 271 243 511zM448 1330q-157 -164 -179 -292q8 1 29 1q76 0 129 -51q53 -53 53 -130q0 -73 -54 -125.5t-131 -52.5q-89 0 -142 62t-53 163
q0 271 242 511z" />
    <glyph glyph-name="quotedblright" unicode="&#x201d;" horiz-adv-x="1053" 
d="M131 767q158 164 180 292q-9 -1 -30 -1q-76 0 -129 51q-52 53 -52 129q0 74 53.5 126.5t130.5 52.5q89 0 143 -62t54 -163q0 -271 -244 -511zM603 767q158 164 180 292q-9 -1 -30 -1q-76 0 -129 51q-52 53 -52 129q0 74 53.5 126.5t130.5 52.5q89 0 143 -62t54 -163
q0 -271 -243 -511z" />
    <glyph glyph-name="numbersign" unicode="#" horiz-adv-x="1240" 
d="M524 837l-69 -259h260l69 259h-260zM400 373l-100 -373h-206l102 372h-166l55 206h166l69 259h-166l56 207h164l100 374h206l-100 -374h260l100 374h206l-100 -374h164l-56 -207h-164l-69 -259h164l-55 -206h-164l-100 -372h-206l100 372z" />
    <glyph glyph-name="underscore" unicode="_" horiz-adv-x="1700" 
d="M100 -91h1500v-206h-1500v206z" />
    <glyph glyph-name="parenleft" unicode="(" horiz-adv-x="884" 
d="M773 -501q-293 110 -483 389.5t-190 630.5t190 630.5t483 391.5l79 -185q-175 -114 -293 -301q-151 -242 -151 -535t151 -537q118 -190 295 -304z" />
    <glyph glyph-name="parenright" unicode=")" horiz-adv-x="884" 
d="M111 1541q293 -110 483 -389.5t190 -630.5t-190 -630.5t-483 -391.5l-79 185q175 114 293 301q151 242 151 535t-151 537q-118 190 -295 304z" />
    <glyph glyph-name="asterisk" unicode="*" horiz-adv-x="1063" 
d="M420 1418h219l-33 -305l245 186l111 -193l-284 -119l285 -124l-112 -187l-245 182l33 -305h-219l37 304l-248 -181l-108 187l281 123l-282 121l109 192l248 -186z" />
    <glyph glyph-name="at" unicode="@" horiz-adv-x="2137" 
d="M1768 1153q-270 267 -692 267q-406 0 -691 -269t-285 -647t284.5 -645t686.5 -267q333 0 591 186l-87 87q-220 -160 -504 -160q-347 0 -594 234q-248 233 -248 565q0 334 248 568q248 233 594 233q375 0 605 -231q228 -231 228 -571q0 -160 -43.5 -240.5t-104.5 -80.5
q-54 0 -93.5 58t-39.5 147v622h-283v-134q-45 53 -144.5 106.5t-226.5 53.5q-219 0 -359.5 -150t-140.5 -380.5t140.5 -380.5t359.5 -150q127 0 226.5 54t144.5 106q104 -160 299 -160q157 0 271 115q127 130 127 414q0 382 -269 650zM846 749q84 94 215 94t213.5 -94.5
t82.5 -244t-82.5 -244.5t-213.5 -95t-213 95t-82 244.5t80 244.5z" />
    <glyph glyph-name="asciicircum" unicode="^" horiz-adv-x="865" 
d="M329 1418h207l299 -694h-229l-174 466l-173 -466h-229z" />
    <glyph glyph-name="slash" unicode="/" horiz-adv-x="1039" 
d="M805 1829h204l-775 -2240h-204z" />
    <glyph glyph-name="backslash" unicode="\" horiz-adv-x="1039" 
d="M234 1829l775 -2240h-204l-775 2240h204z" />
    <glyph glyph-name="grave" unicode="`" horiz-adv-x="573" 
d="M30 1418l229 115l284 -326h-224z" />
    <glyph glyph-name="less" unicode="&#x3c;" horiz-adv-x="1200" 
d="M1100 1207v-223l-736 -277l736 -279v-220l-1000 417v164z" />
    <glyph glyph-name="greater" unicode="&#x3e;" horiz-adv-x="1200" 
d="M100 209v223l736 277l-736 279v220l1000 -417v-164z" />
    <glyph glyph-name="bar" unicode="|" horiz-adv-x="487" 
d="M347 1829v-2240h-207v2240h207z" />
    <glyph glyph-name="braceleft" unicode="{" horiz-adv-x="619" 
d="M112 824q102 0 102 138v571q-1 216 157 294q74 36 218 36v-174q-44 0 -85 -21q-82 -43 -82 -171v-515q0 -147 -82 -203q-65 -44 -114 -53q49 -9 114 -53q82 -56 82 -203v-515q0 -128 82 -171q41 -21 85 -21v-174q-144 0 -218 36q-158 78 -157 294v571q0 138 -102 138h-82
v196h82z" />
    <glyph glyph-name="braceright" unicode="}" horiz-adv-x="619" 
d="M507 628q-102 0 -102 -138v-571q1 -216 -157 -294q-74 -36 -218 -36v174q44 0 85 21q82 43 82 171v515q0 147 82 203q65 44 114 53q-49 9 -114 53q-82 56 -82 203v515q0 128 -82 171q-41 21 -85 21v174q144 0 218 -36q158 -78 157 -294v-571q0 -138 102 -138h82v-196h-82
z" />
    <glyph glyph-name="asciitilde" unicode="~" horiz-adv-x="1064" 
d="M371 1447q87 0 180 -83q94 -83 146 -83q70 0 139 140l128 -69q-58 -113 -127 -172q-67 -54 -147 -54q-82 0 -173 82q-90 82 -146 82q-70 0 -144 -139l-127 72q56 115 124 171q67 53 147 53z" />
    <glyph glyph-name="bracketright" unicode="]" horiz-adv-x="548" 
d="M408 1859v-2270h-378v150h171v1970h-171v150h378z" />
    <glyph glyph-name="bracketleft" unicode="[" horiz-adv-x="548" 
d="M140 -411v2270h378v-150h-171v-1970h171v-150h-378z" />
    <glyph glyph-name="exclamdown" unicode="&#xa1;" horiz-adv-x="563" 
d="M427 -396h-291l46 944h199zM282 682q-73 0 -129 56q-53 50 -53 124q0 76 55 128q54 52 127 52q76 0 130 -53q51 -52 51 -127t-51 -126q-54 -54 -130 -54z" />
    <glyph glyph-name="questiondown" unicode="&#xbf;" horiz-adv-x="1012" 
d="M550 -420q-198 0 -324 110q-126 112 -126 297q0 160 109.5 262t292.5 148l12 151h233l18 -277q-376 -61 -376 -278q0 -80 55 -135.5t167 -55.5q87 0 196 54l105 -192q-176 -84 -362 -84zM630 682q-73 0 -129 56q-53 50 -53 124q0 76 55 128q54 52 127 52q76 0 130 -53
q51 -52 51 -127t-51 -126q-54 -54 -130 -54z" />
    <glyph glyph-name="dieresis" unicode="&#xa8;" horiz-adv-x="1028" 
d="M265 1785q66 0 117 -51q48 -46 48 -112q0 -70 -50 -117q-49 -47 -115 -47q-69 0 -118 48q-47 47 -47 116q0 68 47 114q48 49 118 49zM763 1785q66 0 117 -51q48 -46 48 -112q0 -70 -50 -117q-49 -47 -115 -47q-69 0 -118 48q-47 47 -47 116q0 68 47 114q48 49 118 49z
" />
    <glyph glyph-name="yen" unicode="&#xa5;" horiz-adv-x="1487" 
d="M386 899l-356 519h350l362 -554l363 554h352l-355 -519h149v-206h-290l-72 -105v-34h362v-206h-362v-348h-290v348h-368v206h368v34l-72 105h-296v206h155z" />
    <glyph glyph-name="cent" unicode="&#xa2;" horiz-adv-x="1290" 
d="M599 1028v281h216v-282q242 -35 375 -237l-242 -115q-73 169 -242 169q-121 0 -197 -95q-76 -96 -76 -246t76 -245q76 -96 197 -96q169 0 242 169l242 -115q-131 -199 -376 -234l1 -281h-216v281q-175 27 -298 142q-161 150 -161 379t160 380q124 117 299 145z" />
    <glyph glyph-name="section" unicode="&#xa7;" horiz-adv-x="1102" 
d="M469 846q-35 -7 -59 -25q-49 -31 -49 -89q0 -56 49 -84q26 -16 144 -49l76 -21q35 7 61 25q48 34 48 86t-48 84q-28 20 -144 51zM221 948q-74 74 -74 182q0 139 117 225q120 88 295 88q118 0 236 -42q118 -41 207 -114l-135 -172q-160 112 -313 112q-130 0 -130 -76
q0 -69 193 -116q153 -35 234 -82q146 -88 146 -248q0 -142 -116 -232q74 -74 74 -182q0 -139 -117 -225q-120 -88 -295 -88q-118 0 -236 42q-118 41 -207 114l135 172q160 -112 313 -112q130 0 130 76q0 69 -193 116q-153 35 -234 82q-146 88 -146 248q0 142 116 232z" />
    <glyph glyph-name="copyright" unicode="&#xa9;" horiz-adv-x="1335" 
d="M670 1073q234 0 399 -165q166 -166 166 -404t-165.5 -403.5t-400 -165.5t-402 167.5t-167.5 402.5q0 230 167.5 398.5t402.5 169.5zM348 823q-134 -132 -134 -318.5t135 -319.5q134 -131 322 -131t319 132t131 320t-132 319t-320 131t-321 -133zM673 837q100 0 179 -44.5
t123 -121.5l-128 -57q-54 95 -174 95q-89 0 -145.5 -57t-56.5 -148t56.5 -148.5t145.5 -57.5q120 0 174 96l128 -57q-44 -77 -123 -121t-179 -44q-149 0 -246.5 94t-97.5 237.5t97.5 238.5t246.5 95z" />
    <glyph glyph-name="registered" unicode="&#xae;" horiz-adv-x="1335" 
d="M670 1073q234 0 399 -165q166 -166 166 -404t-165.5 -403.5t-400 -165.5t-402 167.5t-167.5 402.5q0 230 167.5 398.5t402.5 169.5zM346 823q-134 -132 -134 -318.5t135 -319.5q134 -131 322 -131t319 132t131 320t-132 319t-320 131t-321 -133zM416 829h307
q81 0 134.5 -47.5t53.5 -126t-53.5 -125.5t-134.5 -47h-17q24 -5 47 -19q33 -20 94 -111l114 -170h-161l-98 153q-42 67 -73 95t-80 28v-276h-133v646zM549 703v-123h160q27 0 45 16.5t18 44t-18 45t-45 17.5h-160z" />
    <glyph glyph-name="AE" unicode="&#xc6;" horiz-adv-x="2232" 
d="M1068 1022l-336 -473h336v473zM1068 307h-504l-219 -307h-315l1038 1418v-1v1h1064v-242h-772v-321h730v-242h-730v-372h772v-241h-1064v307z" />
    <glyph glyph-name="ae" unicode="&#xe6;" horiz-adv-x="2065" 
d="M575 490q-99 0 -154.5 -49.5t-55.5 -129t55.5 -127.5t154.5 -48q105 0 189 54.5t84 121t-84 122.5t-189 56zM1237 774q-70 -70 -93 -185h535q-20 115 -90 185t-177 70q-105 0 -175 -70zM1413 1036q248 0 399 -151q153 -152 153 -382q0 -24 -7 -83h-815q19 -118 99 -188
t201 -70q156 0 261 125l219 -102q-76 -99 -205 -155q-129 -55 -275 -55q-262 0 -431 149q-15 13 -29 27q-179 -177 -464 -177q-188 0 -304 89q-115 89 -115 249q0 159 115 250q114 90 280 90q175 0 341 -114q0 264 -281 264q-152 0 -286 -48l-73 210q202 70 373 70
q270 0 417 -166q13 14 19 16q160 152 408 152z" />
    <glyph glyph-name="Eth" unicode="&#xd0;" horiz-adv-x="1653" 
d="M210 815v603h633q303 0 507 -197q203 -197 203 -512q0 -314 -204 -512q-203 -197 -506 -197h-633v602h-160v213h160zM500 602v-360h277q200 0 336 129q135 128 135 338t-136 340q-135 130 -335 130h-277v-364h311v-213h-311z" />
    <glyph glyph-name="Oslash" unicode="&#xd8;" horiz-adv-x="1716" 
d="M1476 1451l109 -110l-155 -157q171 -192 171 -477q0 -318 -212 -524q-216 -208 -536 -208q-275 0 -471 151l-155 -159l-109 110l151 155q-169 195 -169 475q0 318 214 526t539 208q272 0 466 -151zM853 1161q-195 0 -321 -128q-123 -124 -123 -326q0 -153 72 -261
l632 638q-107 77 -260 77zM1220 972l-632 -638q109 -78 265 -78q194 0 318 125.5t124 325.5q0 149 -75 265z" />
    <glyph glyph-name="oslash" unicode="&#xf8;" horiz-adv-x="1335" 
d="M667 1035q191 0 330 -90l82 82l110 -108l-76 -76q122 -140 122 -340q0 -229 -161 -378.5t-407 -149.5q-190 0 -330 92l-82 -84l-110 112l75 74q-120 138 -120 334q0 232 161 381q163 151 406 151zM667 845q-120 0 -196 -96q-77 -95 -77 -246q0 -80 20 -141l420 420
q-69 63 -167 63zM918 648l-420 -420q69 -64 169 -64q122 0 198.5 94t76.5 245q0 71 -24 145z" />
    <glyph glyph-name="thorn" unicode="&#xfe;" horiz-adv-x="1373" 
d="M481 748q-83 -95 -83 -245t83 -246q83 -95 210.5 -95t208.5 95.5t81 245.5t-81 245.5t-208.5 95.5t-210.5 -96zM140 -411v1829h277v-542q153 159 366 159t351.5 -149.5t138.5 -378.5t-139 -381q-138 -151 -351 -151t-366 159v-545h-277z" />
    <glyph glyph-name="Thorn" unicode="&#xde;" horiz-adv-x="1323" 
d="M429 1144h358q184 0 310 -124t126 -311t-126 -313t-310 -126h-358v-270h-289v1418h289v-274zM429 901v-391h295q81 0 137.5 55.5t56.5 142t-56.5 140t-137.5 53.5h-295z" />
    <glyph glyph-name="circumflex" unicode="&#x2c6;" horiz-adv-x="834" 
d="M284 1769h266l284 -326h-224l-193 141l-193 -141h-224z" />
    <glyph glyph-name="tilde" unicode="&#x2dc;" horiz-adv-x="792" 
d="M251 1772q77 0 186 -81q71 -53 108 -53q67 0 118 93l129 -105q-52 -89 -113.5 -134t-133.5 -45q-81 0 -187 79q-72 55 -107 55q-69 0 -121 -90l-130 104q56 86 116 133q61 46 135 44z" />
    <glyph glyph-name="ring" unicode="&#x2da;" horiz-adv-x="506" 
d="M252 1776q-40 0 -68.5 -30t-28.5 -69q0 -41 28.5 -69t68.5 -28q41 0 69 28t28 69q0 39 -28 69t-69 30zM252 1933q52 0 98 -20t80.5 -55.5t55 -81.5t20.5 -99q0 -54 -20.5 -101t-55 -81.5t-80.5 -54.5t-98 -20q-53 0 -99 20t-80 54.5t-53.5 81.5t-19.5 101q0 53 19.5 99
t53.5 81.5t80 55.5t99 20z" />
    <glyph glyph-name="gravecmb" unicode="&#x300;" horiz-adv-x="513" 
d="M0 1654l229 115l284 -326h-224z" />
    <glyph glyph-name="acute" unicode="&#xb4;" horiz-adv-x="425" 
d="M512 1654l-289 -211h-224l284 326z" />
    <glyph glyph-name="dieresiscmb" unicode="&#x308;" horiz-adv-x="828" 
d="M165 1785q66 0 117 -51q48 -46 48 -112q0 -70 -50 -117q-49 -47 -115 -47q-69 0 -118 48q-47 47 -47 116q0 68 47 114q48 49 118 49zM663 1785q66 0 117 -51q48 -46 48 -112q0 -70 -50 -117q-49 -47 -115 -47q-69 0 -118 48q-47 47 -47 116q0 68 47 114q48 49 118 49z
" />
    <glyph glyph-name="eth" unicode="&#xf0;" horiz-adv-x="1332" 
d="M993 1579l-193 -128q-74 66 -147 118l-143 -179q38 -26 89 -70l-167 -109l94 -142l199 132q116 -111 193 -255q-134 88 -305 88q-212 0 -362.5 -149.5t-150.5 -378.5q0 -227 161 -380q157 -149 412 -149t406 157q153 159 153 426q0 410 -312 768l167 109zM673 845
q123 0 201 -94q76 -90 76 -245q0 -153 -76 -246.5t-201 -93.5q-127 0 -203 94q-78 95 -78 246t78 243q78 96 203 96z" />
    <glyph glyph-name="germandbls" unicode="&#xdf;" horiz-adv-x="1261" 
d="M603 1442q-193 0 -328 -102t-135 -244v-1096h283v1044v-1v1q0 69 48 118q48 50 117 50q67 0 116 -49q49 -50 49 -119q0 -70 -49 -118q-49 -47 -117 -47h-74v-214h112q115 0 179 -66t64 -172q0 -102 -58 -171q-58 -67 -170 -67h-127v-189h165q208 0 345 105
q138 105 138 285q0 158 -105 260t-301 122q131 36 211 124t80 200q0 142 -130 244t-313 102z" />
    <glyph glyph-name="cedilla" unicode="&#xb8;" horiz-adv-x="440" 
d="M142 0l-142 -283l109 -52q37 41 94 41q32 0 52.5 -17.5t20.5 -42.5q0 -26 -21 -43q-25 -21 -71 -21q-58 0 -114 35l-67 -134q91 -46 181 -46q120 0 188 61q68 62 68 148q0 84 -50 130t-127 46q-45 0 -73 -12l101 190h-149z" />
    <glyph glyph-name="cedillacmb" unicode="&#x327;" horiz-adv-x="440" 
d="M142 0l-142 -283l109 -52q37 41 94 41q32 0 52.5 -17.5t20.5 -42.5q0 -26 -21 -43q-25 -21 -71 -21q-58 0 -114 35l-67 -134q91 -46 181 -46q120 0 188 61q68 62 68 148q0 84 -50 130t-127 46q-45 0 -73 -12l101 190h-149z" />
    <glyph glyph-name="breve" unicode="&#x2d8;" horiz-adv-x="733" 
d="M366 1609q83 0 134 52q27 28 38.5 67.5t11.5 87.5h183q0 -82 -25 -151.5t-79 -122.5q-103 -100 -263 -100t-263 101q-55 53 -79 122t-24 151h182q0 -48 11 -87.5t40 -68.5q51 -51 133 -51z" />
    <glyph glyph-name="brevecmb" unicode="&#x306;" horiz-adv-x="733" 
d="M366 1609q83 0 134 52q27 28 38.5 67.5t11.5 87.5h183q0 -82 -25 -151.5t-79 -122.5q-103 -100 -263 -100t-263 101q-55 53 -79 122t-24 151h182q0 -48 11 -87.5t40 -68.5q51 -51 133 -51z" />
    <glyph glyph-name="breveinvertedcmb" unicode="&#x311;" horiz-adv-x="733" 
d="M367 1649q-83 0 -134 -52q-27 -28 -38.5 -67.5t-11.5 -87.5h-183q0 82 25 151.5t79 122.5q103 100 263 100t263 -101q55 -53 79 -122t24 -151h-182q0 48 -11 87.5t-40 68.5q-51 51 -133 51z" />
    <glyph glyph-name="acutecmb" unicode="&#x301;" horiz-adv-x="513" 
d="M513 1654l-289 -211h-224l284 326z" />
    <glyph glyph-name="circumflexcmb" unicode="&#x302;" horiz-adv-x="834" 
d="M284 1769h266l284 -326h-224l-193 141l-193 -141h-224z" />
    <glyph glyph-name="caron" unicode="&#x2c7;" horiz-adv-x="834" 
d="M550 1443h-266l-284 326h224l193 -141l193 141h224z" />
    <glyph glyph-name="caron" unicode="&#x30c;" horiz-adv-x="834" 
d="M550 1443h-266l-284 326h224l193 -141l193 141h224z" />
    <glyph glyph-name="tildecmb" unicode="&#x303;" horiz-adv-x="792" 
d="M251 1772q77 0 186 -81q71 -53 108 -53q67 0 118 93l129 -105q-52 -89 -113.5 -134t-133.5 -45q-81 0 -187 79q-72 55 -107 55q-69 0 -121 -90l-130 104q56 86 116 133q61 46 135 44z" />
    <glyph glyph-name="ringcmb" unicode="&#x30a;" horiz-adv-x="506" 
d="M252 1776q-40 0 -68.5 -30t-28.5 -69q0 -41 28.5 -69t68.5 -28q41 0 69 28t28 69q0 39 -28 69t-69 30zM252 1933q52 0 98 -20t80.5 -55.5t55 -81.5t20.5 -99q0 -54 -20.5 -101t-55 -81.5t-80.5 -54.5t-98 -20q-53 0 -99 20t-80 54.5t-53.5 81.5t-19.5 101q0 53 19.5 99
t53.5 81.5t80 55.5t99 20z" />
    <glyph glyph-name="ogonek" unicode="&#x2db;" horiz-adv-x="471" 
d="M257 0h210q-306 -180 -306 -338q0 -45 24 -72t65 -27q68 0 110 88l111 -94q-95 -139 -230 -139q-116 0 -178 64q-63 62 -63 161q-1 183 257 357z" />
    <glyph glyph-name="ogonek" unicode="&#x328;" horiz-adv-x="471" 
d="M257 0h210q-306 -180 -306 -338q0 -45 24 -72t65 -27q68 0 110 88l111 -94q-95 -139 -230 -139q-116 0 -178 64q-63 62 -63 161q-1 183 257 357z" />
    <glyph glyph-name="hungarumlaut" unicode="&#x2dd;" horiz-adv-x="961" 
d="M513 1654l-289 -211h-224l284 326zM961 1654l-289 -211h-224l284 326z" />
    <glyph glyph-name="hungarumlaut" unicode="&#x30b;" horiz-adv-x="961" 
d="M513 1654l-289 -211h-224l284 326zM961 1654l-289 -211h-224l284 326z" />
    <glyph glyph-name="dblgravecmb" unicode="&#x30f;" horiz-adv-x="961" 
d="M448 1654l229 115l284 -326h-224zM0 1654l229 115l284 -326h-224z" />
    <glyph glyph-name="macroncmb" unicode="&#x304;" horiz-adv-x="729" 
d="M0 1649v-206h729v206h-729z" />
    <glyph glyph-name="firsttonechinese" unicode="&#x2c9;" horiz-adv-x="729" 
d="M0 1649v-206h729v206h-729z" />
    <glyph glyph-name="dotlessi" unicode="&#x131;" horiz-adv-x="557" 
d="M140 1009h277v-1009h-277v1009z" />
    <glyph glyph-name="Agrave" unicode="&#xc0;" horiz-adv-x="1552" 
d="M644 1418h264l614 -1418h-315l-127 307h-608l-127 -307h-315zM777 1043l-207 -494h411zM520 1731l229 115l284 -326h-224z" />
    <glyph glyph-name="Aacute" unicode="&#xc1;" horiz-adv-x="1552" 
d="M644 1418h264l614 -1418h-315l-127 307h-608l-127 -307h-315zM777 1043l-207 -494h411zM1033 1731l-289 -211h-224l284 326z" />
    <glyph glyph-name="Acircumflex" unicode="&#xc2;" horiz-adv-x="1552" 
d="M644 1418h264l614 -1418h-315l-127 307h-608l-127 -307h-315zM777 1043l-207 -494h411zM643 1846h266l284 -326h-224l-193 141l-193 -141h-224z" />
    <glyph glyph-name="Atilde" unicode="&#xc3;" horiz-adv-x="1552" 
d="M644 1418h264l614 -1418h-315l-127 307h-608l-127 -307h-315zM777 1043l-207 -494h411zM631 1845q77 0 186 -81q71 -53 108 -53q67 0 118 93l129 -105q-52 -89 -113.5 -134t-133.5 -45q-81 0 -187 79q-72 55 -107 55q-69 0 -121 -90l-130 104q56 86 116 133q61 46 135 44
z" />
    <glyph glyph-name="Adieresis" unicode="&#xc4;" horiz-adv-x="1552" 
d="M644 1418h264l614 -1418h-315l-127 307h-608l-127 -307h-315zM777 1043l-207 -494h411zM527 1847q66 0 117 -51q48 -46 48 -112q0 -70 -50 -117q-49 -47 -115 -47q-69 0 -118 48q-47 47 -47 116q0 68 47 114q48 49 118 49zM1025 1847q66 0 117 -51q48 -46 48 -112
q0 -70 -50 -117q-49 -47 -115 -47q-69 0 -118 48q-47 47 -47 116q0 68 47 114q48 49 118 49z" />
    <glyph glyph-name="Aring" unicode="&#xc5;" horiz-adv-x="1552" 
d="M644 1418h264l614 -1418h-315l-127 307h-608l-127 -307h-315zM777 1043l-207 -494h411zM775 1822q-40 0 -68.5 -30t-28.5 -69q0 -41 28.5 -69t68.5 -28q41 0 69 28t28 69q0 39 -28 69t-69 30zM775 1979q52 0 98 -20t80.5 -55.5t55 -81.5t20.5 -99q0 -54 -20.5 -101
t-55 -81.5t-80.5 -54.5t-98 -20q-53 0 -99 20t-80 54.5t-53.5 81.5t-19.5 101q0 53 19.5 99t53.5 81.5t80 55.5t99 20z" />
    <glyph glyph-name="Ccedilla" unicode="&#xc7;" horiz-adv-x="1589" 
d="M755 -20q-259 27 -441 203q-214 207 -214 524t215 526q214 209 537 209t533 -212q74 -71 122 -154l-265 -121q-27 47 -66 87q-127 130 -325 130t-325 -130q-125 -129 -125 -335t126 -336q126 -129 324 -129t325 130q39 40 66 88l267 -121q-48 -85 -122 -157
q-196 -191 -487 -206l-76 -143q28 12 73 12q77 0 127 -46t50 -130q0 -86 -68 -148q-68 -61 -188 -61q-90 0 -181 46l67 134q56 -35 114 -35q46 0 71 21q21 17 21 43q0 25 -20 42q-21 18 -53 18q-57 0 -94 -41l-109 52z" />
    <glyph glyph-name="Egrave" unicode="&#xc8;" horiz-adv-x="1324" 
d="M140 1418h1064v-242h-772v-321h730v-242h-730v-372h772v-241h-1064v1418zM416 1731l229 115l284 -326h-224z" />
    <glyph glyph-name="Eacute" unicode="&#xc9;" horiz-adv-x="1324" 
d="M140 1418h1064v-242h-772v-321h730v-242h-730v-372h772v-241h-1064v1418zM929 1731l-289 -211h-224l284 326z" />
    <glyph glyph-name="Ecircumflex" unicode="&#xca;" horiz-adv-x="1324" 
d="M140 1418h1064v-242h-772v-321h730v-242h-730v-372h772v-241h-1064v1418zM539 1846h266l284 -326h-224l-193 141l-193 -141h-224z" />
    <glyph glyph-name="Edieresis" unicode="&#xcb;" horiz-adv-x="1324" 
d="M140 1418h1064v-242h-772v-321h730v-242h-730v-372h772v-241h-1064v1418zM423 1847q66 0 117 -51q48 -46 48 -112q0 -70 -50 -117q-49 -47 -115 -47q-69 0 -118 48q-47 47 -47 116q0 68 47 114q48 49 118 49zM921 1847q66 0 117 -51q48 -46 48 -112q0 -70 -50 -117
q-49 -47 -115 -47q-69 0 -118 48q-47 47 -47 116q0 68 47 114q48 49 118 49z" />
    <glyph glyph-name="Igrave" unicode="&#xcc;" horiz-adv-x="568" 
d="M140 1418h288v-1418h-288v1418zM28 1731l229 115l284 -326h-224z" />
    <glyph glyph-name="Iacute" unicode="&#xcd;" horiz-adv-x="568" 
d="M140 1418h288v-1418h-288v1418zM541 1731l-289 -211h-224l284 326z" />
    <glyph glyph-name="Icircumflex" unicode="&#xce;" horiz-adv-x="568" 
d="M140 1418h288v-1418h-288v1418zM151 1846h266l284 -326h-224l-193 141l-193 -141h-224z" />
    <glyph glyph-name="Idieresis" unicode="&#xcf;" horiz-adv-x="568" 
d="M140 1418h288v-1418h-288v1418zM35 1847q66 0 117 -51q48 -46 48 -112q0 -70 -50 -117q-49 -47 -115 -47q-69 0 -118 48q-47 47 -47 116q0 68 47 114q48 49 118 49zM533 1847q66 0 117 -51q48 -46 48 -112q0 -70 -50 -117q-49 -47 -115 -47q-69 0 -118 48q-47 47 -47 116
q0 68 47 114q48 49 118 49z" />
    <glyph glyph-name="Ntilde" unicode="&#xd1;" horiz-adv-x="1560" 
d="M635 1845q77 0 186 -81q71 -53 108 -53q67 0 118 93l129 -105q-52 -89 -113.5 -134t-133.5 -45q-81 0 -187 79q-72 55 -107 55q-69 0 -121 -90l-130 104q56 86 116 133q61 46 135 44zM140 1418h301l686 -977v977h293v-1418h-305v0l-686 978v-978h-289v1418z" />
    <glyph glyph-name="Ograve" unicode="&#xd2;" horiz-adv-x="1700" 
d="M595 1755l229 115l284 -326h-224zM1385 1230q215 -206 215 -523t-212.5 -524.5t-535.5 -207.5t-537.5 207.5t-214.5 524.5t214.5 526t537.5 209t533 -212zM525 1042q-125 -129 -125 -335t126 -335.5t324 -129.5t324.5 129.5t126.5 335.5t-126.5 335.5t-324.5 129.5
t-325 -130z" />
    <glyph glyph-name="Oacute" unicode="&#xd3;" horiz-adv-x="1700" 
d="M1108 1755l-289 -211h-224l284 326zM1385 1230q215 -206 215 -523t-212.5 -524.5t-535.5 -207.5t-537.5 207.5t-214.5 524.5t214.5 526t537.5 209t533 -212zM525 1042q-125 -129 -125 -335t126 -335.5t324 -129.5t324.5 129.5t126.5 335.5t-126.5 335.5t-324.5 129.5
t-325 -130z" />
    <glyph glyph-name="Ocircumflex" unicode="&#xd4;" horiz-adv-x="1718" 
d="M718 1870h266l284 -326h-224l-193 141l-193 -141h-224zM1385 1230q215 -206 215 -523t-212.5 -524.5t-535.5 -207.5t-537.5 207.5t-214.5 524.5t214.5 526t537.5 209t533 -212zM525 1042q-125 -129 -125 -335t126 -335.5t324 -129.5t324.5 129.5t126.5 335.5
t-126.5 335.5t-324.5 129.5t-325 -130z" />
    <glyph glyph-name="Otilde" unicode="&#xd5;" horiz-adv-x="1718" 
d="M706 1869q77 0 186 -81q71 -53 108 -53q67 0 118 93l129 -105q-52 -89 -113.5 -134t-133.5 -45q-81 0 -187 79q-72 55 -107 55q-69 0 -121 -90l-130 104q56 86 116 133q61 46 135 44zM1385 1230q215 -206 215 -523t-212.5 -524.5t-535.5 -207.5t-537.5 207.5
t-214.5 524.5t214.5 526t537.5 209t533 -212zM525 1042q-125 -129 -125 -335t126 -335.5t324 -129.5t324.5 129.5t126.5 335.5t-126.5 335.5t-324.5 129.5t-325 -130z" />
    <glyph glyph-name="Odieresis" unicode="&#xd6;" horiz-adv-x="1718" 
d="M602 1871q66 0 117 -51q48 -46 48 -112q0 -70 -50 -117q-49 -47 -115 -47q-69 0 -118 48q-47 47 -47 116q0 68 47 114q48 49 118 49zM1100 1871q66 0 117 -51q48 -46 48 -112q0 -70 -50 -117q-49 -47 -115 -47q-69 0 -118 48q-47 47 -47 116q0 68 47 114q48 49 118 49z
M1385 1230q215 -206 215 -523t-212.5 -524.5t-535.5 -207.5t-537.5 207.5t-214.5 524.5t214.5 526t537.5 209t533 -212zM525 1042q-125 -129 -125 -335t126 -335.5t324 -129.5t324.5 129.5t126.5 335.5t-126.5 335.5t-324.5 129.5t-325 -130z" />
    <glyph glyph-name="Ugrave" unicode="&#xd9;" horiz-adv-x="1536" 
d="M130 1418h291v-843q0 -147 91 -240t255.5 -93t256 93t91.5 240v843h291v-820q0 -292 -166 -457.5t-474 -165.5t-472 165.5t-164 457.5v820zM512 1731l229 115l284 -326h-224z" />
    <glyph glyph-name="Uacute" unicode="&#xda;" horiz-adv-x="1536" 
d="M130 1418h291v-843q0 -147 91 -240t255.5 -93t256 93t91.5 240v843h291v-820q0 -292 -166 -457.5t-474 -165.5t-472 165.5t-164 457.5v820zM1025 1731l-289 -211h-224l284 326z" />
    <glyph glyph-name="Ucircumflex" unicode="&#xdb;" horiz-adv-x="1536" 
d="M130 1418h291v-843q0 -147 91 -240t255.5 -93t256 93t91.5 240v843h291v-820q0 -292 -166 -457.5t-474 -165.5t-472 165.5t-164 457.5v820zM635 1846h266l284 -326h-224l-193 141l-193 -141h-224z" />
    <glyph glyph-name="Udieresis" unicode="&#xdc;" horiz-adv-x="1536" 
d="M130 1418h291v-843q0 -147 91 -240t255.5 -93t256 93t91.5 240v843h291v-820q0 -292 -166 -457.5t-474 -165.5t-472 165.5t-164 457.5v820zM519 1847q66 0 117 -51q48 -46 48 -112q0 -70 -50 -117q-49 -47 -115 -47q-69 0 -118 48q-47 47 -47 116q0 68 47 114
q48 49 118 49zM1017 1847q66 0 117 -51q48 -46 48 -112q0 -70 -50 -117q-49 -47 -115 -47q-69 0 -118 48q-47 47 -47 116q0 68 47 114q48 49 118 49z" />
    <glyph glyph-name="Yacute" unicode="&#xdd;" horiz-adv-x="1487" 
d="M30 1418h350l362 -554l363 554h352l-568 -830v-588h-290v588zM1001 1731l-289 -211h-224l284 326z" />
    <glyph glyph-name="agrave" unicode="&#xe0;" horiz-adv-x="1373" 
d="M410 1347l229 115l284 -326h-224zM475 748q-82 -95 -82 -245t81 -244q81 -93 208.5 -93t208.5 93.5t81 243.5t-81 245.5t-208.5 95.5t-207.5 -96zM1233 1009v-1009h-277v134q-153 -159 -366 -159t-351.5 149.5t-138.5 378.5t139 381q138 151 351 151t366 -159v133h277z
" />
    <glyph glyph-name="aacute" unicode="&#xe1;" horiz-adv-x="1373" 
d="M953 1347l-289 -211h-224l284 326zM475 748q-82 -95 -82 -245t81 -244q81 -93 208.5 -93t208.5 93.5t81 243.5t-81 245.5t-208.5 95.5t-207.5 -96zM1233 1009v-1009h-277v134q-153 -159 -366 -159t-351.5 149.5t-138.5 378.5t139 381q138 151 351 151t366 -159v133h277z
" />
    <glyph glyph-name="acircumflex" unicode="&#xe2;" horiz-adv-x="1243" 
d="M545 1462h266l284 -326h-224l-193 141l-193 -141h-224zM475 748q-82 -95 -82 -245t81 -244q81 -93 208.5 -93t208.5 93.5t81 243.5t-81 245.5t-208.5 95.5t-207.5 -96zM1233 1009v-1009h-277v134q-153 -159 -366 -159t-351.5 149.5t-138.5 378.5t139 381q138 151 351 151
t366 -159v133h277z" />
    <glyph glyph-name="atilde" unicode="&#xe3;" horiz-adv-x="1243" 
d="M545 1461q77 0 186 -81q71 -53 108 -53q67 0 118 93l129 -105q-52 -89 -113.5 -134t-133.5 -45q-81 0 -187 79q-72 55 -107 55q-69 0 -121 -90l-130 104q56 86 116 133q61 46 135 44zM475 748q-82 -95 -82 -245t81 -244q81 -93 208.5 -93t208.5 93.5t81 243.5t-81 245.5
t-208.5 95.5t-207.5 -96zM1233 1009v-1009h-277v134q-153 -159 -366 -159t-351.5 149.5t-138.5 378.5t139 381q138 151 351 151t366 -159v133h277z" />
    <glyph glyph-name="adieresis" unicode="&#xe4;" horiz-adv-x="1243" 
d="M435 1463q66 0 117 -51q48 -46 48 -112q0 -70 -50 -117q-49 -47 -115 -47q-69 0 -118 48q-47 47 -47 116q0 68 47 114q48 49 118 49zM933 1463q66 0 117 -51q48 -46 48 -112q0 -70 -50 -117q-49 -47 -115 -47q-69 0 -118 48q-47 47 -47 116q0 68 47 114q48 49 118 49z
M475 748q-82 -95 -82 -245t81 -244q81 -93 208.5 -93t208.5 93.5t81 243.5t-81 245.5t-208.5 95.5t-207.5 -96zM1233 1009v-1009h-277v134q-153 -159 -366 -159t-351.5 149.5t-138.5 378.5t139 381q138 151 351 151t366 -159v133h277z" />
    <glyph glyph-name="aring" unicode="&#xe5;" horiz-adv-x="1243" 
d="M677 1492q-40 0 -68.5 -30t-28.5 -69q0 -41 28.5 -69t68.5 -28q41 0 69 28t28 69q0 39 -28 69t-69 30zM677 1649q52 0 98 -20t80.5 -55.5t55 -81.5t20.5 -99q0 -54 -20.5 -101t-55 -81.5t-80.5 -54.5t-98 -20q-53 0 -99 20t-80 54.5t-53.5 81.5t-19.5 101q0 53 19.5 99
t53.5 81.5t80 55.5t99 20zM475 748q-82 -95 -82 -245t81 -244q81 -93 208.5 -93t208.5 93.5t81 243.5t-81 245.5t-208.5 95.5t-207.5 -96zM1233 1009v-1009h-277v134q-153 -159 -366 -159t-351.5 149.5t-138.5 378.5t139 381q138 151 351 151t366 -159v133h277z" />
    <glyph glyph-name="ccedilla" unicode="&#xe7;" horiz-adv-x="1230" 
d="M551 -16q-169 27 -290 140q-161 150 -161 379t160 380q161 152 406 152q322 0 484 -245l-242 -115q-73 169 -242 169q-121 0 -197 -95q-76 -96 -76 -246t76 -245q76 -96 197 -96q169 0 242 169l242 -115q-152 -230 -456 -241l-72 -136q28 12 73 12q77 0 127 -46t50 -130
q0 -86 -68 -148q-68 -61 -188 -61q-90 0 -181 46l67 134q56 -35 114 -35q46 0 71 21q21 17 21 43q0 25 -21 43q-20 17 -52 17q-57 0 -94 -41l-109 52z" />
    <glyph glyph-name="egrave" unicode="&#xe8;" horiz-adv-x="1321" 
d="M1068 885q153 -152 153 -382q0 -24 -7 -83h-815q19 -118 99 -188t201 -70q156 0 261 125l219 -102q-76 -99 -205 -154.5t-275 -55.5q-262 0 -430.5 149t-168.5 379t161 381q160 152 408 152t399 -151zM492 774q-70 -70 -93 -185h535q-20 115 -90 185t-177 70
q-105 0 -175 -70zM404 1349l229 115l284 -326h-224z" />
    <glyph glyph-name="eacute" unicode="&#xe9;" horiz-adv-x="1321" 
d="M1068 885q153 -152 153 -382q0 -24 -7 -83h-815q19 -118 99 -188t201 -70q156 0 261 125l219 -102q-76 -99 -205 -154.5t-275 -55.5q-262 0 -430.5 149t-168.5 379t161 381q160 152 408 152t399 -151zM492 774q-70 -70 -93 -185h535q-20 115 -90 185t-177 70
q-105 0 -175 -70zM917 1349l-289 -211h-224l284 326z" />
    <glyph glyph-name="ecircumflex" unicode="&#xea;" horiz-adv-x="1321" 
d="M1068 885q153 -152 153 -382q0 -24 -7 -83h-815q19 -118 99 -188t201 -70q156 0 261 125l219 -102q-76 -99 -205 -154.5t-275 -55.5q-262 0 -430.5 149t-168.5 379t161 381q160 152 408 152t399 -151zM492 774q-70 -70 -93 -185h535q-20 115 -90 185t-177 70
q-105 0 -175 -70zM527 1464h266l284 -326h-224l-193 141l-193 -141h-224z" />
    <glyph glyph-name="edieresis" unicode="&#xeb;" horiz-adv-x="1321" 
d="M1068 885q153 -152 153 -382q0 -24 -7 -83h-815q19 -118 99 -188t201 -70q156 0 261 125l219 -102q-76 -99 -205 -154.5t-275 -55.5q-262 0 -430.5 149t-168.5 379t161 381q160 152 408 152t399 -151zM492 774q-70 -70 -93 -185h535q-20 115 -90 185t-177 70
q-105 0 -175 -70zM411 1465q66 0 117 -51q48 -46 48 -112q0 -70 -50 -117q-49 -47 -115 -47q-69 0 -118 48q-47 47 -47 116q0 68 47 114q48 49 118 49zM909 1465q66 0 117 -51q48 -46 48 -112q0 -70 -50 -117q-49 -47 -115 -47q-69 0 -118 48q-47 47 -47 116q0 68 47 114
q48 49 118 49z" />
    <glyph glyph-name="igrave" unicode="&#xec;" horiz-adv-x="557" 
d="M140 1009h277v-1009h-277v1009zM22 1322l229 115l284 -326h-224z" />
    <glyph glyph-name="iacute" unicode="&#xed;" horiz-adv-x="557" 
d="M140 1009h277v-1009h-277v1009zM535 1322l-289 -211h-224l284 326z" />
    <glyph glyph-name="icircumflex" unicode="&#xee;" horiz-adv-x="557" 
d="M140 1009h277v-1009h-277v1009zM145 1437h266l284 -326h-224l-193 141l-193 -141h-224z" />
    <glyph glyph-name="idieresis" unicode="&#xef;" horiz-adv-x="557" 
d="M140 1009h277v-1009h-277v1009zM29 1438q66 0 117 -51q48 -46 48 -112q0 -70 -50 -117q-49 -47 -115 -47q-69 0 -118 48q-47 47 -47 116q0 68 47 114q48 49 118 49zM527 1438q66 0 117 -51q48 -46 48 -112q0 -70 -50 -117q-49 -47 -115 -47q-69 0 -118 48q-47 47 -47 116
q0 68 47 114q48 49 118 49z" />
    <glyph glyph-name="ntilde" unicode="&#xf1;" 
d="M767 1035q169 0 279 -110t110 -288v-637h-277v637q0 89 -59 148t-145 59q-108 -3 -183 -81t-75 -177v-586h-277v1009h277v-133q140 159 350 159zM503 1462q77 0 186 -81q71 -53 108 -53q67 0 118 93l129 -105q-52 -89 -113.5 -134t-133.5 -45q-81 0 -187 79
q-72 55 -107 55q-69 0 -121 -90l-130 104q56 86 116 133q61 46 135 44z" />
    <glyph glyph-name="ograve" unicode="&#xf2;" horiz-adv-x="1334" 
d="M1075 882q159 -149 159 -379q0 -228 -161 -379q-161 -149 -406 -149t-406 149.5t-161 378.5t161 380.5t406 151.5t408 -153zM470 748q-77 -95 -77 -245t77 -246q76 -95 197 -95t197.5 95.5t76.5 245.5t-76.5 245.5t-197.5 95.5t-197 -96zM411 1348l229 115l284 -326h-224
z" />
    <glyph glyph-name="oacute" unicode="&#xf3;" horiz-adv-x="1334" 
d="M1075 882q159 -149 159 -379q0 -228 -161 -379q-161 -149 -406 -149t-406 149.5t-161 378.5t161 380.5t406 151.5t408 -153zM470 748q-77 -95 -77 -245t77 -246q76 -95 197 -95t197.5 95.5t76.5 245.5t-76.5 245.5t-197.5 95.5t-197 -96zM924 1348l-289 -211h-224
l284 326z" />
    <glyph glyph-name="ocircumflex" unicode="&#xf4;" horiz-adv-x="1334" 
d="M1075 882q159 -149 159 -379q0 -228 -161 -379q-161 -149 -406 -149t-406 149.5t-161 378.5t161 380.5t406 151.5t408 -153zM470 748q-77 -95 -77 -245t77 -246q76 -95 197 -95t197.5 95.5t76.5 245.5t-76.5 245.5t-197.5 95.5t-197 -96zM534 1463h266l284 -326h-224
l-193 141l-193 -141h-224z" />
    <glyph glyph-name="otilde" unicode="&#xf5;" horiz-adv-x="1334" 
d="M1075 882q159 -149 159 -379q0 -228 -161 -379q-161 -149 -406 -149t-406 149.5t-161 378.5t161 380.5t406 151.5t408 -153zM470 748q-77 -95 -77 -245t77 -246q76 -95 197 -95t197.5 95.5t76.5 245.5t-76.5 245.5t-197.5 95.5t-197 -96zM522 1462q77 0 186 -81
q71 -53 108 -53q67 0 118 93l129 -105q-52 -89 -113.5 -134t-133.5 -45q-81 0 -187 79q-72 55 -107 55q-69 0 -121 -90l-130 104q56 86 116 133q61 46 135 44z" />
    <glyph glyph-name="odieresis" unicode="&#xf6;" horiz-adv-x="1334" 
d="M1075 882q159 -149 159 -379q0 -228 -161 -379q-161 -149 -406 -149t-406 149.5t-161 378.5t161 380.5t406 151.5t408 -153zM470 748q-77 -95 -77 -245t77 -246q76 -95 197 -95t197.5 95.5t76.5 245.5t-76.5 245.5t-197.5 95.5t-197 -96zM418 1464q66 0 117 -51
q48 -46 48 -112q0 -70 -50 -117q-49 -47 -115 -47q-69 0 -118 48q-47 47 -47 116q0 68 47 114q48 49 118 49zM916 1464q66 0 117 -51q48 -46 48 -112q0 -70 -50 -117q-49 -47 -115 -47q-69 0 -118 48q-47 47 -47 116q0 68 47 114q48 49 118 49z" />
    <glyph glyph-name="ugrave" unicode="&#xf9;" 
d="M130 1009h277v-640q0 -89 59 -148t145 -59q108 4 183 82t75 176v589h277v-1009h-277v134q-141 -159 -351 -159q-168 0 -278 109.5t-110 288.5v636zM382 1322l229 115l284 -326h-224z" />
    <glyph glyph-name="uacute" unicode="&#xfa;" 
d="M130 1009h277v-640q0 -89 59 -148t145 -59q108 4 183 82t75 176v589h277v-1009h-277v134q-141 -159 -351 -159q-168 0 -278 109.5t-110 288.5v636zM895 1322l-289 -211h-224l284 326z" />
    <glyph glyph-name="ucircumflex" unicode="&#xfb;" 
d="M130 1009h277v-640q0 -89 59 -148t145 -59q108 4 183 82t75 176v589h277v-1009h-277v134q-141 -159 -351 -159q-168 0 -278 109.5t-110 288.5v636zM505 1437h266l284 -326h-224l-193 141l-193 -141h-224z" />
    <glyph glyph-name="udieresis" unicode="&#xfc;" 
d="M130 1009h277v-640q0 -89 59 -148t145 -59q108 4 183 82t75 176v589h277v-1009h-277v134q-141 -159 -351 -159q-168 0 -278 109.5t-110 288.5v636zM389 1438q66 0 117 -51q48 -46 48 -112q0 -70 -50 -117q-49 -47 -115 -47q-69 0 -118 48q-47 47 -47 116q0 68 47 114
q48 49 118 49zM887 1438q66 0 117 -51q48 -46 48 -112q0 -70 -50 -117q-49 -47 -115 -47q-69 0 -118 48q-47 47 -47 116q0 68 47 114q48 49 118 49z" />
    <glyph glyph-name="yacute" unicode="&#xfd;" horiz-adv-x="1314" 
d="M158 1009h277v-640q0 -89 59 -148t145 -59q108 4 183 82t75 176v589h277v-898q0 -550 -608 -550q-242 0 -436 102l79 222q171 -89 347 -89t258 76q83 77 83 262q-140 -159 -350 -159q-169 0 -279 109.5t-110 288.5v636zM909 1322l-289 -211h-224l284 326z" />
    <glyph glyph-name="ydieresis" unicode="&#xff;" horiz-adv-x="1314" 
d="M158 1009h277v-640q0 -89 59 -148t145 -59q108 4 183 82t75 176v589h277v-898q0 -550 -608 -550q-242 0 -436 102l79 222q171 -89 347 -89t258 76q83 77 83 262q-140 -159 -350 -159q-169 0 -279 109.5t-110 288.5v636zM403 1438q66 0 117 -51q48 -46 48 -112
q0 -70 -50 -117q-49 -47 -115 -47q-69 0 -118 48q-47 47 -47 116q0 68 47 114q48 49 118 49zM901 1438q66 0 117 -51q48 -46 48 -112q0 -70 -50 -117q-49 -47 -115 -47q-69 0 -118 48q-47 47 -47 116q0 68 47 114q48 49 118 49z" />
    <glyph glyph-name="Amacron" unicode="&#x100;" horiz-adv-x="1552" 
d="M644 1418h264l614 -1418h-315l-127 307h-608l-127 -307h-315zM777 1043l-207 -494h411zM412 1726v-206h729v206h-729z" />
    <glyph glyph-name="amacron" unicode="&#x101;" horiz-adv-x="1363" 
d="M353 1342v-206h729v206h-729zM475 748q-82 -95 -82 -245t81 -244q81 -93 208.5 -93t208.5 93.5t81 243.5t-81 245.5t-208.5 95.5t-207.5 -96zM1233 1009v-1009h-277v134q-153 -159 -366 -159t-351.5 149.5t-138.5 378.5t139 381q138 151 351 151t366 -159v133h277z" />
    <glyph glyph-name="Abreve" unicode="&#x102;" horiz-adv-x="1552" 
d="M644 1418h264l614 -1418h-315l-127 307h-608l-127 -307h-315zM777 1043l-207 -494h411zM776 1687q83 0 134 52q27 28 38.5 67.5t11.5 87.5h183q0 -82 -25 -151.5t-79 -122.5q-103 -100 -263 -100t-263 101q-55 53 -79 122t-24 151h182q0 -48 11 -87.5t40 -68.5
q51 -51 133 -51z" />
    <glyph glyph-name="abreve" unicode="&#x103;" horiz-adv-x="1363" 
d="M675 1303q83 0 134 52q27 28 38.5 67.5t11.5 87.5h183q0 -82 -25 -151.5t-79 -122.5q-103 -100 -263 -100t-263 101q-55 53 -79 122t-24 151h182q0 -48 11 -87.5t40 -68.5q51 -51 133 -51zM475 748q-82 -95 -82 -245t81 -244q81 -93 208.5 -93t208.5 93.5t81 243.5
t-81 245.5t-208.5 95.5t-207.5 -96zM1233 1009v-1009h-277v134q-153 -159 -366 -159t-351.5 149.5t-138.5 378.5t139 381q138 151 351 151t366 -159v133h277z" />
    <glyph glyph-name="Aogonek" unicode="&#x104;" horiz-adv-x="1552" 
d="M777 1043l-207 -494h411zM1313 0h-106l-127 307h-608l-127 -307h-315l614 1418h264l614 -1418q-296 -177 -296 -332q0 -45 24 -72t65 -27q68 0 110 88l111 -94q-95 -139 -230 -139q-116 0 -178 64q-63 62 -63 161q-1 180 248 351z" />
    <glyph glyph-name="aogonek" unicode="&#x105;" horiz-adv-x="1363" 
d="M475 748q-82 -95 -82 -245t81 -244q81 -93 208.5 -93t208.5 93.5t81 243.5t-81 245.5t-208.5 95.5t-207.5 -96zM1019 0h-63v134q-153 -159 -366 -159t-352 150q-138 149 -138 378t139 381q138 151 351 151t366 -159v133h277v-1009q-304 -178 -310 -338q0 -45 24 -72
t65 -27q68 0 110 88l111 -94q-95 -139 -230 -139q-116 0 -178 64q-63 62 -63 161q-1 183 257 357z" />
    <glyph glyph-name="Cacute" unicode="&#x106;" horiz-adv-x="1604" 
d="M858 1442q220 0 394.5 -97.5t271.5 -269.5l-281 -125q-120 210 -385 210q-197 0 -321.5 -126t-124.5 -327t124.5 -327t321.5 -126q265 0 385 210l281 -126q-97 -168 -271.5 -265.5t-394.5 -97.5q-328 0 -543 207t-215 524.5t215 526.5t543 209zM1069 1755l-289 -211h-224
l284 326z" />
    <glyph glyph-name="cacute" unicode="&#x107;" horiz-adv-x="1230" 
d="M666 1035q322 0 484 -245l-242 -115q-73 169 -242 169q-121 0 -197 -95.5t-76 -245.5t76 -245.5t197 -95.5q169 0 242 169l242 -115q-159 -241 -484 -241q-245 0 -405.5 149.5t-160.5 378.5t160.5 380.5t405.5 151.5zM882 1348l-289 -211h-224l284 326z" />
    <glyph glyph-name="Ccircumflex" unicode="&#x108;" horiz-adv-x="1604" 
d="M858 1442q220 0 394.5 -97.5t271.5 -269.5l-281 -125q-120 210 -385 210q-197 0 -321.5 -126t-124.5 -327t124.5 -327t321.5 -126q265 0 385 210l281 -126q-97 -168 -271.5 -265.5t-394.5 -97.5q-328 0 -543 207t-215 524.5t215 526.5t543 209zM712 1870h266l284 -326
h-224l-193 141l-193 -141h-224z" />
    <glyph glyph-name="ccircumflex" unicode="&#x109;" horiz-adv-x="1230" 
d="M666 1035q322 0 484 -245l-242 -115q-73 169 -242 169q-121 0 -197 -95.5t-76 -245.5t76 -245.5t197 -95.5q169 0 242 169l242 -115q-159 -241 -484 -241q-245 0 -405.5 149.5t-160.5 378.5t160.5 380.5t405.5 151.5zM504 1463h266l284 -326h-224l-193 141l-193 -141
h-224z" />
    <glyph glyph-name="Ccaron" unicode="&#x10c;" horiz-adv-x="1604" 
d="M858 1442q220 0 394.5 -97.5t271.5 -269.5l-281 -125q-120 210 -385 210q-197 0 -321.5 -126t-124.5 -327t124.5 -327t321.5 -126q265 0 385 210l281 -126q-97 -168 -271.5 -265.5t-394.5 -97.5q-328 0 -543 207t-215 524.5t215 526.5t543 209zM978 1544h-266l-284 326
h224l193 -141l193 141h224z" />
    <glyph glyph-name="ccaron" unicode="&#x10d;" horiz-adv-x="1230" 
d="M666 1035q322 0 484 -245l-242 -115q-73 169 -242 169q-121 0 -197 -95.5t-76 -245.5t76 -245.5t197 -95.5q169 0 242 169l242 -115q-159 -241 -484 -241q-245 0 -405.5 149.5t-160.5 378.5t160.5 380.5t405.5 151.5zM773 1137h-266l-284 326h224l193 -141l193 141h224z
" />
    <glyph glyph-name="Dcaron" unicode="&#x10e;" horiz-adv-x="1583" 
d="M140 1418h633q303 0 506.5 -197t203.5 -511.5t-203.5 -512t-506.5 -197.5h-633v1418zM430 1179v-937h277q200 0 335.5 128.5t135.5 338.5t-135.5 340t-335.5 130h-277zM900 1520h-266l-284 326h224l193 -141l193 141h224z" />
    <glyph glyph-name="dcaron" unicode="&#x10f;" horiz-adv-x="1373" 
d="M475 748q-82 -95 -82 -245t81 -244q81 -93 208.5 -93t208.5 93.5t81 243.5t-81 245.5t-208.5 95.5t-207.5 -96zM1233 1418v-1418h-277v134q-153 -159 -366 -159t-351.5 149.5t-138.5 378.5t139 381q138 151 351 151t366 -159v542h277zM799 1520h-266l-284 326h224
l193 -141l193 141h224z" />
    <glyph glyph-name="Emacron" unicode="&#x112;" horiz-adv-x="1324" 
d="M140 1418h1064v-242h-772v-321h730v-242h-730v-372h772v-241h-1064v1418zM308 1726v-206h729v206h-729z" />
    <glyph glyph-name="emacron" unicode="&#x113;" horiz-adv-x="1321" 
d="M1068 885q153 -152 153 -382q0 -24 -7 -83h-815q19 -118 99 -188t201 -70q156 0 261 125l219 -102q-76 -99 -205 -154.5t-275 -55.5q-262 0 -430.5 149t-168.5 379t161 381q160 152 408 152t399 -151zM492 774q-70 -70 -93 -185h535q-20 115 -90 185t-177 70
q-105 0 -175 -70zM296 1344v-206h729v206h-729z" />
    <glyph glyph-name="Ebreve" unicode="&#x114;" horiz-adv-x="1324" 
d="M140 1418h1064v-242h-772v-321h730v-242h-730v-372h772v-241h-1064v1418zM697 1687q83 0 134 52q27 28 38.5 67.5t11.5 87.5h183q0 -82 -25 -151.5t-79 -122.5q-103 -100 -263 -100t-263 101q-55 53 -79 122t-24 151h182q0 -48 11 -87.5t40 -68.5q51 -51 133 -51z" />
    <glyph glyph-name="ebreve" unicode="&#x115;" horiz-adv-x="1321" 
d="M1068 885q153 -152 153 -382q0 -24 -7 -83h-815q19 -118 99 -188t201 -70q156 0 261 125l219 -102q-76 -99 -205 -154.5t-275 -55.5q-262 0 -430.5 149t-168.5 379t161 381q160 152 408 152t399 -151zM492 774q-70 -70 -93 -185h535q-20 115 -90 185t-177 70
q-105 0 -175 -70zM660 1305q83 0 134 52q27 28 38.5 67.5t11.5 87.5h183q0 -82 -25 -151.5t-79 -122.5q-103 -100 -263 -100t-263 101q-55 53 -79 122t-24 151h182q0 -48 11 -87.5t40 -68.5q51 -51 133 -51z" />
    <glyph glyph-name="Eogonek" unicode="&#x118;" horiz-adv-x="1324" 
d="M994 0h-854v1418h1064v-242h-772v-321h730v-242h-730v-372h772v-241q-301 -178 -301 -335q0 -45 24 -72t65 -27q68 0 110 88l111 -94q-95 -139 -230 -139q-116 0 -178 64q-63 62 -63 161q-1 181 252 354z" />
    <glyph glyph-name="eogonek" unicode="&#x119;" horiz-adv-x="1321" 
d="M492 774q-70 -70 -93 -185h535q-20 115 -90 185t-177 70q-105 0 -175 -70zM694 -25q-259 1 -426 149q-168 149 -168 379t161 381q160 152 408 152t399 -151q153 -152 153 -382q0 -24 -7 -83h-815q19 -118 99 -188t201 -70q156 0 261 125l219 -102q-76 -99 -217 -160
q-268 -167 -268 -315q0 -45 24 -72t65 -27q68 0 110 88l111 -94q-95 -139 -230 -139q-116 0 -178 64q-63 62 -63 161q-1 145 161 284z" />
    <glyph glyph-name="Ecaron" unicode="&#x11a;" horiz-adv-x="1324" 
d="M140 1418h1064v-242h-772v-321h730v-242h-730v-372h772v-241h-1064v1418zM805 1520h-266l-284 326h224l193 -141l193 141h224z" />
    <glyph glyph-name="ecaron" unicode="&#x11b;" horiz-adv-x="1321" 
d="M1068 885q153 -152 153 -382q0 -24 -7 -83h-815q19 -118 99 -188t201 -70q156 0 261 125l219 -102q-76 -99 -205 -154.5t-275 -55.5q-262 0 -430.5 149t-168.5 379t161 381q160 152 408 152t399 -151zM492 774q-70 -70 -93 -185h535q-20 115 -90 185t-177 70
q-105 0 -175 -70zM799 1138h-266l-284 326h224l193 -141l193 141h224z" />
    <glyph glyph-name="Gcircumflex" unicode="&#x11c;" horiz-adv-x="1662" 
d="M710 1869h266l284 -326h-224l-193 141l-193 -141h-224zM845 1441q200 0 358 -86t249 -237l-273 -116q-136 166 -334 166q-194 0 -317 -129t-123 -332q0 -201 123 -331t317 -130q166 0 284 90t146 248h-462v246h739q10 -58 10 -122q0 -321 -199.5 -527t-517.5 -206
q-322 0 -533.5 207.5t-211.5 524.5t211.5 525.5t533.5 208.5z" />
    <glyph glyph-name="gcircumflex" unicode="&#x11d;" horiz-adv-x="1373" 
d="M593 1035q213 0 363 -159v133h277v-898q0 -550 -608 -550q-242 0 -433 102l80 222q171 -89 347 -89t256 76q81 77 81 262q-150 -159 -363 -159t-353 149q-140 150 -140 379t140 380.5t353 151.5zM475 748q-82 -95 -82 -245t81 -244q81 -93 208.5 -93t208.5 93.5t81 243.5
t-81 245.5t-208.5 95.5t-207.5 -96zM533 1463h266l284 -326h-224l-193 141l-193 -141h-224z" />
    <glyph glyph-name="Gbreve" unicode="&#x11e;" horiz-adv-x="1662" 
d="M843 1710q83 0 134 52q27 28 38.5 67.5t11.5 87.5h183q0 -82 -25 -151.5t-79 -122.5q-103 -100 -263 -100t-263 101q-55 53 -79 122t-24 151h182q0 -48 11 -87.5t40 -68.5q51 -51 133 -51zM845 1441q200 0 358 -86t249 -237l-273 -116q-136 166 -334 166
q-194 0 -317 -129t-123 -332q0 -201 123 -331t317 -130q166 0 284 90t146 248h-462v246h739q10 -58 10 -122q0 -321 -199.5 -527t-517.5 -206q-322 0 -533.5 207.5t-211.5 524.5t211.5 525.5t533.5 208.5z" />
    <glyph glyph-name="gbreve" unicode="&#x11f;" horiz-adv-x="1373" 
d="M593 1035q213 0 363 -159v133h277v-898q0 -550 -608 -550q-242 0 -433 102l80 222q171 -89 347 -89t256 76q81 77 81 262q-150 -159 -363 -159t-353 149q-140 150 -140 379t140 380.5t353 151.5zM475 748q-82 -95 -82 -245t81 -244q81 -93 208.5 -93t208.5 93.5t81 243.5
t-81 245.5t-208.5 95.5t-207.5 -96zM666 1304q83 0 134 52q27 28 38.5 67.5t11.5 87.5h183q0 -82 -25 -151.5t-79 -122.5q-103 -100 -263 -100t-263 101q-55 53 -79 122t-24 151h182q0 -48 11 -87.5t40 -68.5q51 -51 133 -51z" />
    <glyph glyph-name="Gcedilla" unicode="&#x122;" horiz-adv-x="1662" 
d="M753 -21q-261 26 -442 204q-211 207 -211 524t212 526q211 208 533 208q200 0 358 -86t249 -237l-273 -116q-136 166 -334 166q-194 0 -317 -129t-123 -332q0 -201 123 -331t317 -130q166 0 284 90t146 248h-462v246h739q10 -58 10 -122q0 -321 -200 -527
q-182 -188 -463 -204l-76 -144q28 12 73 12q77 0 127 -46t50 -130q0 -86 -68 -148q-68 -61 -188 -61q-90 0 -181 46l67 134q56 -35 114 -35q46 0 71 21q21 17 21 43q0 25 -20 42q-21 18 -53 18q-57 0 -94 -41l-109 52z" />
    <glyph glyph-name="gcedilla" unicode="&#x123;" horiz-adv-x="1373" 
d="M593 1035q213 0 363 -159v133h277v-898q0 -550 -608 -550q-242 0 -433 102l80 222q171 -89 347 -89t256 76q81 77 81 262q-150 -159 -363 -159t-353 149q-140 150 -140 379t140 380.5t353 151.5zM475 748q-82 -95 -82 -245t81 -244q81 -93 208.5 -93t208.5 93.5t81 243.5
t-81 245.5t-208.5 95.5t-207.5 -96zM816 1810q-158 -164 -179 -292q8 1 29 1q76 0 129 -51q52 -53 52 -129q0 -74 -53.5 -126.5t-130.5 -52.5q-89 0 -142.5 62t-53.5 163q0 271 243 511zM593 1035q213 0 363 -159v133h277v-898q0 -550 -608 -550q-242 0 -433 102l80 222
q171 -89 347 -89t256 76q81 77 81 262q-150 -159 -363 -159t-353 149q-140 150 -140 379t140 380.5t353 151.5zM475 748q-82 -95 -82 -245t81 -244q81 -93 208.5 -93t208.5 93.5t81 243.5t-81 245.5t-208.5 95.5t-207.5 -96z" />
    <glyph glyph-name="Hcircumflex" unicode="&#x124;" horiz-adv-x="1524" 
d="M140 1418h290v-561h665v561h289v-1418h-289v615h-665v-615h-290v1418zM629 1846h266l284 -326h-224l-193 141l-193 -141h-224z" />
    <glyph glyph-name="hcircumflex" unicode="&#x125;" horiz-adv-x="1285" 
d="M140 1418h277v-542q140 159 350 159q169 0 278.5 -110t109.5 -288v-637h-277v637q0 89 -58.5 148t-144.5 59q-109 -3 -183.5 -81t-74.5 -177v-586h-277v1418zM515 1846h266l284 -326h-224l-193 141l-193 -141h-224z" />
    <glyph glyph-name="Itilde" unicode="&#x128;" horiz-adv-x="568" 
d="M140 1418h288v-1418h-288v1418zM139 1845q77 0 186 -81q71 -53 108 -53q67 0 118 93l129 -105q-52 -89 -113.5 -134t-133.5 -45q-81 0 -187 79q-72 55 -107 55q-69 0 -121 -90l-130 104q56 86 116 133q61 46 135 44z" />
    <glyph glyph-name="itilde" unicode="&#x129;" horiz-adv-x="557" 
d="M140 1009h277v-1009h-277v1009zM133 1436q77 0 186 -81q71 -53 108 -53q67 0 118 93l129 -105q-52 -89 -113.5 -134t-133.5 -45q-81 0 -187 79q-72 55 -107 55q-69 0 -121 -90l-130 104q56 86 116 133q61 46 135 44z" />
    <glyph glyph-name="Imacron" unicode="&#x12a;" horiz-adv-x="568" 
d="M140 1418h288v-1418h-288v1418zM-80 1726v-206h729v206h-729z" />
    <glyph glyph-name="imacron" unicode="&#x12b;" horiz-adv-x="557" 
d="M140 1009h277v-1009h-277v1009zM-86 1317v-206h729v206h-729z" />
    <glyph glyph-name="Ibreve" unicode="&#x12c;" horiz-adv-x="568" 
d="M140 1418h288v-1418h-288v1418zM284 1687q83 0 134 52q27 28 38.5 67.5t11.5 87.5h183q0 -82 -25 -151.5t-79 -122.5q-103 -100 -263 -100t-263 101q-55 53 -79 122t-24 151h182q0 -48 11 -87.5t40 -68.5q51 -51 133 -51z" />
    <glyph glyph-name="ibreve" unicode="&#x12d;" horiz-adv-x="557" 
d="M140 1009h277v-1009h-277v1009zM278 1278q83 0 134 52q27 28 38.5 67.5t11.5 87.5h183q0 -82 -25 -151.5t-79 -122.5q-103 -100 -263 -100t-263 101q-55 53 -79 122t-24 151h182q0 -48 11 -87.5t40 -68.5q51 -51 133 -51z" />
    <glyph glyph-name="Iogonek" unicode="&#x12e;" horiz-adv-x="568" 
d="M217 0h-77v1418h288l-2 -1418q-300 -178 -300 -335q0 -45 24 -72t65 -27q68 0 110 88l111 -94q-95 -139 -230 -139q-116 0 -178 64q-63 62 -63 161q-1 181 252 354z" />
    <glyph glyph-name="iogonek" unicode="&#x12f;" horiz-adv-x="557" 
d="M209 0h-69v1009h277v-1009q-300 -178 -300 -335q0 -45 24 -72t65 -27q68 0 110 88l111 -94q-95 -139 -230 -139q-116 0 -178 64q-63 62 -63 161q-1 181 253 354z" />
    <glyph glyph-name="Jcircumflex" unicode="&#x134;" horiz-adv-x="1035" 
d="M612 1418h293v-952q0 -208 -138.5 -349.5t-354 -141.5t-362.5 158l176 208q66 -89 187 -89q91 0 144 59q55 59 55 143v964zM625 1846h266l284 -326h-224l-193 141l-193 -141h-224z" />
    <glyph glyph-name="jcircumflex" unicode="&#x135;" horiz-adv-x="754" 
d="M310 1009h277v-1140q0 -140 -85.5 -224t-222.5 -84t-249 86l80 184q56 -41 104 -41q96 0 96 102v1117zM316 1439h266l284 -326h-224l-193 141l-193 -141h-224z" />
    <glyph glyph-name="Kcedilla" unicode="&#x136;" horiz-adv-x="1380" 
d="M140 1418h290v-547l506 547h379l-605 -633l640 -785h-370l-461 588l-89 -92v-496h-290v1418zM623 0l-142 -283l109 -52q37 41 94 41q32 0 52.5 -17.5t20.5 -42.5q0 -26 -21 -43q-25 -21 -71 -21q-58 0 -114 35l-67 -134q91 -46 181 -46q120 0 188 61q68 62 68 148
q0 84 -50 130t-127 46q-45 0 -73 -12l101 190h-149z" />
    <glyph glyph-name="kcedilla" unicode="&#x137;" horiz-adv-x="1160" 
d="M140 1418h277v-781l350 372h363l-461 -461l458 -548h-331l-299 376l-80 -83v-293h-277v1418zM523 0l-142 -283l109 -52q37 41 94 41q32 0 52.5 -17.5t20.5 -42.5q0 -26 -21 -43q-25 -21 -71 -21q-58 0 -114 35l-67 -134q91 -46 181 -46q120 0 188 61q68 62 68 148
q0 84 -50 130t-127 46q-45 0 -73 -12l101 190h-149z" />
    <glyph glyph-name="Lacute" unicode="&#x139;" horiz-adv-x="1151" 
d="M429 1418v-1177h642v-241h-931v1418h289zM863 1731l-289 -211h-224l284 326z" />
    <glyph glyph-name="lacute" unicode="&#x13a;" horiz-adv-x="557" 
d="M140 1418h277v-1418h-277v1418zM535 1731l-289 -211h-224l284 326z" />
    <glyph glyph-name="Lcedilla" unicode="&#x13b;" horiz-adv-x="1151" 
d="M537 0h-397v1418h289v-1177h642v-241h-385l-100 -187q28 12 73 12q77 0 127 -46t50 -130q0 -86 -68 -148q-68 -61 -188 -61q-90 0 -181 46l67 134q56 -35 114 -35q46 0 71 21q21 17 21 43q0 25 -20 42q-21 18 -53 18q-57 0 -94 -41l-109 52z" />
    <glyph glyph-name="lcedilla" unicode="&#x13c;" horiz-adv-x="557" 
d="M204 0h-64v1418h277v-1418h-64l-100 -187q28 12 73 12q77 0 127 -46t50 -130q0 -86 -68 -148q-68 -61 -188 -61q-90 0 -181 46l67 134q56 -35 114 -35q46 0 71 21q21 17 21 43q0 25 -20 42q-21 18 -53 18q-57 0 -94 -41l-109 52z" />
    <glyph glyph-name="Lcaron" unicode="&#x13d;" horiz-adv-x="1151" 
d="M429 1418v-1177h642v-241h-931v1418h289zM739 1520h-266l-284 326h224l193 -141l193 141h224z" />
    <glyph glyph-name="lcaron" unicode="&#x13e;" horiz-adv-x="557" 
d="M140 1418h277v-1418h-277v1418zM411 1520h-266l-284 326h224l193 -141l193 141h224z" />
    <glyph glyph-name="Nacute" unicode="&#x143;" horiz-adv-x="1560" 
d="M1037 1731l-289 -211h-224l284 326zM140 1418h301l686 -977v977h293v-1418h-305v0l-686 978v-978h-289v1418z" />
    <glyph glyph-name="nacute" unicode="&#x144;" 
d="M767 1035q169 0 279 -110t110 -288v-637h-277v637q0 89 -59 148t-145 59q-108 -3 -183 -81t-75 -177v-586h-277v1009h277v-133q140 159 350 159zM905 1348l-289 -211h-224l284 326z" />
    <glyph glyph-name="Ncedilla" unicode="&#x145;" horiz-adv-x="1560" 
d="M707 0l-142 -283l109 -52q37 41 94 41q32 0 52.5 -17.5t20.5 -42.5q0 -26 -21 -43q-25 -21 -71 -21q-58 0 -114 35l-67 -134q91 -46 181 -46q120 0 188 61q68 62 68 148q0 84 -50 130t-127 46q-45 0 -73 -12l101 190h-149zM140 1418h301l686 -977v977h293v-1418h-305v0
l-686 978v-978h-289v1418z" />
    <glyph glyph-name="ncedilla" unicode="&#x146;" 
d="M767 1035q169 0 279 -110t110 -288v-637h-277v637q0 89 -59 148t-145 59q-108 -3 -183 -81t-75 -177v-586h-277v1009h277v-133q140 159 350 159zM575 0l-142 -283l109 -52q37 41 94 41q32 0 52.5 -17.5t20.5 -42.5q0 -26 -21 -43q-25 -21 -71 -21q-58 0 -114 35l-67 -134
q91 -46 181 -46q120 0 188 61q68 62 68 148q0 84 -50 130t-127 46q-45 0 -73 -12l101 190h-149z" />
    <glyph glyph-name="Ncaron" unicode="&#x147;" horiz-adv-x="1560" 
d="M913 1520h-266l-284 326h224l193 -141l193 141h224zM140 1418h301l686 -977v977h293v-1418h-305v0l-686 978v-978h-289v1418z" />
    <glyph glyph-name="ncaron" unicode="&#x148;" 
d="M767 1035q169 0 279 -110t110 -288v-637h-277v637q0 89 -59 148t-145 59q-108 -3 -183 -81t-75 -177v-586h-277v1009h277v-133q140 159 350 159zM781 1137h-266l-284 326h224l193 -141l193 141h224z" />
    <glyph glyph-name="Omacron" unicode="&#x14c;" horiz-adv-x="1700" 
d="M487 1750v-206h729v206h-729zM1385 1230q215 -206 215 -523t-212.5 -524.5t-535.5 -207.5t-537.5 207.5t-214.5 524.5t214.5 526t537.5 209t533 -212zM525 1042q-125 -129 -125 -335t126 -335.5t324 -129.5t324.5 129.5t126.5 335.5t-126.5 335.5t-324.5 129.5t-325 -130
z" />
    <glyph glyph-name="omacron" unicode="&#x14d;" horiz-adv-x="1334" 
d="M1075 882q159 -149 159 -379q0 -228 -161 -379q-161 -149 -406 -149t-406 149.5t-161 378.5t161 380.5t406 151.5t408 -153zM470 748q-77 -95 -77 -245t77 -246q76 -95 197 -95t197.5 95.5t76.5 245.5t-76.5 245.5t-197.5 95.5t-197 -96zM303 1343v-206h729v206h-729z
" />
    <glyph glyph-name="Obreve" unicode="&#x14e;" horiz-adv-x="1700" 
d="M851 1711q83 0 134 52q27 28 38.5 67.5t11.5 87.5h183q0 -82 -25 -151.5t-79 -122.5q-103 -100 -263 -100t-263 101q-55 53 -79 122t-24 151h182q0 -48 11 -87.5t40 -68.5q51 -51 133 -51zM1385 1230q215 -206 215 -523t-212.5 -524.5t-535.5 -207.5t-537.5 207.5
t-214.5 524.5t214.5 526t537.5 209t533 -212zM525 1042q-125 -129 -125 -335t126 -335.5t324 -129.5t324.5 129.5t126.5 335.5t-126.5 335.5t-324.5 129.5t-325 -130z" />
    <glyph glyph-name="obreve" unicode="&#x14f;" horiz-adv-x="1334" 
d="M1075 882q159 -149 159 -379q0 -228 -161 -379q-161 -149 -406 -149t-406 149.5t-161 378.5t161 380.5t406 151.5t408 -153zM470 748q-77 -95 -77 -245t77 -246q76 -95 197 -95t197.5 95.5t76.5 245.5t-76.5 245.5t-197.5 95.5t-197 -96zM667 1304q83 0 134 52
q27 28 38.5 67.5t11.5 87.5h183q0 -82 -25 -151.5t-79 -122.5q-103 -100 -263 -100t-263 101q-55 53 -79 122t-24 151h182q0 -48 11 -87.5t40 -68.5q51 -51 133 -51z" />
    <glyph glyph-name="Odblacute" unicode="&#x150;" horiz-adv-x="1700" 
d="M932 1755l-289 -211h-224l284 326zM1380 1755l-289 -211h-224l284 326zM1385 1230q215 -206 215 -523t-212.5 -524.5t-535.5 -207.5t-537.5 207.5t-214.5 524.5t214.5 526t537.5 209t533 -212zM525 1042q-125 -129 -125 -335t126 -335.5t324 -129.5t324.5 129.5
t126.5 335.5t-126.5 335.5t-324.5 129.5t-325 -130z" />
    <glyph glyph-name="odblacute" unicode="&#x151;" horiz-adv-x="1334" 
d="M1075 882q159 -149 159 -379q0 -228 -161 -379q-161 -149 -406 -149t-406 149.5t-161 378.5t161 380.5t406 151.5t408 -153zM470 748q-77 -95 -77 -245t77 -246q76 -95 197 -95t197.5 95.5t76.5 245.5t-76.5 245.5t-197.5 95.5t-197 -96zM748 1348l-289 -211h-224
l284 326zM1196 1348l-289 -211h-224l284 326z" />
    <glyph glyph-name="Racute" unicode="&#x154;" horiz-adv-x="1335" 
d="M932 1731l-289 -211h-224l284 326zM570 583h-141v-583h-289v1418h647q184 0 310 -124q126 -123 126 -311q0 -177 -124 -281q-82 -69 -222 -105l398 -597h-351zM429 1177v-391h295q81 0 137.5 55.5t56.5 142t-56.5 140t-137.5 53.5h-295z" />
    <glyph glyph-name="racute" unicode="&#x155;" horiz-adv-x="808" 
d="M758 1035v-251q-64 38 -153 38t-140 -49.5t-51 -135.5v-637h-274v1009h274v-133q137 156 344 159zM706 1348l-289 -211h-224l284 326z" />
    <glyph glyph-name="Rcedilla" unicode="&#x156;" horiz-adv-x="1335" 
d="M621 0l-142 -283l109 -52q37 41 94 41q32 0 52.5 -17.5t20.5 -42.5q0 -26 -21 -43q-25 -21 -71 -21q-58 0 -114 35l-67 -134q91 -46 181 -46q120 0 188 61q68 62 68 148q0 84 -50 130t-127 46q-45 0 -73 -12l101 190h-149zM570 583h-141v-583h-289v1418h647
q184 0 310 -124q126 -123 126 -311q0 -177 -124 -281q-82 -69 -222 -105l398 -597h-351zM429 1177v-391h295q81 0 137.5 55.5t56.5 142t-56.5 140t-137.5 53.5h-295z" />
    <glyph glyph-name="rcedilla" unicode="&#x157;" horiz-adv-x="808" 
d="M202 0h-62v1009h274v-133q137 156 344 159v-251q-64 38 -153 38t-140 -50q-51 -49 -51 -135v-637h-63l-100 -187q28 12 73 12q77 0 127 -46t50 -130q0 -86 -68 -148q-68 -61 -188 -61q-90 0 -181 46l67 134q56 -35 114 -35q46 0 71 21q21 17 21 43q0 25 -20 42
q-21 18 -53 18q-57 0 -94 -41l-109 52z" />
    <glyph glyph-name="Rcaron" unicode="&#x158;" horiz-adv-x="1335" 
d="M760 1520h-266l-284 326h224l193 -141l193 141h224zM570 583h-141v-583h-289v1418h647q184 0 310 -124q126 -123 126 -311q0 -177 -124 -281q-82 -69 -222 -105l398 -597h-351zM429 1177v-391h295q81 0 137.5 55.5t56.5 142t-56.5 140t-137.5 53.5h-295z" />
    <glyph glyph-name="rcaron" unicode="&#x159;" horiz-adv-x="808" 
d="M758 1035v-251q-64 38 -153 38t-140 -49.5t-51 -135.5v-637h-274v1009h274v-133q137 156 344 159zM582 1137h-266l-284 326h224l193 -141l193 141h224z" />
    <glyph glyph-name="Sacute" unicode="&#x15a;" horiz-adv-x="1346" 
d="M934 1755l-289 -211h-224l284 326zM689 1443q297 0 523 -186l-170 -205q-78 69 -166 100.5t-184 31.5q-110 0 -173 -48q-46 -37 -46 -95q0 -63 59 -102q46 -31 223 -81q209 -54 311 -118q180 -119 180 -331q0 -194 -168 -322q-152 -112 -386 -112q-342 0 -592 234
l162 206q72 -73 185 -127q117 -59 245 -59q120 0 190 51q63 51 63 119q0 70 -64 113q-47 32 -218 80q-219 63 -308 115q-185 109 -185 316q0 188 147 304t372 116z" />
    <glyph glyph-name="sacute" unicode="&#x15b;" horiz-adv-x="1123" 
d="M580 1033q118 0 236 -41.5t207 -114.5l-135 -172q-160 112 -313 112q-130 0 -130 -76q0 -69 193 -116q153 -35 234 -82q146 -88 146 -248q0 -150 -130 -241q-118 -79 -308 -79q-136 0 -263.5 43t-216.5 118l138 173q157 -122 337 -122q72 0 119 26q43 25 43 67
q0 45 -47 73q-50 29 -146 50q-144 33 -228 80q-148 84 -148 237q0 139 117 225q120 88 295 88zM819 1346l-289 -211h-224l284 326z" />
    <glyph glyph-name="Scircumflex" unicode="&#x15c;" horiz-adv-x="1346" 
d="M559 1870h266l284 -326h-224l-193 141l-193 -141h-224zM689 1443q297 0 523 -186l-170 -205q-78 69 -166 100.5t-184 31.5q-110 0 -173 -48q-46 -37 -46 -95q0 -63 59 -102q46 -31 223 -81q209 -54 311 -118q180 -119 180 -331q0 -194 -168 -322q-152 -112 -386 -112
q-342 0 -592 234l162 206q72 -73 185 -127q117 -59 245 -59q120 0 190 51q63 51 63 119q0 70 -64 113q-47 32 -218 80q-219 63 -308 115q-185 109 -185 316q0 188 147 304t372 116z" />
    <glyph glyph-name="scircumflex" unicode="&#x15d;" horiz-adv-x="1123" 
d="M580 1033q118 0 236 -41.5t207 -114.5l-135 -172q-160 112 -313 112q-130 0 -130 -76q0 -69 193 -116q153 -35 234 -82q146 -88 146 -248q0 -150 -130 -241q-118 -79 -308 -79q-136 0 -263.5 43t-216.5 118l138 173q157 -122 337 -122q72 0 119 26q43 25 43 67
q0 45 -47 73q-50 29 -146 50q-144 33 -228 80q-148 84 -148 237q0 139 117 225q120 88 295 88zM444 1461h266l284 -326h-224l-193 141l-193 -141h-224z" />
    <glyph glyph-name="Scedilla" unicode="&#x15e;" horiz-adv-x="1346" 
d="M604 -21q-287 27 -504 230l162 206q72 -73 185 -127q117 -59 245 -59q120 0 190 51q63 51 63 119q0 70 -64 113q-47 32 -218 80q-219 63 -308 115q-185 109 -185 316q0 188 147 304t372 116q297 0 523 -186l-170 -205q-78 69 -166 101q-88 31 -184 31q-110 0 -173 -48
q-46 -37 -46 -95q0 -63 59 -102q46 -31 223 -81q209 -54 311 -118q180 -119 180 -331q0 -194 -168 -322q-132 -97 -326 -110l-86 -162q28 12 73 12q77 0 127 -46t50 -130q0 -86 -68 -148q-68 -61 -188 -61q-90 0 -181 46l67 134q56 -35 114 -35q46 0 71 21q21 17 21 43
q0 25 -20 42q-21 18 -53 18q-57 0 -94 -41l-109 52z" />
    <glyph glyph-name="scedilla" unicode="&#x15f;" horiz-adv-x="1123" 
d="M484 -20q-86 10 -168 38q-127 43 -216 118l138 173q157 -122 337 -122q72 0 119 26q43 25 43 67q0 45 -47 73q-50 29 -146 50q-144 33 -228 80q-148 84 -148 237q0 139 117 225q120 88 295 88q118 0 236 -42q118 -41 207 -114l-135 -172q-160 112 -313 112
q-130 0 -130 -76q0 -69 193 -116q153 -35 234 -82q146 -88 146 -248q0 -150 -130 -241q-102 -68 -257 -77l-93 -176q28 12 73 12q77 0 127 -46t50 -130q0 -86 -68 -148q-68 -61 -188 -61q-90 0 -181 46l67 134q56 -35 114 -35q46 0 71 21q21 17 21 43q0 25 -20 42
q-21 18 -53 18q-57 0 -94 -41l-109 52z" />
    <glyph glyph-name="Scaron" unicode="&#x160;" horiz-adv-x="1354" 
d="M819 1544h-266l-284 326h224l193 -141l193 141h224zM689 1443q297 0 523 -186l-170 -205q-78 69 -166 100.5t-184 31.5q-110 0 -173 -48q-46 -37 -46 -95q0 -63 59 -102q46 -31 223 -81q209 -54 311 -118q180 -119 180 -331q0 -194 -168 -322q-152 -112 -386 -112
q-342 0 -592 234l162 206q72 -73 185 -127q117 -59 245 -59q120 0 190 51q63 51 63 119q0 70 -64 113q-47 32 -218 80q-219 63 -308 115q-185 109 -185 316q0 188 147 304t372 116z" />
    <glyph glyph-name="scaron" unicode="&#x161;" horiz-adv-x="1123" 
d="M580 1033q118 0 236 -41.5t207 -114.5l-135 -172q-160 112 -313 112q-130 0 -130 -76q0 -69 193 -116q153 -35 234 -82q146 -88 146 -248q0 -150 -130 -241q-118 -79 -308 -79q-136 0 -263.5 43t-216.5 118l138 173q157 -122 337 -122q72 0 119 26q43 25 43 67
q0 45 -47 73q-50 29 -146 50q-144 33 -228 80q-148 84 -148 237q0 139 117 225q120 88 295 88zM710 1135h-266l-284 326h224l193 -141l193 141h224z" />
    <glyph glyph-name="Tcedilla" unicode="&#x162;" horiz-adv-x="1312" 
d="M580 0h-70v1179h-430v239h1152v-239h-432v-1179h-71l-100 -187q28 12 73 12q77 0 127 -46t50 -130q0 -86 -68 -148q-68 -61 -188 -61q-90 0 -181 46l67 134q56 -35 114 -35q46 0 71 21q21 17 21 43q0 25 -20 42q-21 18 -53 18q-57 0 -94 -41l-109 52z" />
    <glyph glyph-name="tcedilla" unicode="&#x163;" horiz-adv-x="794" 
d="M364 -3q-55 21 -96 62q-84 84 -84 221v513h-134v216h134v322h277v-322h184v-216h-184v-491q0 -101 96 -101q48 0 104 41l83 -182q-108 -83 -243 -84l-88 -166q28 12 73 12q77 0 127 -46t50 -130q0 -86 -68 -148q-68 -61 -188 -61q-90 0 -181 46l67 134q56 -35 114 -35
q46 0 71 21q21 17 21 43q0 25 -20 42q-21 18 -53 18q-57 0 -94 -41l-109 52z" />
    <glyph glyph-name="Tcaron" unicode="&#x164;" horiz-adv-x="1312" 
d="M80 1418h1152v-239h-432v-1179h-290v1179h-430v239zM789 1520h-266l-284 326h224l193 -141l193 141h224z" />
    <glyph glyph-name="tcaron" unicode="&#x165;" horiz-adv-x="794" 
d="M184 1009v322h277v-322h184v-216h-184v-491q0 -101 96 -101q48 0 104 41l83 -182q-111 -85 -251 -85q-141 0 -225 84t-84 221v513h-134v216h134zM459 1433h-266l-284 326h224l193 -141l193 141h224z" />
    <glyph glyph-name="Utilde" unicode="&#x168;" horiz-adv-x="1536" 
d="M130 1418h291v-843q0 -147 91 -240t255.5 -93t256 93t91.5 240v843h291v-820q0 -292 -166 -457.5t-474 -165.5t-472 165.5t-164 457.5v820zM623 1845q77 0 186 -81q71 -53 108 -53q67 0 118 93l129 -105q-52 -89 -113.5 -134t-133.5 -45q-81 0 -187 79q-72 55 -107 55
q-69 0 -121 -90l-130 104q56 86 116 133q61 46 135 44z" />
    <glyph glyph-name="utilde" unicode="&#x169;" 
d="M130 1009h277v-640q0 -89 59 -148t145 -59q108 4 183 82t75 176v589h277v-1009h-277v134q-141 -159 -351 -159q-168 0 -278 109.5t-110 288.5v636zM493 1436q77 0 186 -81q71 -53 108 -53q67 0 118 93l129 -105q-52 -89 -113.5 -134t-133.5 -45q-81 0 -187 79
q-72 55 -107 55q-69 0 -121 -90l-130 104q56 86 116 133q61 46 135 44z" />
    <glyph glyph-name="Umacron" unicode="&#x16a;" horiz-adv-x="1536" 
d="M130 1418h291v-843q0 -147 91 -240t255.5 -93t256 93t91.5 240v843h291v-820q0 -292 -166 -457.5t-474 -165.5t-472 165.5t-164 457.5v820zM404 1726v-206h729v206h-729z" />
    <glyph glyph-name="umacron" unicode="&#x16b;" 
d="M130 1009h277v-640q0 -89 59 -148t145 -59q108 4 183 82t75 176v589h277v-1009h-277v134q-141 -159 -351 -159q-168 0 -278 109.5t-110 288.5v636zM274 1317v-206h729v206h-729z" />
    <glyph glyph-name="Ubreve" unicode="&#x16c;" horiz-adv-x="1536" 
d="M130 1418h291v-843q0 -147 91 -240t255.5 -93t256 93t91.5 240v843h291v-820q0 -292 -166 -457.5t-474 -165.5t-472 165.5t-164 457.5v820zM768 1687q83 0 134 52q27 28 38.5 67.5t11.5 87.5h183q0 -82 -25 -151.5t-79 -122.5q-103 -100 -263 -100t-263 101
q-55 53 -79 122t-24 151h182q0 -48 11 -87.5t40 -68.5q51 -51 133 -51z" />
    <glyph glyph-name="ubreve" unicode="&#x16d;" 
d="M130 1009h277v-640q0 -89 59 -148t145 -59q108 4 183 82t75 176v589h277v-1009h-277v134q-141 -159 -351 -159q-168 0 -278 109.5t-110 288.5v636zM638 1278q83 0 134 52q27 28 38.5 67.5t11.5 87.5h183q0 -82 -25 -151.5t-79 -122.5q-103 -100 -263 -100t-263 101
q-55 53 -79 122t-24 151h182q0 -48 11 -87.5t40 -68.5q51 -51 133 -51z" />
    <glyph glyph-name="Uring" unicode="&#x16e;" horiz-adv-x="1536" 
d="M130 1418h291v-843q0 -147 91 -240t255.5 -93t256 93t91.5 240v843h291v-820q0 -292 -166 -457.5t-474 -165.5t-472 165.5t-164 457.5v820zM767 1830q-40 0 -68.5 -30t-28.5 -69q0 -41 28.5 -69t68.5 -28q41 0 69 28t28 69q0 39 -28 69t-69 30zM767 1987q52 0 98 -20
t80.5 -55.5t55 -81.5t20.5 -99q0 -54 -20.5 -101t-55 -81.5t-80.5 -54.5t-98 -20q-53 0 -99 20t-80 54.5t-53.5 81.5t-19.5 101q0 53 19.5 99t53.5 81.5t80 55.5t99 20z" />
    <glyph glyph-name="uring" unicode="&#x16f;" 
d="M130 1009h277v-640q0 -89 59 -148t145 -59q108 4 183 82t75 176v589h277v-1009h-277v134q-141 -159 -351 -159q-168 0 -278 109.5t-110 288.5v636zM637 1467q-40 0 -68.5 -30t-28.5 -69q0 -41 28.5 -69t68.5 -28q41 0 69 28t28 69q0 39 -28 69t-69 30zM637 1624
q52 0 98 -20t80.5 -55.5t55 -81.5t20.5 -99q0 -54 -20.5 -101t-55 -81.5t-80.5 -54.5t-98 -20q-53 0 -99 20t-80 54.5t-53.5 81.5t-19.5 101q0 53 19.5 99t53.5 81.5t80 55.5t99 20z" />
    <glyph glyph-name="Udblacute" unicode="&#x170;" horiz-adv-x="1536" 
d="M130 1418h291v-843q0 -147 91 -240t255.5 -93t256 93t91.5 240v843h291v-820q0 -292 -166 -457.5t-474 -165.5t-472 165.5t-164 457.5v820zM801 1731l-289 -211h-224l284 326zM1249 1731l-289 -211h-224l284 326z" />
    <glyph glyph-name="udblacute" unicode="&#x171;" 
d="M130 1009h277v-640q0 -89 59 -148t145 -59q108 4 183 82t75 176v589h277v-1009h-277v134q-141 -159 -351 -159q-168 0 -278 109.5t-110 288.5v636zM671 1322l-289 -211h-224l284 326zM1119 1322l-289 -211h-224l284 326z" />
    <glyph glyph-name="Uogonek" unicode="&#x172;" horiz-adv-x="1536" 
d="M781 -25h-15q-308 0 -472 166q-164 165 -164 457v820h291v-843q0 -147 91 -240t256 -93q164 0 256 93q91 93 91 240v843h291v-820q0 -292 -166 -458q-81 -81 -197 -122q-279 -171 -279 -322q0 -45 24 -72t65 -27q68 0 110 88l111 -94q-95 -139 -230 -139q-116 0 -178 64
q-63 62 -63 161q-1 152 178 298z" />
    <glyph glyph-name="uogonek" unicode="&#x173;" 
d="M936 0h-67v134q-141 -159 -351 -159q-168 0 -278 110q-110 109 -110 288v636h277v-640q0 -89 59 -148t145 -59q108 4 183 82t75 176v589h277v-1009q-303 -179 -303 -336q0 -45 24 -72t65 -27q68 0 110 88l111 -94q-95 -139 -230 -139q-116 0 -178 64q-63 62 -63 161
q-1 182 254 355z" />
    <glyph glyph-name="Wcircumflex" unicode="&#x174;" horiz-adv-x="2171" 
d="M30 1418h303l312 -1033l303 1033h280l302 -1033l308 1033h303l-424 -1418h-331l-299 1019l-299 -1019h-334zM953 1846h266l284 -326h-224l-193 141l-193 -141h-224z" />
    <glyph glyph-name="wcircumflex" unicode="&#x175;" horiz-adv-x="1674" 
d="M30 1009h286l194 -652l201 652h248l204 -652l191 652h290l-312 -1009h-280l-217 697l-213 -697h-280zM704 1437h266l284 -326h-224l-193 141l-193 -141h-224z" />
    <glyph glyph-name="Ycircumflex" unicode="&#x176;" horiz-adv-x="1487" 
d="M30 1418h350l362 -554l363 554h352l-568 -830v-588h-290v588zM611 1846h266l284 -326h-224l-193 141l-193 -141h-224z" />
    <glyph glyph-name="ycircumflex" unicode="&#x177;" horiz-adv-x="1314" 
d="M158 1009h277v-640q0 -89 59 -148t145 -59q108 4 183 82t75 176v589h277v-898q0 -550 -608 -550q-242 0 -436 102l79 222q171 -89 347 -89t258 76q83 77 83 262q-140 -159 -350 -159q-169 0 -279 109.5t-110 288.5v636zM519 1437h266l284 -326h-224l-193 141l-193 -141
h-224z" />
    <glyph glyph-name="Ydieresis" unicode="&#x178;" horiz-adv-x="1487" 
d="M30 1418h350l362 -554l363 554h352l-568 -830v-588h-290v588zM495 1847q66 0 117 -51q48 -46 48 -112q0 -70 -50 -117q-49 -47 -115 -47q-69 0 -118 48q-47 47 -47 116q0 68 47 114q48 49 118 49zM993 1847q66 0 117 -51q48 -46 48 -112q0 -70 -50 -117q-49 -47 -115 -47
q-69 0 -118 48q-47 47 -47 116q0 68 47 114q48 49 118 49z" />
    <glyph glyph-name="Zacute" unicode="&#x179;" horiz-adv-x="1400" 
d="M129 1418h1142v-186l-764 -991h793v-241h-1200v191l769 989h-740v238zM957 1731l-289 -211h-224l284 326z" />
    <glyph glyph-name="zacute" unicode="&#x17a;" horiz-adv-x="1111" 
d="M126 1009h872v-168l-516 -628h529v-213h-911v166l500 627h-474v216zM813 1322l-289 -211h-224l284 326z" />
    <glyph glyph-name="Zcaron" unicode="&#x17d;" horiz-adv-x="1400" 
d="M129 1418h1142v-186l-764 -991h793v-241h-1200v191l769 989h-740v238zM833 1520h-266l-284 326h224l193 -141l193 141h224z" />
    <glyph glyph-name="zcaron" unicode="&#x17e;" horiz-adv-x="1111" 
d="M126 1009h872v-168l-516 -628h529v-213h-911v166l500 627h-474v216zM710 1111h-266l-284 326h224l193 -141l193 141h224z" />
    <glyph glyph-name="Acaron" unicode="&#x1cd;" horiz-adv-x="1552" 
d="M644 1418h264l614 -1418h-315l-127 307h-608l-127 -307h-315zM777 1043l-207 -494h411zM909 1520h-266l-284 326h224l193 -141l193 141h224z" />
    <glyph glyph-name="acaron" unicode="&#x1ce;" horiz-adv-x="1363" 
d="M817 1136h-266l-284 326h224l193 -141l193 141h224zM475 748q-82 -95 -82 -245t81 -244q81 -93 208.5 -93t208.5 93.5t81 243.5t-81 245.5t-208.5 95.5t-207.5 -96zM1233 1009v-1009h-277v134q-153 -159 -366 -159t-351.5 149.5t-138.5 378.5t139 381q138 151 351 151
t366 -159v133h277z" />
    <glyph glyph-name="Icaron" unicode="&#x1cf;" horiz-adv-x="568" 
d="M140 1418h288v-1418h-288v1418zM417 1520h-266l-284 326h224l193 -141l193 141h224z" />
    <glyph glyph-name="icaron" unicode="&#x1d0;" horiz-adv-x="557" 
d="M140 1009h277v-1009h-277v1009zM411 1111h-266l-284 326h224l193 -141l193 141h224z" />
    <glyph glyph-name="Ocaron" unicode="&#x1d1;" horiz-adv-x="1700" 
d="M984 1544h-266l-284 326h224l193 -141l193 141h224zM1385 1230q215 -206 215 -523t-212.5 -524.5t-535.5 -207.5t-537.5 207.5t-214.5 524.5t214.5 526t537.5 209t533 -212zM525 1042q-125 -129 -125 -335t126 -335.5t324 -129.5t324.5 129.5t126.5 335.5t-126.5 335.5
t-324.5 129.5t-325 -130z" />
    <glyph glyph-name="ocaron" unicode="&#x1d2;" horiz-adv-x="1334" 
d="M1075 882q159 -149 159 -379q0 -228 -161 -379q-161 -149 -406 -149t-406 149.5t-161 378.5t161 380.5t406 151.5t408 -153zM470 748q-77 -95 -77 -245t77 -246q76 -95 197 -95t197.5 95.5t76.5 245.5t-76.5 245.5t-197.5 95.5t-197 -96zM800 1137h-266l-284 326h224
l193 -141l193 141h224z" />
    <glyph glyph-name="Ucaron" unicode="&#x1d3;" horiz-adv-x="1536" 
d="M130 1418h291v-843q0 -147 91 -240t255.5 -93t256 93t91.5 240v843h291v-820q0 -292 -166 -457.5t-474 -165.5t-472 165.5t-164 457.5v820zM901 1520h-266l-284 326h224l193 -141l193 141h224z" />
    <glyph glyph-name="ucaron" unicode="&#x1d4;" 
d="M130 1009h277v-640q0 -89 59 -148t145 -59q108 4 183 82t75 176v589h277v-1009h-277v134q-141 -159 -351 -159q-168 0 -278 109.5t-110 288.5v636zM771 1111h-266l-284 326h224l193 -141l193 141h224z" />
    <glyph glyph-name="Gcaron" unicode="&#x1e6;" horiz-adv-x="1662" 
d="M976 1543h-266l-284 326h224l193 -141l193 141h224zM845 1441q200 0 358 -86t249 -237l-273 -116q-136 166 -334 166q-194 0 -317 -129t-123 -332q0 -201 123 -331t317 -130q166 0 284 90t146 248h-462v246h739q10 -58 10 -122q0 -321 -199.5 -527t-517.5 -206
q-322 0 -533.5 207.5t-211.5 524.5t211.5 525.5t533.5 208.5z" />
    <glyph glyph-name="gcaron" unicode="&#x1e7;" horiz-adv-x="1373" 
d="M593 1035q213 0 363 -159v133h277v-898q0 -550 -608 -550q-242 0 -433 102l80 222q171 -89 347 -89t256 76q81 77 81 262q-150 -159 -363 -159t-353 149q-140 150 -140 379t140 380.5t353 151.5zM475 748q-82 -95 -82 -245t81 -244q81 -93 208.5 -93t208.5 93.5t81 243.5
t-81 245.5t-208.5 95.5t-207.5 -96zM799 1137h-266l-284 326h224l193 -141l193 141h224z" />
    <glyph glyph-name="Kcaron" unicode="&#x1e8;" horiz-adv-x="1380" 
d="M140 1418h290v-547l506 547h379l-605 -633l640 -785h-370l-461 588l-89 -92v-496h-290v1418zM776 1520h-266l-284 326h224l193 -141l193 141h224z" />
    <glyph glyph-name="kcaron" unicode="&#x1e9;" horiz-adv-x="1160" 
d="M140 1418h277v-781l350 372h363l-461 -461l458 -548h-331l-299 376l-80 -83v-293h-277v1418zM768 1520h-266l-284 326h224l193 -141l193 141h224z" />
    <glyph glyph-name="Oogonek" unicode="&#x1ea;" horiz-adv-x="1718" 
d="M525 1042q-125 -129 -125 -335t126 -335.5t324 -129.5t324.5 129.5t126.5 335.5t-126.5 335.5t-324.5 129.5t-325 -130zM884 -24q-16 -1 -32 -1q-323 0 -538 208q-214 207 -214 524t215 526q214 209 537 209t533 -212q215 -206 215 -523t-213 -525q-97 -94 -217 -146
q-289 -174 -289 -328q0 -45 24 -72t65 -27q68 0 110 88l111 -94q-95 -139 -230 -139q-116 0 -178 64q-63 62 -63 161q-1 146 164 287z" />
    <glyph glyph-name="oogonek" unicode="&#x1eb;" horiz-adv-x="1334" 
d="M470 748q-77 -95 -77 -245t77 -246q76 -95 197 -95t197.5 95.5t76.5 245.5t-76.5 245.5t-197.5 95.5t-197 -96zM643 -25q-229 7 -382 150q-161 149 -161 378t161 381q161 151 406 151t408 -153q159 -149 159 -379q0 -228 -161 -379q-74 -68 -167 -106
q-279 -171 -279 -322q0 -45 24 -72t65 -27q68 0 110 88l111 -94q-95 -139 -230 -139q-116 0 -178 64q-63 62 -63 161q-1 152 177 298z" />
    <glyph glyph-name="jcaron" unicode="&#x1f0;" horiz-adv-x="754" 
d="M310 1009h277v-1140q0 -140 -85.5 -224t-222.5 -84t-249 86l80 184q56 -41 104 -41q96 0 96 102v1117zM579 1106h-266l-284 326h224l193 -141l193 141h224z" />
    <glyph glyph-name="Gacute" unicode="&#x1f4;" horiz-adv-x="1662" 
d="M1100 1754l-289 -211h-224l284 326zM845 1441q200 0 358 -86t249 -237l-273 -116q-136 166 -334 166q-194 0 -317 -129t-123 -332q0 -201 123 -331t317 -130q166 0 284 90t146 248h-462v246h739q10 -58 10 -122q0 -321 -199.5 -527t-517.5 -206q-322 0 -533.5 207.5
t-211.5 524.5t211.5 525.5t533.5 208.5z" />
    <glyph glyph-name="gacute" unicode="&#x1f5;" horiz-adv-x="1373" 
d="M593 1035q213 0 363 -159v133h277v-898q0 -550 -608 -550q-242 0 -433 102l80 222q171 -89 347 -89t256 76q81 77 81 262q-150 -159 -363 -159t-353 149q-140 150 -140 379t140 380.5t353 151.5zM475 748q-82 -95 -82 -245t81 -244q81 -93 208.5 -93t208.5 93.5t81 243.5
t-81 245.5t-208.5 95.5t-207.5 -96zM923 1348l-289 -211h-224l284 326z" />
    <glyph glyph-name="Adblgrave" unicode="&#x200;" horiz-adv-x="1552" 
d="M644 1418h264l614 -1418h-315l-127 307h-608l-127 -307h-315zM777 1043l-207 -494h411zM693 1731l229 115l284 -326h-224zM245 1731l229 115l284 -326h-224z" />
    <glyph glyph-name="adblgrave" unicode="&#x201;" horiz-adv-x="1363" 
d="M667 1347l229 115l284 -326h-224zM219 1347l229 115l284 -326h-224zM475 748q-82 -95 -82 -245t81 -244q81 -93 208.5 -93t208.5 93.5t81 243.5t-81 245.5t-208.5 95.5t-207.5 -96zM1233 1009v-1009h-277v134q-153 -159 -366 -159t-351.5 149.5t-138.5 378.5t139 381
q138 151 351 151t366 -159v133h277z" />
    <glyph glyph-name="Edblgrave" unicode="&#x204;" horiz-adv-x="1324" 
d="M140 1418h1064v-242h-772v-321h730v-242h-730v-372h772v-241h-1064v1418zM601 1731l229 115l284 -326h-224zM153 1731l229 115l284 -326h-224z" />
    <glyph glyph-name="edblgrave" unicode="&#x205;" horiz-adv-x="1321" 
d="M1068 885q153 -152 153 -382q0 -24 -7 -83h-815q19 -118 99 -188t201 -70q156 0 261 125l219 -102q-76 -99 -205 -154.5t-275 -55.5q-262 0 -430.5 149t-168.5 379t161 381q160 152 408 152t399 -151zM492 774q-70 -70 -93 -185h535q-20 115 -90 185t-177 70
q-105 0 -175 -70zM598 1349l229 115l284 -326h-224zM150 1349l229 115l284 -326h-224z" />
    <glyph glyph-name="Idblgrave" unicode="&#x208;" horiz-adv-x="568" 
d="M140 1418h288v-1418h-288v1418zM216 1731l229 115l284 -326h-224zM-232 1731l229 115l284 -326h-224z" />
    <glyph glyph-name="idblgrave" unicode="&#x209;" horiz-adv-x="557" 
d="M140 1009h277v-1009h-277v1009zM228 1322l229 115l284 -326h-224zM-220 1322l229 115l284 -326h-224z" />
    <glyph glyph-name="Odblgrave" unicode="&#x20c;" horiz-adv-x="1718" 
d="M783 1755l229 115l284 -326h-224zM335 1755l229 115l284 -326h-224zM1385 1230q215 -206 215 -523t-212.5 -524.5t-535.5 -207.5t-537.5 207.5t-214.5 524.5t214.5 526t537.5 209t533 -212zM525 1042q-125 -129 -125 -335t126 -335.5t324 -129.5t324.5 129.5t126.5 335.5
t-126.5 335.5t-324.5 129.5t-325 -130z" />
    <glyph glyph-name="odblgrave" unicode="&#x20d;" horiz-adv-x="1334" 
d="M1075 882q159 -149 159 -379q0 -228 -161 -379q-161 -149 -406 -149t-406 149.5t-161 378.5t161 380.5t406 151.5t408 -153zM470 748q-77 -95 -77 -245t77 -246q76 -95 197 -95t197.5 95.5t76.5 245.5t-76.5 245.5t-197.5 95.5t-197 -96zM599 1348l229 115l284 -326h-224
zM151 1348l229 115l284 -326h-224z" />
    <glyph glyph-name="Rdblgrave" unicode="&#x210;" horiz-adv-x="1337" 
d="M588 1731l229 115l284 -326h-224zM140 1731l229 115l284 -326h-224zM572 583h-141v-583h-289v1418h647q184 0 310 -124q126 -123 126 -311q0 -177 -124 -281q-82 -69 -222 -105l398 -597h-351zM431 1177v-391h295q81 0 137.5 55.5t56.5 142t-56.5 140t-137.5 53.5h-295z
" />
    <glyph glyph-name="rdblgrave" unicode="&#x211;" horiz-adv-x="808" 
d="M758 1035v-251q-64 38 -153 38t-140 -49.5t-51 -135.5v-637h-274v1009h274v-133q137 156 344 159zM387 1348l229 115l284 -326h-224zM-61 1348l229 115l284 -326h-224z" />
    <glyph glyph-name="Udblgrave" unicode="&#x214;" horiz-adv-x="1536" 
d="M130 1418h291v-843q0 -147 91 -240t255.5 -93t256 93t91.5 240v843h291v-820q0 -292 -166 -457.5t-474 -165.5t-472 165.5t-164 457.5v820zM715 1731l229 115l284 -326h-224zM267 1731l229 115l284 -326h-224z" />
    <glyph glyph-name="udblgrave" unicode="&#x215;" 
d="M130 1009h277v-640q0 -89 59 -148t145 -59q108 4 183 82t75 176v589h277v-1009h-277v134q-141 -159 -351 -159q-168 0 -278 109.5t-110 288.5v636zM582 1322l229 115l284 -326h-224zM134 1322l229 115l284 -326h-224z" />
    <glyph glyph-name="Hcaron" unicode="&#x21e;" horiz-adv-x="1524" 
d="M140 1418h290v-561h665v561h289v-1418h-289v615h-665v-615h-290v1418zM895 1520h-266l-284 326h224l193 -141l193 141h224z" />
    <glyph glyph-name="hcaron" unicode="&#x21f;" horiz-adv-x="1285" 
d="M140 1418h277v-542q140 159 350 159q169 0 278.5 -110t109.5 -288v-637h-277v637q0 89 -58.5 148t-144.5 59q-109 -3 -183.5 -81t-74.5 -177v-586h-277v1418zM781 1520h-266l-284 326h224l193 -141l193 141h224z" />
    <glyph glyph-name="Ecedilla" unicode="&#x228;" horiz-adv-x="1324" 
d="M598 0h-458v1418h1064v-242h-772v-321h730v-242h-730v-372h772v-241h-458l-98 -184q28 12 73 12q77 0 127 -46t50 -130q0 -86 -68 -148q-68 -61 -188 -61q-90 0 -181 46l67 134q56 -35 114 -35q46 0 71 21q21 17 21 43q0 25 -20 42q-21 18 -53 18q-57 0 -94 -41l-109 52z
" />
    <glyph glyph-name="ecedilla" unicode="&#x229;" horiz-adv-x="1321" 
d="M492 774q-70 -70 -93 -185h535q-20 115 -90 185t-177 70q-105 0 -175 -70zM597 -19q-194 24 -328 143q-169 149 -169 379t161 381q160 152 408 152t399 -151q153 -152 153 -382q0 -24 -7 -83h-815q19 -118 99 -188t201 -70q156 0 261 125l219 -102q-76 -99 -205 -154
q-109 -47 -230 -54l-90 -170q28 12 73 12q77 0 127 -46t50 -130q0 -86 -68 -148q-68 -61 -188 -61q-90 0 -181 46l67 134q56 -35 114 -35q46 0 71 21q21 17 21 43q0 25 -21 43q-20 17 -52 17q-57 0 -94 -41l-109 52z" />
    <glyph glyph-name="Ymacron" unicode="&#x232;" horiz-adv-x="1487" 
d="M30 1418h350l362 -554l363 554h352l-568 -830v-588h-290v588zM380 1726v-206h729v206h-729z" />
    <glyph glyph-name="ymacron" unicode="&#x233;" horiz-adv-x="1314" 
d="M158 1009h277v-640q0 -89 59 -148t145 -59q108 4 183 82t75 176v589h277v-898q0 -550 -608 -550q-242 0 -436 102l79 222q171 -89 347 -89t258 76q83 77 83 262q-140 -159 -350 -159q-169 0 -279 109.5t-110 288.5v636zM288 1317v-206h729v206h-729z" />
    <glyph glyph-name="lslash" unicode="&#x142;" horiz-adv-x="960" 
d="M342 698v720h277v-444l188 188l123 -128l-311 -311v-723h-277v447l-189 -190l-123 128z" />
    <glyph glyph-name="Lslash" unicode="&#x141;" horiz-adv-x="1353" 
d="M631 724l309 308l-133 132l-176 -175v429h-289l1 -718l-313 -313l133 -132l179 180v-435h931v241h-642v483z" />
    <glyph glyph-name="brokenbar" unicode="&#xa6;" horiz-adv-x="487" 
d="M347 597v-597h-207v597h207zM347 1418v-597h-207v597h207z" />
    <glyph glyph-name="onequarter" unicode="&#xbc;" horiz-adv-x="1664" 
d="M1186 1418h166l-914 -1418h-166zM342 1418h153v-851h-168v687l-158 -92l-69 129zM1289 851h171v-518h104v-145h-104v-188h-169v188h-416v134zM1291 620l-225 -287h225v287z" />
    <glyph glyph-name="onehalf" unicode="&#xbd;" horiz-adv-x="1683" 
d="M1151 1418h166l-914 -1418h-166zM342 1418h153v-851h-168v687l-158 -92l-69 129zM1301 863q122 0 202 -66t80 -188q0 -82 -55 -167q-68 -107 -282 -299h337v-143h-579v109l288 294q116 120 116 201q0 53 -34 85q-32 30 -90 30q-105 0 -186 -89l-94 105q125 128 297 128z
" />
    <glyph glyph-name="threequarters" unicode="&#xbe;" horiz-adv-x="1713" 
d="M1322 1418h166l-914 -1418h-166zM1338 851h171v-518h104v-145h-104v-188h-169v188h-416v134zM1340 620l-225 -287h225v287zM405 1442q137 0 221 -58q86 -59 86 -161q0 -71 -42 -121q-41 -50 -108 -71q179 -58 179 -221q0 -117 -85 -185q-83 -65 -237 -65q-186 0 -319 100
l134 104q78 -61 165 -61q85 0 126 39q40 39 40 103q0 56 -41 87q-45 32 -125 32h-119v136h119q70 0 105 24q32 22 32 67t-39 77q-37 31 -105 31t-133 -36l-116 103q121 76 262 76z" />
    <glyph glyph-name="guillemotleft" unicode="&#xab;" horiz-adv-x="1207" 
d="M766 505l341 -387h-250l-328 387l328 387h250zM340 505l341 -387h-253l-328 387l328 387h253z" />
    <glyph glyph-name="guillemotright" unicode="&#xbb;" horiz-adv-x="1207" 
d="M441 505l-341 387h250l328 -387l-328 -387h-250zM867 505l-341 387h253l328 -387l-328 -387h-253z" />
    <glyph glyph-name="plusminus" unicode="&#xb1;" horiz-adv-x="1200" 
d="M481 1209h238v-397h381v-206h-381v-190h381v-206h-1000v206h381v190h-381v206h381v397z" />
    <glyph glyph-name="ordfeminine" unicode="&#xaa;" horiz-adv-x="821" 
d="M395 1433q138 0 232 -68t94 -195v-371h-170v55q-102 -71 -209 -71q-102 0 -172 55t-70 152.5t70 153t172 55.5q107 0 209 -70q0 162 -172 162q-94 0 -176 -29l-44 128q105 43 236 43zM393 1100q-61 0 -95 -30.5t-34 -79t34 -78t95 -29.5q64 0 115.5 33.5t51.5 74
t-51.5 75t-115.5 34.5z" />
    <glyph glyph-name="ordmasculine" unicode="&#xba;" horiz-adv-x="890" 
d="M693 1339q97 -91 97 -231q0 -138 -98 -230q-98 -91 -247 -91t-247 91t-98 230.5t98 231.5t247 92t248 -93zM325 1257q-47 -57 -47 -149q0 -91 47 -149q46 -58 119.5 -58t120.5 58t47 149.5t-47 149.5t-120.5 58t-119.5 -59z" />
    <glyph glyph-name="degree" unicode="&#xb0;" horiz-adv-x="506" 
d="M252 1299q-40 0 -68.5 -30t-28.5 -69q0 -41 28.5 -69t68.5 -28q41 0 69 28t28 69q0 39 -28 69t-69 30zM252 1456q52 0 98 -20t80.5 -55.5t55 -81.5t20.5 -99q0 -54 -20.5 -101t-55 -81.5t-80.5 -54.5t-98 -20q-53 0 -99 20t-80 54.5t-53.5 81.5t-19.5 101q0 53 19.5 99
t53.5 81.5t80 55.5t99 20z" />
    <glyph glyph-name="macron" unicode="&#xaf;" horiz-adv-x="929" 
d="M100 1649v-206h729v206h-729z" />
    <glyph glyph-name="sterling" unicode="&#xa3;" horiz-adv-x="1298" 
d="M799 1444q-216 0 -354 -142q-139 -143 -139 -351v-144h-116v-216h116v-305q-122 -38 -206 -134l119 -185q104 106 248 106q78 0 214 -48q140 -49 249 -49q150 0 268 75l-69 221q-86 -61 -199 -61q-68 0 -199 46q-69 23 -131 38v296h330v216h-330v157q0 84 56 143
q51 59 143 59q105 0 187 -88l175 208q-147 158 -362 158z" />
    <glyph glyph-name="divide" unicode="&#xf7;" horiz-adv-x="1200" 
d="M100 606v206h1000v-206h-1000zM600 1274q66 0 117 -51q48 -46 48 -112q0 -70 -50 -117q-49 -47 -115 -47q-69 0 -118 48q-47 47 -47 116q0 68 47 114q48 49 118 49zM600 472q66 0 117 -51q48 -46 48 -112q0 -70 -50 -117q-49 -47 -115 -47q-69 0 -118 48q-47 47 -47 116
q0 68 47 114q48 49 118 49z" />
    <glyph glyph-name="logicalnot" unicode="&#xac;" horiz-adv-x="1200" 
d="M851 739h-751v206h1000v-472h-249v266z" />
    <glyph glyph-name="multiply" unicode="&#xd7;" horiz-adv-x="1054" 
d="M382 710l-281 280l146 146l281 -280l279 280l146 -146l-281 -279l282 -282l-145 -146l-282 282l-282 -282l-145 146z" />
    <glyph glyph-name="twosuperior" unicode="&#xb2;" horiz-adv-x="779" 
d="M397 1444q122 0 202 -66t80 -188q0 -82 -55 -167q-68 -107 -282 -299h337v-143h-579v109l288 294q116 120 116 201q0 53 -34 85q-32 30 -90 30q-105 0 -186 -89l-94 105q125 128 297 128z" />
    <glyph glyph-name="threesuperior" unicode="&#xb3;" horiz-adv-x="841" 
d="M405 1442q137 0 221 -58q86 -59 86 -161q0 -71 -42 -121q-41 -50 -108 -71q179 -58 179 -221q0 -117 -85 -185q-83 -65 -237 -65q-186 0 -319 100l134 104q78 -61 165 -61q85 0 126 39q40 39 40 103q0 56 -41 87q-45 32 -125 32h-119v136h119q70 0 105 24q32 22 32 67
t-39 77q-37 31 -105 31t-133 -36l-116 103q121 76 262 76z" />
    <glyph glyph-name="onesuperior" unicode="&#xb9;" horiz-adv-x="595" 
d="M342 1418h153v-851h-168v687l-158 -92l-69 129z" />
    <glyph glyph-name="periodcentered" unicode="&#xb7;" horiz-adv-x="363" 
d="M181 685q73 0 129 -56q50 -51 53 -124q0 -77 -55 -128q-54 -52 -127 -52q-76 0 -130 53q-51 51 -51 127q0 75 51 126q54 54 130 54z" />
    <glyph glyph-name="sfthyphen" unicode="&#xad;" horiz-adv-x="677" 
d="M100 679h477v-206h-477v206z" />
    <glyph glyph-name="mu" unicode="&#xb5;" horiz-adv-x="1296" 
d="M417 362q2 -84 59 -141q59 -59 145 -59q108 4 183 82t75 176v589h277v-1009h-277v134q-141 -159 -351 -159q-59 0 -111 13v-399h-277v1420h277v-647z" />
    <glyph glyph-name="currency" unicode="&#xa4;" horiz-adv-x="1123" 
d="M562 904q-80 0 -137 -59.5t-57 -137.5q0 -82 57 -138t137 -56q82 0 137.5 56t55.5 138q0 78 -55.5 137.5t-137.5 59.5zM206 508l-18 37q-31 75 -31 162q0 85 32 159q8 19 18 37l-106 105l157 158l102 -102q21 13 43 23q74 32 159 32q84 0 158 -33q22 -10 42 -22l102 102
l158 -158l-104 -103q10 -19 19 -39q33 -74 33 -159q0 -87 -33 -163q-8 -20 -18 -38l104 -104l-157 -158l-103 104q-21 -12 -44 -22q-73 -32 -157 -32q-85 0 -159 32q-22 10 -43 22l-104 -104l-156 158z" />
    <glyph glyph-name="paragraph" unicode="&#xb6;" horiz-adv-x="1387" 
d="M1247 1421v-1832h-207v1832h207zM831 1418h-295q-184 0 -310 -124t-126 -311t126 -313t310 -126h88v-955h207v1829z" />
    <glyph glyph-name="fraction" unicode="&#x2044;" horiz-adv-x="1140" 
d="M944 1418h166l-914 -1418h-166z" />
    <glyph glyph-name="endash" unicode="&#x2013;" horiz-adv-x="1100" 
d="M100 678v-206h900v206h-900z" />
    <glyph glyph-name="emdash" unicode="&#x2014;" horiz-adv-x="1669" 
d="M100 678v-206h1469v206h-1469z" />
    <glyph glyph-name="ellipsis" unicode="&#x2026;" horiz-adv-x="2015" 
d="M281 340q73 0 129 -56q53 -50 53 -124q0 -76 -55 -128q-54 -52 -127 -52q-76 0 -130 53q-51 52 -51 127t51 126q54 54 130 54zM1007 340q73 0 129 -56q53 -50 53 -124q0 -76 -55 -128q-54 -52 -127 -52q-76 0 -130 53q-51 52 -51 127t51 126q54 54 130 54zM1733 340
q73 0 129 -56q53 -50 53 -124q0 -76 -55 -128q-54 -52 -127 -52q-76 0 -130 53q-51 52 -51 127t51 126q54 54 130 54z" />
    <glyph glyph-name="quotedblbase" unicode="&#x201e;" horiz-adv-x="1053" 
d="M131 -312q158 164 180 292q-9 -1 -30 -1q-76 0 -129 51q-52 53 -52 129q0 74 53.5 126.5t130.5 52.5q89 0 143 -62t54 -163q0 -271 -244 -511zM603 -312q158 164 180 292q-9 -1 -30 -1q-76 0 -129 51q-52 53 -52 129q0 74 53.5 126.5t130.5 52.5q89 0 143 -62t54 -163
q0 -271 -243 -511z" />
    <glyph glyph-name="quotesinglbase" unicode="&#x201a;" horiz-adv-x="581" 
d="M131 -313q158 164 180 292q-9 -1 -30 -1q-76 0 -129 51q-52 53 -52 129q0 74 53.5 126.5t130.5 52.5q89 0 143 -62t54 -163q0 -271 -244 -511z" />
    <glyph glyph-name="guilsinglleft" unicode="&#x2039;" horiz-adv-x="781" 
d="M340 505l341 -387h-253l-328 387l328 387h253z" />
    <glyph glyph-name="guilsinglright" unicode="&#x203a;" horiz-adv-x="781" 
d="M441 505l-341 387h253l328 -387l-328 -387h-253z" />
    <glyph glyph-name="approxequal" unicode="&#x2248;" horiz-adv-x="1199" 
d="M413 1108q101 0 209 -96t169 -96q80 0 160 162l148 -80q-67 -130 -147 -199q-77 -62 -170 -62q-94 0 -200 95q-104 95 -169 95q-81 0 -166 -161l-147 83q65 133 143 198q78 61 170 61zM413 678q101 0 209 -96t169 -96q80 0 160 162l148 -80q-67 -130 -147 -199
q-77 -62 -170 -62q-94 0 -200 95q-104 95 -169 95q-81 0 -166 -161l-147 83q65 133 143 198q78 61 170 61z" />
    <glyph glyph-name="lessequal" unicode="&#x2264;" horiz-adv-x="1200" 
d="M100 293h1000v-206h-1000v206zM1100 1356v-223l-736 -277l736 -279v-220l-1000 417v164z" />
    <glyph glyph-name="greaterequal" unicode="&#x2265;" horiz-adv-x="1200" 
d="M100 293h1000v-206h-1000v206zM100 356v223l736 277l-736 279v220l1000 -417v-164z" />
    <glyph glyph-name="dotaccent" unicode="&#x2d9;" horiz-adv-x="330" 
d="M165 1785q66 0 117 -51q48 -46 48 -112q0 -70 -50 -117q-49 -47 -115 -47q-69 0 -118 48q-47 47 -47 116q0 68 47 114q48 49 118 49z" />
    <glyph glyph-name="oe" unicode="&#x153;" horiz-adv-x="2165" 
d="M470 748q-77 -95 -77 -245t77 -246q76 -95 197 -95t197.5 95.5t76.5 245.5t-76.5 245.5t-197.5 95.5t-197 -96zM1336 774q-70 -70 -93 -185h535q-20 115 -90 185t-177 70q-105 0 -175 -70zM1091 142l-18 -18q-161 -149 -406 -149t-406 150q-161 149 -161 378t161 381
q161 151 406 151t408 -153l14 -14l16 16q160 152 408 152t399 -151q153 -152 153 -382q0 -24 -7 -83h-815q19 -118 99 -188t201 -70q156 0 261 125l219 -102q-76 -99 -205 -155q-129 -55 -275 -55q-262 0 -431 149z" />
    <glyph glyph-name="OE" unicode="&#x152;" horiz-adv-x="2480" 
d="M1316 110q-191 -135 -455 -135q-327 0 -544 208q-217 207 -217 524t217 526t544 209q266 0 455 -140v116h1064v-242h-772v-321h730v-242h-730v-372h772v-241h-1064v110zM525 1042q-125 -129 -125 -335t126 -335.5t324 -129.5t324.5 129.5t126.5 335.5t-126.5 335.5
t-324.5 129.5t-325 -130z" />
    <glyph glyph-name="daggerdbl" unicode="&#x2021;" horiz-adv-x="1078" 
d="M426 1014l-5 404h236l-4 -404l325 5v-203l-325 5v-636l325 5v-203l-325 5l4 -403h-236l5 403l-326 -5v203l326 -5v636l-326 -5v203z" />
    <glyph glyph-name="dagger" unicode="&#x2020;" horiz-adv-x="1078" 
d="M426 1014l-5 404h236l-4 -404l325 5v-203l-325 5l5 -666h-237l5 666l-326 -5v203z" />
    <glyph glyph-name="zero.os" horiz-adv-x="1093" 
d="M866 886q127 -150 127 -379.5t-127 -380.5t-320 -151t-319.5 151t-126.5 380.5t126.5 381t319.5 151.5t320 -153zM430 721q-47 -86 -47 -218t45 -214.5t118.5 -82.5t118.5 82.5t45 214.5t-45.5 216.5t-117.5 84.5t-117 -83z" />
    <glyph glyph-name="one.os" horiz-adv-x="682" 
d="M318 1009h264v-1009h-289v736l-139 -78l-114 214z" />
    <glyph glyph-name="two.os" horiz-adv-x="1044" 
d="M494 1040q-188 0 -394 -106l123 -235q111 73 231 73q80 0 133 -43q52 -43 52 -125q0 -255 -515 -415v-189h820v242h-291q288 180 288 429q0 180 -131.5 274.5t-315.5 94.5z" />
    <glyph glyph-name="three.os" horiz-adv-x="1148" 
d="M205 -86q130 -103 274 -103q142 0 210 65q67 65 67 171q0 94 -70 146q-73 54 -207 54h-197v225h197q117 0 174 40q53 37 53 110q0 75 -64 130q-61 51 -175 51q-113 0 -219 -60l-78 232q152 66 320 66q226 0 368 -98q141 -97 141 -267q0 -117 -68 -201q-69 -83 -181 -118
q298 -95 298 -366q0 -196 -140 -308q-139 -109 -395 -109q-231 0 -413 92z" />
    <glyph glyph-name="four.os" horiz-adv-x="1292" 
d="M755 1010h272v-835h165v-237h-165v-310h-287v310h-640v193zM740 624l-331 -449h331v449z" />
    <glyph glyph-name="five.os" horiz-adv-x="1313" 
d="M242 1009h898v-239h-666l-36 -347q69 60 147.5 89.5t168.5 29.5q198 0 328.5 -125.5t130.5 -347.5q0 -219 -155 -360q-156 -145 -394 -145q-340 0 -564 276l180 160q167 -198 373 -198q121 0 194.5 73t73.5 184q0 102 -77 180q-76 75 -187 75q-156 0 -244 -151l-245 95z
" />
    <glyph glyph-name="six.os" horiz-adv-x="1320" 
d="M721 1444q232 0 454 -174l-165 -172q-137 108 -280 108t-243 -113q-97 -113 -89 -310q155 136 345 136q201 0 338 -129q139 -131 139 -322q0 -220 -156 -359q-150 -134 -376 -134q-258 0 -414 168q-174 185 -174 551q0 322 152 536t469 214zM478 617q-76 -66 -76 -165
t76 -169t184.5 -70t186.5 70t78 169t-78 167t-186.5 68t-184.5 -70z" />
    <glyph glyph-name="seven.os" horiz-adv-x="1217" 
d="M100 1009h1017v-190l-567 -1228h-335l570 1177h-685v241z" />
    <glyph glyph-name="eight.os" horiz-adv-x="1303" 
d="M1009 1342q143 -99 143 -265q0 -117 -68 -200t-186 -118q305 -104 305 -381q0 -194 -155.5 -299t-394.5 -105q-242 0 -397.5 105t-155.5 299q0 277 305 381q-118 35 -186 118t-68 200q0 166 144.5 266t358 100t355.5 -101zM491 1160q-63 -41 -63 -120.5t63 -122.5
t161.5 -43t160.5 43t62 122.5t-62 122.5t-160.5 43t-161.5 -45zM466 591q-74 -57 -74 -162q0 -102 75 -159.5t186 -57.5t184 57.5t73 159.5q0 105 -73 163.5t-184 58.5t-187 -60z" />
    <glyph glyph-name="nine.os" horiz-adv-x="1320" 
d="M599 -426q-232 0 -454 174l165 172q137 -108 280 -108t243 113q97 113 89 310q-155 -136 -345 -136q-201 0 -338 129q-139 131 -139 322q0 220 156 359q150 134 376 134q258 0 414 -168q174 -185 174 -551q0 -322 -152 -536t-469 -214zM842 401q76 66 76 165t-76 169
t-184.5 70t-186.5 -70t-78 -169t78 -167t186.5 -68t184.5 70z" />
    <glyph glyph-name="A.sc" horiz-adv-x="1232" 
d="M490 1064h252l460 -1064h-290l-81 215h-430l-81 -215h-290zM616 782l-134 -355h268z" />
    <glyph glyph-name="B.sc" horiz-adv-x="1209" 
d="M140 1064h671q109 0 184.5 -73t75.5 -188q0 -85 -51.5 -152.5t-132.5 -94.5q96 -19 159 -96.5t63 -177.5q0 -124 -81 -203t-201 -79h-687v1064zM671 829h-247v-167h247q37 0 63 24.5t26 59t-26 59t-63 24.5zM424 446v-213h262q47 0 80.5 31t33.5 76q0 43 -33.5 74.5
t-80.5 31.5h-262z" />
    <glyph glyph-name="C.sc" horiz-adv-x="1245" 
d="M1163 229q-34 -53 -82 -99q-162 -156 -408.5 -156t-409.5 156.5t-163 395.5t163 396.5t409.5 157.5t406.5 -160q51 -48 86 -103l-266 -134q-15 27 -37 50q-74 79 -192.5 79t-193.5 -80q-76 -80 -76 -206t75.5 -205.5t194 -79.5t193.5 80q17 18 30 38z" />
    <glyph glyph-name="D.sc" horiz-adv-x="1313" 
d="M140 1064h541q227 0 379.5 -148t152.5 -384t-152.5 -384t-379.5 -148h-541v1064zM423 834v-600h181q129 0 216 82t87 217t-87 218t-216 83h-181z" />
    <glyph glyph-name="E.sc" horiz-adv-x="1097" 
d="M140 1064h857v-235h-574v-162h526v-233h-526v-201h574v-233h-857v1064z" />
    <glyph glyph-name="F.sc" horiz-adv-x="1077" 
d="M140 1064h857v-235h-574v-162h526v-233h-526v-434h-283v1064z" />
    <glyph glyph-name="G.sc" horiz-adv-x="1349" 
d="M892 702q-88 108 -216 108q-122 0 -199 -79q-78 -82 -78 -206q0 -125 78 -203q82 -82 205 -82t205 82q33 33 54 78h-299v232h595q12 -50 12 -106q1 -240 -156 -395q-158 -156 -408 -156q-252 0 -418 156q-167 156 -167 394q0 239 166 396q165 157 419 157t407 -160
q48 -50 75 -96z" />
    <glyph glyph-name="H.sc" horiz-adv-x="1279" 
d="M140 1064h283v-401h435v401h281v-1064h-281v441h-435v-441h-283v1064z" />
    <glyph glyph-name="I.sc" horiz-adv-x="563" 
d="M140 1064h283v-1064h-283v1064z" />
    <glyph glyph-name="J.sc" horiz-adv-x="894" 
d="M481 1064h283v-721q0 -158 -104 -263t-275 -105q-202 0 -325 118l132 207q49 -66 140 -66q68 0 108 44q41 44 41 107v679z" />
    <glyph glyph-name="K.sc" horiz-adv-x="1152" 
d="M140 1064h283v-369l323 369h358l-474 -499l477 -565h-337l-309 386l-38 -41v-345h-283v1064z" />
    <glyph glyph-name="L.sc" horiz-adv-x="978" 
d="M423 1064v-832h481v-232h-764v1064h283z" />
    <glyph glyph-name="M.sc" horiz-adv-x="1530" 
d="M140 1064h300l325 -749l325 749h300v-1064h-283v548l-237 -548h-210l-237 548v-548h-283v1064z" />
    <glyph glyph-name="N.sc" horiz-adv-x="1300" 
d="M140 1064h247l487 -636v636h286v-1064h-250v0l-487 636v-636h-283v1064z" />
    <glyph glyph-name="O.sc" horiz-adv-x="1378" 
d="M1109 920q169 -155 169 -394t-167 -395.5t-421 -156.5t-422 156.5t-168 395.5t168 396.5t422 157.5t419 -160zM484 732q-80 -80 -80 -206t80 -205.5t206 -79.5t204.5 79.5t78.5 206t-78.5 206t-204.5 79.5t-206 -80z" />
    <glyph glyph-name="P.sc" horiz-adv-x="1118" 
d="M140 1064h551q138 0 232.5 -93t94.5 -233.5t-94.5 -235t-232.5 -94.5h-268v-408h-283v1064zM423 831v-190h186q45 0 74.5 25.5t29.5 69.5t-29.5 69.5t-74.5 25.5h-186z" />
    <glyph glyph-name="Q.sc" horiz-adv-x="1336" 
d="M483 732q-80 -80 -80 -206t80 -205.5t206 -79.5t204.5 79.5t78.5 206t-78.5 206t-204.5 79.5t-206 -80zM1184 233h124v-233h-618q-255 0 -423 152q-167 153 -167 385q0 234 168 389q168 154 421 154t418 -157q169 -152 169 -386q0 -174 -92 -304z" />
    <glyph glyph-name="R.sc" horiz-adv-x="1147" 
d="M508 424h-85v-424h-283v1064h551q138 0 233 -94q95 -92 95 -233q0 -136 -93 -226q-48 -45 -135 -69l306 -442h-323zM423 831v-190h186q45 0 74.5 25.5t29.5 69.5t-29.5 69.5t-74.5 25.5h-186z" />
    <glyph glyph-name="S.sc" horiz-adv-x="1162" 
d="M600 1078q123 0 246 -43.5t216 -119.5l-141 -179q-167 116 -326 116q-136 0 -136 -79q0 -72 201 -121q160 -36 244 -85q152 -92 152 -259q0 -156 -135 -251q-123 -82 -321 -82q-142 0 -274.5 45t-225.5 123l144 180q163 -127 351 -127q75 0 124 27q45 26 45 70
q0 47 -49 76q-52 30 -153 52q-150 34 -237 83q-154 88 -154 247q0 145 122 235q125 92 307 92z" />
    <glyph glyph-name="T.sc" horiz-adv-x="1127" 
d="M100 1064h927v-233h-324v-831h-281v831h-322v233z" />
    <glyph glyph-name="U.sc" 
d="M130 1057h282v-591q0 -112 54 -173.5t177 -61.5q123 -1 177 61t54 174v591h282v-615q0 -219 -136 -343t-377 -124q-239 0 -376 124q-135 124 -137 343v615z" />
    <glyph glyph-name="V.sc" horiz-adv-x="1232" 
d="M30 1064h290l296 -782l296 782h290l-460 -1064h-252z" />
    <glyph glyph-name="W.sc" horiz-adv-x="1704" 
d="M30 1064h283l202 -743l196 743h272l196 -743l202 743h283l-318 -1064h-307l-192 732l-192 -732h-307z" />
    <glyph glyph-name="X.sc" horiz-adv-x="1226" 
d="M53 1064h350l208 -292l211 292h350l-402 -518l426 -546h-351l-234 321l-232 -321h-349l426 546z" />
    <glyph glyph-name="Y.sc" horiz-adv-x="1194" 
d="M30 1064h323l243 -386l244 386h324l-426 -623v-441h-282l1 441z" />
    <glyph glyph-name="Z.sc" horiz-adv-x="1154" 
d="M127 1064h914v-177l-547 -662h560v-225h-954v175l530 661h-503v228z" />
    <glyph glyph-name="Cdot" unicode="&#x10a;" horiz-adv-x="1604" 
d="M858 1442q220 0 394.5 -97.5t271.5 -269.5l-281 -125q-120 210 -385 210q-197 0 -321.5 -126t-124.5 -327t124.5 -327t321.5 -126q265 0 385 210l281 -126q-97 -168 -271.5 -265.5t-394.5 -97.5q-328 0 -543 207t-215 524.5t215 526.5t543 209zM858 1869q66 0 117 -51
q48 -46 48 -112q0 -70 -50 -117q-49 -47 -115 -47q-69 0 -118 48q-47 47 -47 116q0 68 47 114q48 49 118 49z" />
    <glyph glyph-name="cdot" unicode="&#x10b;" horiz-adv-x="1230" 
d="M666 1035q322 0 484 -245l-242 -115q-73 169 -242 169q-121 0 -197 -95.5t-76 -245.5t76 -245.5t197 -95.5q169 0 242 169l242 -115q-159 -241 -484 -241q-245 0 -405.5 149.5t-160.5 378.5t160.5 380.5t405.5 151.5zM666 1485q66 0 117 -51q48 -46 48 -112
q0 -70 -50 -117q-49 -47 -115 -47q-69 0 -118 48q-47 47 -47 116q0 68 47 114q48 49 118 49z" />
    <glyph glyph-name="Dcroat" unicode="&#x110;" horiz-adv-x="1653" 
d="M210 815v603h633q303 0 507 -197q203 -197 203 -512q0 -314 -204 -512q-203 -197 -506 -197h-633v602h-160v213h160zM500 602v-360h277q200 0 336 129q135 128 135 338t-136 340q-135 130 -335 130h-277v-364h311v-213h-311z" />
    <glyph glyph-name="dcroat" unicode="&#x111;" horiz-adv-x="1414" 
d="M475 748q-82 -95 -82 -245t81 -244q81 -93 208.5 -93t208.5 93.5t81 243.5t-81 245.5t-208.5 95.5t-207.5 -96zM957 1100h-250v205h250l-1 113h277v-113h131v-205h-131v-1100h-277v134q-153 -159 -366 -159t-352 150q-138 149 -138 378t139 381q138 151 351 151t366 -159
z" />
    <glyph glyph-name="Edot" unicode="&#x116;" horiz-adv-x="1304" 
d="M140 1418h1064v-242h-772v-321h730v-242h-730v-372h772v-241h-1064v1418zM693 1844q66 0 117 -51q48 -46 48 -112q0 -70 -50 -117q-49 -47 -115 -47q-69 0 -118 48q-47 47 -47 116q0 68 47 114q48 49 118 49z" />
    <glyph glyph-name="edot" unicode="&#x117;" horiz-adv-x="1321" 
d="M1068 885q153 -152 153 -382q0 -24 -7 -83h-815q19 -118 99 -188t201 -70q156 0 261 125l219 -102q-76 -99 -205 -154.5t-275 -55.5q-262 0 -430.5 149t-168.5 379t161 381q160 152 408 152t399 -151zM492 774q-70 -70 -93 -185h535q-20 115 -90 185t-177 70
q-105 0 -175 -70zM666 1485q66 0 117 -51q48 -46 48 -112q0 -70 -50 -117q-49 -47 -115 -47q-69 0 -118 48q-47 47 -47 116q0 68 47 114q48 49 118 49z" />
    <glyph glyph-name="Gdot" unicode="&#x120;" horiz-adv-x="1662" 
d="M858 1869q66 0 117 -51q48 -46 48 -112q0 -70 -50 -117q-49 -47 -115 -47q-69 0 -118 48q-47 47 -47 116q0 68 47 114q48 49 118 49zM845 1441q200 0 358 -86t249 -237l-273 -116q-136 166 -334 166q-194 0 -317 -129t-123 -332q0 -201 123 -331t317 -130q166 0 284 90
t146 248h-462v246h739q10 -58 10 -122q0 -321 -199.5 -527t-517.5 -206q-322 0 -533.5 207.5t-211.5 524.5t211.5 525.5t533.5 208.5z" />
    <glyph glyph-name="gdot" unicode="&#x121;" horiz-adv-x="1373" 
d="M593 1035q213 0 363 -159v133h277v-898q0 -550 -608 -550q-242 0 -433 102l80 222q171 -89 347 -89t256 76q81 77 81 262q-150 -159 -363 -159t-353 149q-140 150 -140 379t140 380.5t353 151.5zM475 748q-82 -95 -82 -245t81 -244q81 -93 208.5 -93t208.5 93.5t81 243.5
t-81 245.5t-208.5 95.5t-207.5 -96zM661 1485q66 0 117 -51q48 -46 48 -112q0 -70 -50 -117q-49 -47 -115 -47q-69 0 -118 48q-47 47 -47 116q0 68 47 114q48 49 118 49z" />
    <glyph glyph-name="Idotaccent" unicode="&#x130;" horiz-adv-x="568" 
d="M140 1418h288v-1418h-288v1418zM284 1844q66 0 117 -51q48 -46 48 -112q0 -70 -50 -117q-49 -47 -115 -47q-69 0 -118 48q-47 47 -47 116q0 68 47 114q48 49 118 49z" />
    <glyph glyph-name="Ldot" unicode="&#x13f;" horiz-adv-x="1121" 
d="M906 877q66 0 117 -51q48 -46 48 -112q0 -70 -50 -117q-49 -47 -115 -47q-69 0 -118 48q-47 47 -47 116q0 68 47 114q48 49 118 49zM429 1418v-1177h642v-241h-931v1418h289z" />
    <glyph glyph-name="ldot" unicode="&#x140;" horiz-adv-x="947" 
d="M732 877q66 0 117 -51q48 -46 48 -112q0 -70 -50 -117q-49 -47 -115 -47q-69 0 -118 48q-47 47 -47 116q0 68 47 114q48 49 118 49zM140 1418h277v-1418h-277v1418z" />
    <glyph glyph-name="longs" unicode="&#x17f;" horiz-adv-x="750" 
d="M450 1445q141 0 250 -86l-79 -184q-61 41 -109 41q-96 0 -95 -102v-1114h-277v1137q0 140 84.5 224t225.5 84z" />
    <glyph glyph-name="Zdot" unicode="&#x17b;" horiz-adv-x="1400" 
d="M129 1418h1142v-186l-764 -991h793v-241h-1200v191l769 989h-740v238zM703 1844q66 0 117 -51q48 -46 48 -112q0 -70 -50 -117q-49 -47 -115 -47q-69 0 -118 48q-47 47 -47 116q0 68 47 114q48 49 118 49z" />
    <glyph glyph-name="zdot" unicode="&#x17c;" horiz-adv-x="1111" 
d="M126 1009h872v-168l-516 -628h529v-213h-911v166l500 627h-474v216zM576 1460q66 0 117 -51q48 -46 48 -112q0 -70 -50 -117q-49 -47 -115 -47q-69 0 -118 48q-47 47 -47 116q0 68 47 114q48 49 118 49z" />
    <glyph glyph-name="DZcaron" unicode="&#x1c4;" horiz-adv-x="2874" 
d="M140 1418h633q303 0 506.5 -197t203.5 -511.5t-203.5 -512t-506.5 -197.5h-633v1418zM430 1179v-937h277q200 0 335.5 128.5t135.5 338.5t-135.5 340t-335.5 130h-277zM1623 1418h1142v-186l-764 -991h793v-241h-1200v191l769 989h-740v238zM2327 1520h-266l-284 326h224
l193 -141l193 141h224z" />
    <glyph glyph-name="Dzcaron" unicode="&#x1c5;" horiz-adv-x="2587" 
d="M140 1418h633q303 0 506.5 -197t203.5 -511.5t-203.5 -512t-506.5 -197.5h-633v1418zM430 1179v-937h277q200 0 335.5 128.5t135.5 338.5t-135.5 340t-335.5 130h-277zM1622 1009h872v-168l-516 -628h529v-213h-911v166l500 627h-474v216zM2206 1111h-266l-284 326h224
l193 -141l193 141h224z" />
    <glyph glyph-name="dzcaron" unicode="&#x1c6;" horiz-adv-x="2398" 
d="M1413 1009h872v-168l-516 -628h529v-213h-911v166l500 627h-474v216zM1997 1111h-266l-284 326h224l193 -141l193 141h224zM475 748q-82 -95 -82 -245t81 -244q81 -93 208.5 -93t208.5 93.5t81 243.5t-81 245.5t-208.5 95.5t-207.5 -96zM1233 1418v-1418h-277v134
q-153 -159 -366 -159t-351.5 149.5t-138.5 378.5t139 381q138 151 351 151t366 -159v542h277z" />
    <glyph glyph-name="LJ" unicode="&#x1c7;" horiz-adv-x="2156" 
d="M1733 1418h293v-952q0 -208 -138.5 -349.5t-354 -141.5t-362.5 158l176 208q66 -89 187 -89q91 0 144 59q55 59 55 143v964zM429 1418v-1177h642v-241h-931v1418h289z" />
    <glyph glyph-name="Lj" unicode="&#x1c8;" horiz-adv-x="1825" 
d="M429 1418v-1177h642v-241h-931v1418h289zM1391 1009h277v-1140q0 -140 -85.5 -224t-222.5 -84t-249 86l80 184q56 -41 104 -41q96 0 96 102v1117zM1530 1427q66 0 117 -51q48 -46 48 -112q0 -70 -50 -117q-49 -47 -115 -47q-69 0 -118 48q-47 47 -47 116t47 114
q49 49 118 49z" />
    <glyph glyph-name="lj" unicode="&#x1c9;" horiz-adv-x="1171" 
d="M737 1009h277v-1140q0 -140 -85.5 -224t-222.5 -84t-249 86l80 184q56 -41 104 -41q96 0 96 102v1117zM876 1427q66 0 117 -51q48 -46 48 -112q0 -70 -50 -117q-49 -47 -115 -47q-69 0 -118 48q-47 47 -47 116t47 114q49 49 118 49zM140 1418h277v-1418h-277v1418z" />
    <glyph glyph-name="NJ" unicode="&#x1ca;" horiz-adv-x="2585" 
d="M2162 1418h293v-952q0 -208 -138.5 -349.5t-354 -141.5t-362.5 158l176 208q66 -89 187 -89q91 0 144 59q55 59 55 143v964zM140 1418h301l686 -977v977h293v-1418h-305v0l-686 978v-978h-289v1418z" />
    <glyph glyph-name="Nj" unicode="&#x1cb;" horiz-adv-x="2174" 
d="M1740 1009h277v-1140q0 -140 -85.5 -224t-222.5 -84t-249 86l80 184q56 -41 104 -41q96 0 96 102v1117zM1879 1427q66 0 117 -51q48 -46 48 -112q0 -70 -50 -117q-49 -47 -115 -47q-69 0 -118 48q-47 47 -47 116t47 114q49 49 118 49zM140 1418h301l686 -977v977h293
v-1418h-305v0l-686 978v-978h-289v1418z" />
    <glyph glyph-name="nj" unicode="&#x1cc;" horiz-adv-x="1910" 
d="M767 1035q169 0 279 -110t110 -288v-637h-277v637q0 89 -59 148t-145 59q-108 -3 -183 -81t-75 -177v-586h-277v1009h277v-133q140 159 350 159zM1476 1009h277v-1140q0 -140 -85.5 -224t-222.5 -84t-249 86l80 184q56 -41 104 -41q96 0 96 102v1117zM1615 1427
q66 0 117 -51q48 -46 48 -112q0 -70 -50 -117q-49 -47 -115 -47q-69 0 -118 48q-47 47 -47 116t47 114q49 49 118 49z" />
    <glyph glyph-name="DZ" unicode="&#x1f1;" horiz-adv-x="2874" 
d="M140 1418h633q303 0 506.5 -197t203.5 -511.5t-203.5 -512t-506.5 -197.5h-633v1418zM430 1179v-937h277q200 0 335.5 128.5t135.5 338.5t-135.5 340t-335.5 130h-277zM1623 1418h1142v-186l-764 -991h793v-241h-1200v191l769 989h-740v238z" />
    <glyph glyph-name="Dz" unicode="&#x1f2;" horiz-adv-x="2587" 
d="M140 1418h633q303 0 506.5 -197t203.5 -511.5t-203.5 -512t-506.5 -197.5h-633v1418zM430 1179v-937h277q200 0 335.5 128.5t135.5 338.5t-135.5 340t-335.5 130h-277zM1622 1009h872v-168l-516 -628h529v-213h-911v166l500 627h-474v216z" />
    <glyph glyph-name="dz" unicode="&#x1f3;" horiz-adv-x="2398" 
d="M1413 1009h872v-168l-516 -628h529v-213h-911v166l500 627h-474v216zM475 748q-82 -95 -82 -245t81 -244q81 -93 208.5 -93t208.5 93.5t81 243.5t-81 245.5t-208.5 95.5t-207.5 -96zM1233 1418v-1418h-277v134q-153 -159 -366 -159t-351.5 149.5t-138.5 378.5t139 381
q138 151 351 151t366 -159v542h277z" />
    <glyph glyph-name="Ainvertedbreve" unicode="&#x202;" horiz-adv-x="1552" 
d="M644 1418h264l614 -1418h-315l-127 307h-608l-127 -307h-315zM777 1043l-207 -494h411zM776 1727q-83 0 -134 -52q-27 -28 -38.5 -67.5t-11.5 -87.5h-183q0 82 25 151.5t79 122.5q103 100 263 100t263 -101q55 -53 79 -122t24 -151h-182q0 48 -11 87.5t-40 68.5
q-51 51 -133 51z" />
    <glyph glyph-name="ainvertedbreve" unicode="&#x203;" horiz-adv-x="1363" 
d="M684 1343q-83 0 -134 -52q-27 -28 -38.5 -67.5t-11.5 -87.5h-183q0 82 25 151.5t79 122.5q103 100 263 100t263 -101q55 -53 79 -122t24 -151h-182q0 48 -11 87.5t-40 68.5q-51 51 -133 51zM475 748q-82 -95 -82 -245t81 -244q81 -93 208.5 -93t208.5 93.5t81 243.5
t-81 245.5t-208.5 95.5t-207.5 -96zM1233 1009v-1009h-277v134q-153 -159 -366 -159t-351.5 149.5t-138.5 378.5t139 381q138 151 351 151t366 -159v133h277z" />
    <glyph glyph-name="Einvertedbreve" unicode="&#x206;" horiz-adv-x="1304" 
d="M140 1418h1064v-242h-772v-321h730v-242h-730v-372h772v-241h-1064v1418zM685 1727q-83 0 -134 -52q-27 -28 -38.5 -67.5t-11.5 -87.5h-183q0 82 25 151.5t79 122.5q103 100 263 100t263 -101q55 -53 79 -122t24 -151h-182q0 48 -11 87.5t-40 68.5q-51 51 -133 51z" />
    <glyph glyph-name="einvertedbreve" unicode="&#x207;" horiz-adv-x="1321" 
d="M1068 885q153 -152 153 -382q0 -24 -7 -83h-815q19 -118 99 -188t201 -70q156 0 261 125l219 -102q-76 -99 -205 -154.5t-275 -55.5q-262 0 -430.5 149t-168.5 379t161 381q160 152 408 152t399 -151zM492 774q-70 -70 -93 -185h535q-20 115 -90 185t-177 70
q-105 0 -175 -70zM662 1318q-83 0 -134 -52q-27 -28 -38.5 -67.5t-11.5 -87.5h-183q0 82 25 151.5t79 122.5q103 100 263 100t263 -101q55 -53 79 -122t24 -151h-182q0 48 -11 87.5t-40 68.5q-51 51 -133 51z" />
    <glyph glyph-name="oinvertedbreve" unicode="&#x20f;" horiz-adv-x="1334" 
d="M662 1318q-83 0 -134 -52q-27 -28 -38.5 -67.5t-11.5 -87.5h-183q0 82 25 151.5t79 122.5q103 100 263 100t263 -101q55 -53 79 -122t24 -151h-182q0 48 -11 87.5t-40 68.5q-51 51 -133 51zM1075 882q159 -149 159 -379q0 -228 -161 -379q-161 -149 -406 -149t-406 149.5
t-161 378.5t161 380.5t406 151.5t408 -153zM470 748q-77 -95 -77 -245t77 -246q76 -95 197 -95t197.5 95.5t76.5 245.5t-76.5 245.5t-197.5 95.5t-197 -96z" />
    <glyph glyph-name="Oinvertedbreve" unicode="&#x20e;" horiz-adv-x="1718" 
d="M853 1752q-83 0 -134 -52q-27 -28 -38.5 -67.5t-11.5 -87.5h-183q0 82 25 151.5t79 122.5q103 100 263 100t263 -101q55 -53 79 -122t24 -151h-182q0 48 -11 87.5t-40 68.5q-51 51 -133 51zM1385 1230q215 -206 215 -523t-212.5 -524.5t-535.5 -207.5t-537.5 207.5
t-214.5 524.5t214.5 526t537.5 209t533 -212zM525 1042q-125 -129 -125 -335t126 -335.5t324 -129.5t324.5 129.5t126.5 335.5t-126.5 335.5t-324.5 129.5t-325 -130z" />
    <glyph glyph-name="Iinvertedbreve" unicode="&#x20a;" horiz-adv-x="568" 
d="M140 1418h288v-1418h-288v1418zM284 1727q-83 0 -134 -52q-27 -28 -38.5 -67.5t-11.5 -87.5h-183q0 82 25 151.5t79 122.5q103 100 263 100t263 -101q55 -53 79 -122t24 -151h-182q0 48 -11 87.5t-40 68.5q-51 51 -133 51z" />
    <glyph glyph-name="iinvertedbreve" unicode="&#x20b;" horiz-adv-x="557" 
d="M140 1009h277v-1009h-277v1009zM278 1343q-83 0 -134 -52q-27 -28 -38.5 -67.5t-11.5 -87.5h-183q0 82 25 151.5t79 122.5q103 100 263 100t263 -101q55 -53 79 -122t24 -151h-182q0 48 -11 87.5t-40 68.5q-51 51 -133 51z" />
    <glyph glyph-name="Rinvertedbreve" unicode="&#x212;" horiz-adv-x="1335" 
d="M627 1727q-83 0 -134 -52q-27 -28 -38.5 -67.5t-11.5 -87.5h-183q0 82 25 151.5t79 122.5q103 100 263 100t263 -101q55 -53 79 -122t24 -151h-182q0 48 -11 87.5t-40 68.5q-51 51 -133 51zM570 583h-141v-583h-289v1418h647q184 0 310 -124q126 -123 126 -311
q0 -177 -124 -281q-82 -69 -222 -105l398 -597h-351zM429 1177v-391h295q81 0 137.5 55.5t56.5 142t-56.5 140t-137.5 53.5h-295z" />
    <glyph glyph-name="rinvertedbreve" unicode="&#x213;" horiz-adv-x="818" 
d="M758 1035v-251q-64 38 -153 38t-140 -49.5t-51 -135.5v-637h-274v1009h274v-133q137 156 344 159zM438 1318q-83 0 -134 -52q-27 -28 -38.5 -67.5t-11.5 -87.5h-183q0 82 25 151.5t79 122.5q103 100 263 100t263 -101q55 -53 79 -122t24 -151h-182q0 48 -11 87.5
t-40 68.5q-51 51 -133 51z" />
    <glyph glyph-name="Uinvertedbreve" unicode="&#x216;" horiz-adv-x="1536" 
d="M130 1418h291v-843q0 -147 91 -240t255.5 -93t256 93t91.5 240v843h291v-820q0 -292 -166 -457.5t-474 -165.5t-472 165.5t-164 457.5v820zM768 1727q-83 0 -134 -52q-27 -28 -38.5 -67.5t-11.5 -87.5h-183q0 82 25 151.5t79 122.5q103 100 263 100t263 -101
q55 -53 79 -122t24 -151h-182q0 48 -11 87.5t-40 68.5q-51 51 -133 51z" />
    <glyph glyph-name="uinvertedbreve" unicode="&#x217;" 
d="M130 1009h277v-640q0 -89 59 -148t145 -59q108 4 183 82t75 176v589h277v-1009h-277v134q-141 -159 -351 -159q-168 0 -278 109.5t-110 288.5v636zM637 1343q-83 0 -134 -52q-27 -28 -38.5 -67.5t-11.5 -87.5h-183q0 82 25 151.5t79 122.5q103 100 263 100t263 -101
q55 -53 79 -122t24 -151h-182q0 48 -11 87.5t-40 68.5q-51 51 -133 51z" />
    <glyph glyph-name="Scommaaccent" unicode="&#x218;" horiz-adv-x="1354" 
d="M545 -773q158 164 179 292q-8 -1 -29 -1q-76 0 -129 51q-52 53 -52 129q0 74 53.5 126.5t130.5 52.5q89 0 142.5 -62t53.5 -163q0 -271 -243 -511zM689 1443q297 0 523 -186l-170 -205q-78 69 -166 100.5t-184 31.5q-110 0 -173 -48q-46 -37 -46 -95q0 -63 59 -102
q46 -31 223 -81q209 -54 311 -118q180 -119 180 -331q0 -194 -168 -322q-152 -112 -386 -112q-342 0 -592 234l162 206q72 -73 185 -127q117 -59 245 -59q120 0 190 51q63 51 63 119q0 70 -64 113q-47 32 -218 80q-219 63 -308 115q-185 109 -185 316q0 188 147 304t372 116
z" />
    <glyph glyph-name="scommaaccent" unicode="&#x219;" horiz-adv-x="1123" 
d="M427 -773q158 164 179 292q-8 -1 -29 -1q-76 0 -129 51q-52 53 -52 129q0 74 53.5 126.5t130.5 52.5q89 0 142.5 -62t53.5 -163q0 -271 -243 -511zM580 1033q118 0 236 -41.5t207 -114.5l-135 -172q-160 112 -313 112q-130 0 -130 -76q0 -69 193 -116q153 -35 234 -82
q146 -88 146 -248q0 -150 -130 -241q-118 -79 -308 -79q-136 0 -263.5 43t-216.5 118l138 173q157 -122 337 -122q72 0 119 26q43 25 43 67q0 45 -47 73q-50 29 -146 50q-144 33 -228 80q-148 84 -148 237q0 139 117 225q120 88 295 88z" />
    <glyph glyph-name="Tcommabelow" unicode="&#x21a;" horiz-adv-x="854" 
d="M305 -773q158 164 179 292q-8 -1 -29 -1q-76 0 -129 51q-52 53 -52 129q0 74 53.5 126.5t130.5 52.5q89 0 142.5 -62t53.5 -163q0 -271 -243 -511zM214 1009v322h277v-322h184v-216h-184v-491q0 -101 96 -101q48 0 104 41l83 -182q-111 -85 -251 -85q-141 0 -225 84
t-84 221v513h-134v216h134z" />
    <glyph glyph-name="tcommabelow" unicode="&#x21b;" horiz-adv-x="1312" 
d="M493 -773q158 164 179 292q-8 -1 -29 -1q-76 0 -129 51q-52 53 -52 129q0 74 53.5 126.5t130.5 52.5q89 0 142.5 -62t53.5 -163q0 -271 -243 -511zM80 1418h1152v-239h-432v-1179h-290v1179h-430v239z" />
    <glyph glyph-name="perthousand" unicode="&#x2030;" horiz-adv-x="2560" 
d="M709 1337q106 -104 106 -252t-105 -252t-253.5 -104t-252.5 104t-104 252t104 252.5t252.5 104.5t252.5 -105zM1239 1418h166l-914 -1418h-166zM457 1291q-86 0 -147.5 -60t-61.5 -145.5t61.5 -147t147 -61.5t148 61.5t62.5 147t-61 145.5t-149 60zM1523 583
q107 -104 107 -252t-105.5 -252t-253.5 -104t-252 104t-104 252t104 252t252 104t252 -104zM1123 477q-60 -60 -60 -146t61 -146t147 -60q88 0 149.5 60t61.5 146t-62.5 147t-148.5 61t-148 -62zM2101 689q73 0 138.5 -28t114 -76t77.5 -113t29 -138q0 -75 -29 -140.5
t-77.5 -114t-114 -76.5t-138.5 -28q-75 0 -139.5 28t-112.5 76.5t-75.5 114t-27.5 140.5q0 73 27.5 138t75.5 113t112.5 76t139.5 28zM1953 477q-60 -60 -60 -146t61 -146t147 -60q88 0 149.5 60t61.5 146t-62.5 147t-148.5 61t-148 -62z" />
    <glyph glyph-name="bullet" unicode="&#x2022;" horiz-adv-x="904" 
d="M452 1056q-148 0 -249 -101q-100 -100 -103 -246q3 -143 103 -243q101 -103 249 -103q143 0 246 100q106 101 106 246q-3 143 -103 244q-106 103 -249 103z" />
    <glyph glyph-name="Euro" unicode="&#x20ac;" horiz-adv-x="1684" 
d="M208 432h-108v206l63 -1q-3 34 -3 69q0 37 4 72h-64v206h109q53 139 166 249q215 209 543 209q220 0 394 -97q175 -98 272 -270l-281 -125q-120 210 -385 210q-197 0 -321 -126q-24 -24 -43 -50h546v-206h-624q-4 -34 -4 -71q0 -36 4 -69h624v-206h-547q19 -27 43 -52
q125 -126 322 -126q265 0 385 210l281 -126q-97 -168 -271 -265q-175 -98 -395 -98q-328 0 -543 207q-113 109 -167 250z" />
    <glyph glyph-name="trademark" unicode="&#x2122;" horiz-adv-x="1360" 
d="M80 1418h461v-96h-173v-471h-116v471h-172v96zM586 1418h130l186 -431l187 431h131v-567h-116v355l-156 -355h-91l-155 356v-356h-116v567z" />
    <glyph glyph-name="a.salt" horiz-adv-x="1243" 
d="M581 1034q226 0 379 -111q153 -112 153 -319v-604h-277v89q-166 -115 -341 -115q-166 0 -280.5 89t-114.5 248.5t114.5 250t280.5 90.5q175 0 341 -114q0 264 -281 264q-152 0 -286 -48l-73 210q172 70 385 70zM578 490q-99 0 -154.5 -49.5t-55.5 -129t55.5 -127.5
t154.5 -48q105 0 189 54.5t84 121t-84 122.5t-189 56z" />
    <glyph glyph-name="g.salt" horiz-adv-x="1237" 
d="M954 1164q-172 0 -234 -139q-68 8 -105 8q-208 0 -344 -103t-136 -261q0 -168 176 -272q-152 -66 -152 -165q0 -96 107 -137q-186 -85 -186 -233q0 -131 153 -215.5t386.5 -84.5t385.5 84.5t152 215.5q0 133 -144 213t-394 102q-216 20 -216 94q0 36 30 62
q86 -28 182 -28q208 0 344 104t136 260q0 99 -55.5 178t-154.5 129q34 34 88 34q43 0 83 -24l26 152q-53 26 -128 26zM482 791q52 47 133.5 47t132.5 -47t51 -122t-51 -123t-132.5 -48t-133 48t-51.5 123t51 122zM442 -46q68 28 177.5 28t175.5 -28t66 -73t-66 -74
t-175.5 -29t-177 29t-67.5 74t67 73z" />
    <glyph glyph-name="y.salt" horiz-adv-x="1167" 
d="M30 1009l418 -1009l-169 -411h282l576 1420h-291l-261 -677l-261 677h-294z" />
    <glyph glyph-name="agrave.salt" horiz-adv-x="1243" 
d="M581 1034q226 0 379 -111q153 -112 153 -319v-604h-277v89q-166 -115 -341 -115q-166 0 -280.5 89t-114.5 248.5t114.5 250t280.5 90.5q175 0 341 -114q0 264 -281 264q-152 0 -286 -48l-73 210q172 70 385 70zM578 490q-99 0 -154.5 -49.5t-55.5 -129t55.5 -127.5
t154.5 -48q105 0 189 54.5t84 121t-84 122.5t-189 56zM350 1347l229 115l284 -326h-224z" />
    <glyph glyph-name="aacute.salt" horiz-adv-x="1243" 
d="M581 1034q226 0 379 -111q153 -112 153 -319v-604h-277v89q-166 -115 -341 -115q-166 0 -280.5 89t-114.5 248.5t114.5 250t280.5 90.5q175 0 341 -114q0 264 -281 264q-152 0 -286 -48l-73 210q172 70 385 70zM578 490q-99 0 -154.5 -49.5t-55.5 -129t55.5 -127.5
t154.5 -48q105 0 189 54.5t84 121t-84 122.5t-189 56zM863 1347l-289 -211h-224l284 326z" />
    <glyph glyph-name="acircumflex.salt" horiz-adv-x="1243" 
d="M581 1034q226 0 379 -111q153 -112 153 -319v-604h-277v89q-166 -115 -341 -115q-166 0 -280.5 89t-114.5 248.5t114.5 250t280.5 90.5q175 0 341 -114q0 264 -281 264q-152 0 -286 -48l-73 210q172 70 385 70zM578 490q-99 0 -154.5 -49.5t-55.5 -129t55.5 -127.5
t154.5 -48q105 0 189 54.5t84 121t-84 122.5t-189 56zM473 1462h266l284 -326h-224l-193 141l-193 -141h-224z" />
    <glyph glyph-name="atilde.salt" horiz-adv-x="1243" 
d="M581 1034q226 0 379 -111q153 -112 153 -319v-604h-277v89q-166 -115 -341 -115q-166 0 -280.5 89t-114.5 248.5t114.5 250t280.5 90.5q175 0 341 -114q0 264 -281 264q-152 0 -286 -48l-73 210q172 70 385 70zM578 490q-99 0 -154.5 -49.5t-55.5 -129t55.5 -127.5
t154.5 -48q105 0 189 54.5t84 121t-84 122.5t-189 56zM479 1461q77 0 186 -81q71 -53 108 -53q67 0 118 93l129 -105q-52 -89 -113.5 -134t-133.5 -45q-81 0 -187 79q-72 55 -107 55q-69 0 -121 -90l-130 104q56 86 116 133q61 46 135 44z" />
    <glyph glyph-name="adieresis.salt" horiz-adv-x="1243" 
d="M581 1034q226 0 379 -111q153 -112 153 -319v-604h-277v89q-166 -115 -341 -115q-166 0 -280.5 89t-114.5 248.5t114.5 250t280.5 90.5q175 0 341 -114q0 264 -281 264q-152 0 -286 -48l-73 210q172 70 385 70zM578 490q-99 0 -154.5 -49.5t-55.5 -129t55.5 -127.5
t154.5 -48q105 0 189 54.5t84 121t-84 122.5t-189 56zM357 1463q66 0 117 -51q48 -46 48 -112q0 -70 -50 -117q-49 -47 -115 -47q-69 0 -118 48q-47 47 -47 116q0 68 47 114q48 49 118 49zM855 1463q66 0 117 -51q48 -46 48 -112q0 -70 -50 -117q-49 -47 -115 -47
q-69 0 -118 48q-47 47 -47 116q0 68 47 114q48 49 118 49z" />
    <glyph glyph-name="aring.salt" horiz-adv-x="1243" 
d="M581 1034q226 0 379 -111q153 -112 153 -319v-604h-277v89q-166 -115 -341 -115q-166 0 -280.5 89t-114.5 248.5t114.5 250t280.5 90.5q175 0 341 -114q0 264 -281 264q-152 0 -286 -48l-73 210q172 70 385 70zM578 490q-99 0 -154.5 -49.5t-55.5 -129t55.5 -127.5
t154.5 -48q105 0 189 54.5t84 121t-84 122.5t-189 56zM605 1492q-40 0 -68.5 -30t-28.5 -69q0 -41 28.5 -69t68.5 -28q41 0 69 28t28 69q0 39 -28 69t-69 30zM605 1649q52 0 98 -20t80.5 -55.5t55 -81.5t20.5 -99q0 -54 -20.5 -101t-55 -81.5t-80.5 -54.5t-98 -20
q-53 0 -99 20t-80 54.5t-53.5 81.5t-19.5 101q0 53 19.5 99t53.5 81.5t80 55.5t99 20z" />
    <glyph glyph-name="amacron.salt" horiz-adv-x="1243" 
d="M581 1034q226 0 379 -111q153 -112 153 -319v-604h-277v89q-166 -115 -341 -115q-166 0 -280.5 89t-114.5 248.5t114.5 250t280.5 90.5q175 0 341 -114q0 264 -281 264q-152 0 -286 -48l-73 210q172 70 385 70zM578 490q-99 0 -154.5 -49.5t-55.5 -129t55.5 -127.5
t154.5 -48q105 0 189 54.5t84 121t-84 122.5t-189 56zM260 1342v-206h729v206h-729z" />
    <glyph glyph-name="abreve.salt" horiz-adv-x="1243" 
d="M581 1034q226 0 379 -111q153 -112 153 -319v-604h-277v89q-166 -115 -341 -115q-166 0 -280.5 89t-114.5 248.5t114.5 250t280.5 90.5q175 0 341 -114q0 264 -281 264q-152 0 -286 -48l-73 210q172 70 385 70zM578 490q-99 0 -154.5 -49.5t-55.5 -129t55.5 -127.5
t154.5 -48q105 0 189 54.5t84 121t-84 122.5t-189 56zM606 1303q83 0 134 52q27 28 38.5 67.5t11.5 87.5h183q0 -82 -25 -151.5t-79 -122.5q-103 -100 -263 -100t-263 101q-55 53 -79 122t-24 151h182q0 -48 11 -87.5t40 -68.5q51 -51 133 -51z" />
    <glyph glyph-name="aogonek.salt" horiz-adv-x="1243" 
d="M578 490q-99 0 -154.5 -49.5t-55.5 -129t55.5 -127.5t154.5 -48q105 0 189 54.5t84 121t-84 122.5t-189 56zM904 0h-68v89q-166 -115 -341 -115q-166 0 -280 89q-115 89 -115 248q0 160 114 250q115 91 281 91q175 0 341 -114q0 264 -281 264q-152 0 -286 -48l-73 210
q172 70 385 70q226 0 379 -111q153 -112 153 -319v-604q-305 -179 -305 -338q0 -45 24 -72t65 -27q68 0 110 88l111 -94q-95 -139 -230 -139q-116 0 -178 64q-63 62 -63 161q-1 183 257 357z" />
    <glyph glyph-name="acaron.salt" horiz-adv-x="1243" 
d="M581 1034q226 0 379 -111q153 -112 153 -319v-604h-277v89q-166 -115 -341 -115q-166 0 -280.5 89t-114.5 248.5t114.5 250t280.5 90.5q175 0 341 -114q0 264 -281 264q-152 0 -286 -48l-73 210q172 70 385 70zM578 490q-99 0 -154.5 -49.5t-55.5 -129t55.5 -127.5
t154.5 -48q105 0 189 54.5t84 121t-84 122.5t-189 56zM751 1136h-266l-284 326h224l193 -141l193 141h224z" />
    <glyph glyph-name="adblgrave.salt" horiz-adv-x="1243" 
d="M581 1034q226 0 379 -111q153 -112 153 -319v-604h-277v89q-166 -115 -341 -115q-166 0 -280.5 89t-114.5 248.5t114.5 250t280.5 90.5q175 0 341 -114q0 264 -281 264q-152 0 -286 -48l-73 210q172 70 385 70zM578 490q-99 0 -154.5 -49.5t-55.5 -129t55.5 -127.5
t154.5 -48q105 0 189 54.5t84 121t-84 122.5t-189 56zM550 1347l229 115l284 -326h-224zM102 1347l229 115l284 -326h-224z" />
    <glyph glyph-name="ainvertedbreve.salt" horiz-adv-x="1243" 
d="M581 1034q226 0 379 -111q153 -112 153 -319v-604h-277v89q-166 -115 -341 -115q-166 0 -280.5 89t-114.5 248.5t114.5 250t280.5 90.5q175 0 341 -114q0 264 -281 264q-152 0 -286 -48l-73 210q172 70 385 70zM578 490q-99 0 -154.5 -49.5t-55.5 -129t55.5 -127.5
t154.5 -48q105 0 189 54.5t84 121t-84 122.5t-189 56zM606 1343q-83 0 -134 -52q-27 -28 -38.5 -67.5t-11.5 -87.5h-183q0 82 25 151.5t79 122.5q103 100 263 100t263 -101q55 -53 79 -122t24 -151h-182q0 48 -11 87.5t-40 68.5q-51 51 -133 51z" />
    <glyph glyph-name="gcircumflex.salt" horiz-adv-x="1237" 
d="M485 1583h266l284 -326h-224l-193 141l-193 -141h-224zM954 1164q-172 0 -234 -139q-68 8 -105 8q-208 0 -344 -103t-136 -261q0 -168 176 -272q-152 -66 -152 -165q0 -96 107 -137q-186 -85 -186 -233q0 -131 153 -215.5t386.5 -84.5t385.5 84.5t152 215.5
q0 133 -144 213t-394 102q-216 20 -216 94q0 36 30 62q86 -28 182 -28q208 0 344 104t136 260q0 99 -55.5 178t-154.5 129q34 34 88 34q43 0 83 -24l26 152q-53 26 -128 26zM482 791q52 47 133.5 47t132.5 -47t51 -122t-51 -123t-132.5 -48t-133 48t-51.5 123t51 122z
M442 -46q68 28 177.5 28t175.5 -28t66 -73t-66 -74t-175.5 -29t-177 29t-67.5 74t67 73z" />
    <glyph glyph-name="gbreve.salt" horiz-adv-x="1237" 
d="M618 1394q83 0 134 52q27 28 38.5 67.5t11.5 87.5h183q0 -82 -25 -151.5t-79 -122.5q-103 -100 -263 -100t-263 101q-55 53 -79 122t-24 151h182q0 -48 11 -87.5t40 -68.5q51 -51 133 -51zM954 1164q-172 0 -234 -139q-68 8 -105 8q-208 0 -344 -103t-136 -261
q0 -168 176 -272q-152 -66 -152 -165q0 -96 107 -137q-186 -85 -186 -233q0 -131 153 -215.5t386.5 -84.5t385.5 84.5t152 215.5q0 133 -144 213t-394 102q-216 20 -216 94q0 36 30 62q86 -28 182 -28q208 0 344 104t136 260q0 99 -55.5 178t-154.5 129q34 34 88 34
q43 0 83 -24l26 152q-53 26 -128 26zM482 791q52 47 133.5 47t132.5 -47t51 -122t-51 -123t-132.5 -48t-133 48t-51.5 123t51 122zM442 -46q68 28 177.5 28t175.5 -28t66 -73t-66 -74t-175.5 -29t-177 29t-67.5 74t67 73z" />
    <glyph glyph-name="gcedilla.salt" horiz-adv-x="1237" 
d="M768 1864q-158 -164 -179 -292q8 1 29 1q76 0 129 -51q52 -53 52 -129q0 -74 -53.5 -126.5t-130.5 -52.5q-89 0 -142.5 62t-53.5 163q0 271 243 511zM954 1164q-172 0 -234 -139q-68 8 -105 8q-208 0 -344 -103t-136 -261q0 -168 176 -272q-152 -66 -152 -165
q0 -96 107 -137q-186 -85 -186 -233q0 -131 153 -215.5t386.5 -84.5t385.5 84.5t152 215.5q0 133 -144 213t-394 102q-216 20 -216 94q0 36 30 62q86 -28 182 -28q208 0 344 104t136 260q0 99 -55.5 178t-154.5 129q34 34 88 34q43 0 83 -24l26 152q-53 26 -128 26zM482 791
q52 47 133.5 47t132.5 -47t51 -122t-51 -123t-132.5 -48t-133 48t-51.5 123t51 122zM442 -46q68 28 177.5 28t175.5 -28t66 -73t-66 -74t-175.5 -29t-177 29t-67.5 74t67 73z" />
    <glyph glyph-name="gcaron.salt" horiz-adv-x="1237" 
d="M751 1251h-266l-284 326h224l193 -141l193 141h224zM954 1164q-172 0 -234 -139q-68 8 -105 8q-208 0 -344 -103t-136 -261q0 -168 176 -272q-152 -66 -152 -165q0 -96 107 -137q-186 -85 -186 -233q0 -131 153 -215.5t386.5 -84.5t385.5 84.5t152 215.5q0 133 -144 213
t-394 102q-216 20 -216 94q0 36 30 62q86 -28 182 -28q208 0 344 104t136 260q0 99 -55.5 178t-154.5 129q34 34 88 34q43 0 83 -24l26 152q-53 26 -128 26zM482 791q52 47 133.5 47t132.5 -47t51 -122t-51 -123t-132.5 -48t-133 48t-51.5 123t51 122zM442 -46
q68 28 177.5 28t175.5 -28t66 -73t-66 -74t-175.5 -29t-177 29t-67.5 74t67 73z" />
    <glyph glyph-name="gacute.salt" horiz-adv-x="1373" 
d="M875 1462l-289 -211h-224l284 326zM954 1164q-172 0 -234 -139q-68 8 -105 8q-208 0 -344 -103t-136 -261q0 -168 176 -272q-152 -66 -152 -165q0 -96 107 -137q-186 -85 -186 -233q0 -131 153 -215.5t386.5 -84.5t385.5 84.5t152 215.5q0 133 -144 213t-394 102
q-216 20 -216 94q0 36 30 62q86 -28 182 -28q208 0 344 104t136 260q0 99 -55.5 178t-154.5 129q34 34 88 34q43 0 83 -24l26 152q-53 26 -128 26zM482 791q52 47 133.5 47t132.5 -47t51 -122t-51 -123t-132.5 -48t-133 48t-51.5 123t51 122zM442 -46q68 28 177.5 28
t175.5 -28t66 -73t-66 -74t-175.5 -29t-177 29t-67.5 74t67 73z" />
    <glyph glyph-name="gdot.salt" horiz-adv-x="1373" 
d="M619 1541q66 0 117 -51q48 -46 48 -112q0 -70 -50 -117q-49 -47 -115 -47q-69 0 -118 48q-47 47 -47 116q0 68 47 114q48 49 118 49zM954 1164q-172 0 -234 -139q-68 8 -105 8q-208 0 -344 -103t-136 -261q0 -168 176 -272q-152 -66 -152 -165q0 -96 107 -137
q-186 -85 -186 -233q0 -131 153 -215.5t386.5 -84.5t385.5 84.5t152 215.5q0 133 -144 213t-394 102q-216 20 -216 94q0 36 30 62q86 -28 182 -28q208 0 344 104t136 260q0 99 -55.5 178t-154.5 129q34 34 88 34q43 0 83 -24l26 152q-53 26 -128 26zM482 791q52 47 133.5 47
t132.5 -47t51 -122t-51 -123t-132.5 -48t-133 48t-51.5 123t51 122zM442 -46q68 28 177.5 28t175.5 -28t66 -73t-66 -74t-175.5 -29t-177 29t-67.5 74t67 73z" />
    <glyph glyph-name="yacute.salt" horiz-adv-x="1167" 
d="M837 1322l-289 -211h-224l284 326zM30 1009l418 -1009l-169 -411h282l576 1420h-291l-261 -677l-261 677h-294z" />
    <glyph glyph-name="ydieresis.salt" horiz-adv-x="1167" 
d="M331 1438q66 0 117 -51q48 -46 48 -112q0 -70 -50 -117q-49 -47 -115 -47q-69 0 -118 48q-47 47 -47 116q0 68 47 114q48 49 118 49zM829 1438q66 0 117 -51q48 -46 48 -112q0 -70 -50 -117q-49 -47 -115 -47q-69 0 -118 48q-47 47 -47 116q0 68 47 114q48 49 118 49z
M30 1009l418 -1009l-169 -411h282l576 1420h-291l-261 -677l-261 677h-294z" />
    <glyph glyph-name="ycircumflex.salt" horiz-adv-x="1167" 
d="M447 1437h266l284 -326h-224l-193 141l-193 -141h-224zM30 1009l418 -1009l-169 -411h282l576 1420h-291l-261 -677l-261 677h-294z" />
    <glyph glyph-name="ymacron.salt" horiz-adv-x="1167" 
d="M216 1317v-206h729v206h-729zM30 1009l418 -1009l-169 -411h282l576 1420h-291l-261 -677l-261 677h-294z" />
    <glyph glyph-name="germandbls.salt" horiz-adv-x="1520" 
d="M746 1418q-285 0 -445 -162q-161 -163 -161 -451v-805h286v841q0 147 89 236q89 91 250 91h133l-215 -278v-153h191q106 0 183 -73q76 -76 76 -177q0 -112 -71 -181q-67 -67 -181 -71h-380v-235h380q228 0 384 140q155 139 155 357q0 338 -391 424l255 329v168h-538z" />
    <glyph glyph-name="uni1E9E" unicode="&#x1e9e;" horiz-adv-x="1520" 
d="M746 1418q-285 0 -445 -162q-161 -163 -161 -451v-805h286v841q0 147 89 236q89 91 250 91h133l-215 -278v-153h191q106 0 183 -73q76 -76 76 -177q0 -112 -71 -181q-67 -67 -181 -71h-380v-235h380q228 0 384 140q155 139 155 357q0 338 -391 424l255 329v168h-538z" />
    <glyph glyph-name="Adotabove" unicode="&#x226;" horiz-adv-x="1402" 
d="M644 1418h264l614 -1418h-315l-127 307h-608l-127 -307h-315zM777 1043l-207 -494h411zM777 1844q66 0 117 -51q48 -46 48 -112q0 -70 -50 -117q-49 -47 -115 -47q-69 0 -118 48q-47 47 -47 116q0 68 47 114q48 49 118 49z" />
    <glyph glyph-name="adotabove" unicode="&#x227;" horiz-adv-x="1255" 
d="M575 748q-82 -95 -82 -245t81 -244q81 -93 208.5 -93t208.5 93.5t81 243.5t-81 245.5t-208.5 95.5t-207.5 -96zM1333 1009v-1009h-277v134q-153 -159 -366 -159t-351.5 149.5t-138.5 378.5t139 381q138 151 351 151t366 -159v133h277zM779 1486q66 0 117 -51
q48 -46 48 -112q0 -70 -50 -117q-49 -47 -115 -47q-69 0 -118 48q-47 47 -47 116q0 68 47 114q48 49 118 49z" />
    <glyph glyph-name="Odotabove" unicode="&#x22e;" horiz-adv-x="1700" 
d="M1385 1230q215 -206 215 -523t-212.5 -524.5t-535.5 -207.5t-537.5 207.5t-214.5 524.5t214.5 526t537.5 209t533 -212zM525 1042q-125 -129 -125 -335t126 -335.5t324 -129.5t324.5 129.5t126.5 335.5t-126.5 335.5t-324.5 129.5t-325 -130zM852 1869q66 0 117 -51
q48 -46 48 -112q0 -70 -50 -117q-49 -47 -115 -47q-69 0 -118 48q-47 47 -47 116q0 68 47 114q48 49 118 49z" />
    <glyph glyph-name="odotabove" unicode="&#x22f;" horiz-adv-x="1334" 
d="M1075 882q159 -149 159 -379q0 -228 -161 -379q-161 -149 -406 -149t-406 149.5t-161 378.5t161 380.5t406 151.5t408 -153zM470 748q-77 -95 -77 -245t77 -246q76 -95 197 -95t197.5 95.5t76.5 245.5t-76.5 245.5t-197.5 95.5t-197 -96zM667 1485q66 0 117 -51
q48 -46 48 -112q0 -70 -50 -117q-49 -47 -115 -47q-69 0 -118 48q-47 47 -47 116q0 68 47 114q48 49 118 49z" />
    <glyph glyph-name="adotabove.salt" horiz-adv-x="1134" 
d="M681 1034q226 0 379 -111q153 -112 153 -319v-604h-277v89q-166 -115 -341 -115q-166 0 -280.5 89t-114.5 248.5t114.5 250t280.5 90.5q175 0 341 -114q0 264 -281 264q-152 0 -286 -48l-73 210q172 70 385 70zM678 490q-99 0 -154.5 -49.5t-55.5 -129t55.5 -127.5
t154.5 -48q105 0 189 54.5t84 121t-84 122.5t-189 56zM741 1486q66 0 117 -51q48 -46 48 -112q0 -70 -50 -117q-49 -47 -115 -47q-69 0 -118 48q-47 47 -47 116q0 68 47 114q48 49 118 49z" />
    </font>
</defs>
</svg>
